<?xml version="1.0" encoding="utf-8"?>
<!-- Generator: Adobe Illustrator 16.0.0, SVG Export Plug-In . SVG Version: 6.00 Build 0)  -->
<!DOCTYPE svg PUBLIC "-//W3C//DTD SVG 1.1//EN" "http://www.w3.org/Graphics/SVG/1.1/DTD/svg11.dtd">
<svg version="1.1" id="rt-logo" xmlns="http://www.w3.org/2000/svg" xmlns:xlink="http://www.w3.org/1999/xlink" x="0px" y="0px"
	 width="236px" height="236px" viewBox="82 82 236 236" enable-background="new 82 82 236 236" xml:space="preserve">
	<path d="M315.192,200L315.192,200H174.714L200,225.285h28.096v58.998L200,312.381V318l118-118H315.192L315.192,200z
		 M256.191,225.285h30.905l-30.905,30.904V225.285z"/>
	<path d="M146.619,188.761c0,0,5.666-1.361,8.974-2.312c13.188-3.787,22.791-12.036,27.774-23.854
		c4.826-11.451,3.766-23.639-3.067-35.251c-3.023-5.135-6.141-9.415-8.396-11.63L200,87.62V82l-89.904,89.905v-0.002L82,200
		l28.096,28.094V188.76l53.378,53.383h36.525L146.619,188.761z M124.144,163.476l30.903-30.904
		c2.17,2.061,9.087,12.051,5.306,20.319c-3.17,6.93-11.232,10.165-16.89,10.585H124.144L124.144,163.476z"/>
</svg>
