<svg id="svg-clouds" xmlns="http://www.w3.org/2000/svg" viewBox="0 0 800 800">
  <title>svg-clouds2</title>
  <g id="cloudGroup02">
    <circle id="cGuide02" cx="400" cy="1456" r="399.65" fill="none" stroke="#ff2703" stroke-miterlimit="10" stroke-width="0.7"/>
    <path id="cloud-08" d="M674.39-723.93A28.82,28.82,0,0,0,652.63-714a27.34,27.34,0,0,0-2.46-2.6,20.23,20.23,0,0,0,8.66-16.61,20.26,20.26,0,0,0-20.26-20.26,20.33,20.33,0,0,0-4.3.46c0-.25,0-0.5,0-0.75a20.48,20.48,0,0,0-6.38-14.88,27.86,27.86,0,0,0,26.87-27.84,28,28,0,0,0-.44-4.92A30.41,30.41,0,0,0,668.19-827a30.45,30.45,0,0,0-21.74-29.17,14.2,14.2,0,0,0,.59-1.38,36,36,0,0,0-2.89-47.56,35.78,35.78,0,0,0-14.32-8.77c0-.19,0-0.38,0-0.57a20,20,0,0,0-9.23-16.87,14,14,0,0,0,2.15-4.46,19.45,19.45,0,0,0,11.75-17.86,19.36,19.36,0,0,0-2.36-9.3,21.55,21.55,0,0,0,2.4-2.07,21.38,21.38,0,0,0,0-30.24,21.43,21.43,0,0,0-2.41-2.07,13.9,13.9,0,0,0,9-13,13.9,13.9,0,0,0-7.55-12.37,6.65,6.65,0,0,0,.47-2.46,6.67,6.67,0,0,0-3.47-5.86c0-.2,0-0.39,0-0.6a6.78,6.78,0,0,0-1.55-4.31,6.83,6.83,0,0,0,2.48-5.25,6.79,6.79,0,0,0-1.81-4.61,4,4,0,0,0,1.1-2.73,4.11,4.11,0,0,0-4.16-4.06l-0.3,0a2.35,2.35,0,0,0,.3-1.12,2.45,2.45,0,0,0-2.48-2.42,2.45,2.45,0,0,0-2.48,2.42,2.43,2.43,0,0,0,2,2.36,4,4,0,0,0-1.15,2.79,4,4,0,0,0,.07.68,6.94,6.94,0,0,0-5.21,6.66,6.78,6.78,0,0,0,1.55,4.31,6.83,6.83,0,0,0-2.48,5.25,6.91,6.91,0,0,0,4.27,6.35s0,0.07,0,.11a6.65,6.65,0,0,0,.43,2.33,13.91,13.91,0,0,0-7.81,12.5c0,0.39,0,.78.05,1.17a8.33,8.33,0,0,0-4.73,7.51,8.3,8.3,0,0,0,.48,2.77,21.38,21.38,0,0,0-4.79,3.6,21.39,21.39,0,0,0-2.43,27.33,19.39,19.39,0,0,0-6.25,14.28,19.38,19.38,0,0,0,1.35,7.1,14,14,0,0,0-1.85,7,14,14,0,0,0,3.08,8.78,20,20,0,0,0-8.43,16.32,19.94,19.94,0,0,0,2.76,10.15,35.94,35.94,0,0,0,.77,50,35.77,35.77,0,0,0,19.37,10A30.29,30.29,0,0,0,607.31-827a30.41,30.41,0,0,0,1.46,9.31,27.89,27.89,0,0,0-8.22,12.14,28.26,28.26,0,0,0-14.07-3.73,28.4,28.4,0,0,0-28.4,28.4,28.4,28.4,0,0,0,28.4,28.4,28.45,28.45,0,0,0,6.74-.81,20.54,20.54,0,0,0,20.53,20,20.59,20.59,0,0,0,4.58-.52c0,0.17,0,.34,0,0.52A20.16,20.16,0,0,0,621.71-722a27.18,27.18,0,0,0-17.21,25.28,27.13,27.13,0,0,0,11,21.86,22.71,22.71,0,0,0-16.47,21.83c0,0.74,0,1.47.11,2.18-0.89-.07-1.78-0.12-2.68-0.12a32,32,0,0,0-32,32,32.14,32.14,0,0,0,.52,5.73,42.5,42.5,0,0,0-6.93-.57,42.22,42.22,0,0,0-42.22,42.22,42.17,42.17,0,0,0,18.35,34.83,31.83,31.83,0,0,0,30.28,22,31.67,31.67,0,0,0,16.32-4.5,20.21,20.21,0,0,0,8.66,8,40.5,40.5,0,0,0,22.82,17.22,20.21,20.21,0,0,0-5,13.31A20.3,20.3,0,0,0,619.72-462a24.94,24.94,0,0,0,1.16,4.39,16.51,16.51,0,0,0-15.29,16.46,16.53,16.53,0,0,0,.53,4.17,17.54,17.54,0,0,0-16.36,17.5,17.45,17.45,0,0,0,2.36,8.78,46,46,0,0,0-8.89-.87,45.75,45.75,0,0,0-45.75,45.75,45.75,45.75,0,0,0,26.22,41.38,31.65,31.65,0,0,0,29.5,20.19,31.79,31.79,0,0,0,5.84-.55,12.21,12.21,0,0,0,3.62.55,12.34,12.34,0,0,0,1.33-.07,25.42,25.42,0,0,0-1.93,9.75A25.48,25.48,0,0,0,614-273.06a19.35,19.35,0,0,0-2.9,10.22,19.39,19.39,0,0,0,1.29,7,10.64,10.64,0,0,0-4,8.32,10.62,10.62,0,0,0,1.1,4.72,18.25,18.25,0,0,0-8.91-2.31A18.33,18.33,0,0,0,582.2-226.8a18.28,18.28,0,0,0,1.42,7.1,17.89,17.89,0,0,0-11.06,16.53,17.89,17.89,0,0,0,17.89,17.89,17.94,17.94,0,0,0,3.81-.41,18.08,18.08,0,0,0,.78,1.86,10.63,10.63,0,0,0-5.28,9.19A10.64,10.64,0,0,0,600.41-164a10.61,10.61,0,0,0,7.82-3.43,11.3,11.3,0,0,0-1.26,5.2,11.31,11.31,0,0,0,3.25,7.95,11,11,0,0,0-10.13,10.92,11,11,0,0,0,11,11h0.1a5.45,5.45,0,0,0,5.4,4.72,5.45,5.45,0,0,0,5.45-5.45,5.44,5.44,0,0,0-1.87-4.1,10.91,10.91,0,0,0,1.87-6.12,10.92,10.92,0,0,0-3-7.54,11.35,11.35,0,0,0,10.68-11.33,11.35,11.35,0,0,0-11.35-11.35,11.32,11.32,0,0,0-8.41,3.73A10.57,10.57,0,0,0,611-173.6h0.44a18.23,18.23,0,0,0,18.23-18.23,18.23,18.23,0,0,0-18.23-18.23,18.26,18.26,0,0,0-4.27.51l-0.06-.14a18.34,18.34,0,0,0,11.76-17.11,18.24,18.24,0,0,0-3.45-10.7,10.64,10.64,0,0,0,3.59.62,10.66,10.66,0,0,0,9.85-6.58c0.54,0,1.08.07,1.63,0.07a19.45,19.45,0,0,0,19.45-19.45,19.38,19.38,0,0,0-5.05-13.08,25.43,25.43,0,0,0,8.17-18.7,25.5,25.5,0,0,0-25.5-25.5,25.48,25.48,0,0,0-7.66,1.17,31.48,31.48,0,0,0,5-17,31.65,31.65,0,0,0-1.17-8.54,45.54,45.54,0,0,0,5.3-21.39,45.67,45.67,0,0,0-18.13-36.47,17.55,17.55,0,0,0,14-17.19,17.53,17.53,0,0,0-.81-5.28,16.51,16.51,0,0,0,14.57-16.39c0-.23,0-0.46,0-0.7a25.16,25.16,0,0,0,5.86.7,25.11,25.11,0,0,0,25.11-25.11,25.1,25.1,0,0,0-24.69-25.1,20.39,20.39,0,0,0-4.15-4.82,40.42,40.42,0,0,0,23.34-36.64,40.4,40.4,0,0,0-20-34.88,41,41,0,0,0,.38-5.54,40.55,40.55,0,0,0-18.27-33.9A31.88,31.88,0,0,0,628.47-619a31.89,31.89,0,0,0-2.25-11.79,22.73,22.73,0,0,0,17-15,28.76,28.76,0,0,0,4,.28,28.55,28.55,0,0,0,27.43-20.64A28.89,28.89,0,0,0,703.28-695,28.89,28.89,0,0,0,674.39-723.93Z" transform="translate(0 1056)" fill="#fff"/>
    <path id="cloud-07" d="M311.82-433.34a23.26,23.26,0,0,0,.86-6.28,23.26,23.26,0,0,0-23.26-23.26,23.16,23.16,0,0,0-15,5.51,22.41,22.41,0,0,0-17.22-8,22.36,22.36,0,0,0-10.56,2.64q-0.69-.32-1.4-0.6a20.19,20.19,0,0,0,1.73-8.18,20.27,20.27,0,0,0-20.27-20.27,20.17,20.17,0,0,0-10,2.65A24,24,0,0,0,197-499.45h-0.12v0c0.42,0,.83,0,1.26,0A22.85,22.85,0,0,0,221-522.3a22.77,22.77,0,0,0-6-15.42,42.3,42.3,0,0,0,6-21.74,42.58,42.58,0,0,0-1.17-9.88,22.19,22.19,0,0,0,21.56-22.18,22.09,22.09,0,0,0-3.71-12.28,17.35,17.35,0,0,0,7.8,1.84A17.44,17.44,0,0,0,262-614a24.2,24.2,0,0,0,3.37.24,24,24,0,0,0,24-24A24,24,0,0,0,281-656a23.83,23.83,0,0,0,1.53-8.43,23.89,23.89,0,0,0-23.89-23.89,23.91,23.91,0,0,0-6.16.81,30.39,30.39,0,0,0-24.58-14.26,44.11,44.11,0,0,0,12.06-30.37,44.1,44.1,0,0,0-11.4-29.65,20.47,20.47,0,0,0,.65-5.14,20.41,20.41,0,0,0-1-6.22,25,25,0,0,0,5.47.61,24.93,24.93,0,0,0,24.93-24.93,24.88,24.88,0,0,0-1.45-8.4,33.4,33.4,0,0,0,8.79-22.62A33.52,33.52,0,0,0,234.61-862a18.09,18.09,0,0,0,.11-2,17.91,17.91,0,0,0-9.67-15.9,16.34,16.34,0,0,0,4.73-11.52,16.47,16.47,0,0,0-.25-2.82,29.74,29.74,0,0,0,2.88-2.52,29.5,29.5,0,0,0,3.15-38,19.4,19.4,0,0,0,8.53-16.08,19.42,19.42,0,0,0-15.81-19.07c0-.15,0-0.29,0-0.44a8,8,0,0,0-2.24-5.47,9.32,9.32,0,0,0,5.58-8.8c0-5.16-3.74-9.34-8.35-9.34h-0.09a15,15,0,0,0,4.18-10.39,15,15,0,0,0-4.73-10.93h0.07c4.67,0,8.46-4.86,8.46-10.85,0-5.83-3.59-10.57-8.08-10.83a4.5,4.5,0,0,0,.19-1.22,4.55,4.55,0,0,0-4.55-4.55,4.55,4.55,0,0,0-4.55,4.55,4.55,4.55,0,0,0,2.73,4.16,12.42,12.42,0,0,0-2.66,7.89,12.62,12.62,0,0,0,2.25,7.35,15,15,0,0,0-4.15-.59,15,15,0,0,0-15,15,15,15,0,0,0,15,15,15,15,0,0,0,4-.55,10.08,10.08,0,0,0-1.45,5.25,10,10,0,0,0,1.85,5.85c-4.51.74-7.92,4.22-7.92,8.42a8,8,0,0,0,2.31,5.54,19.35,19.35,0,0,0-5.95,14,19.47,19.47,0,0,0,.48,4.29,29.35,29.35,0,0,0-15,8.06,29.5,29.5,0,0,0,0,41.71,29.5,29.5,0,0,0,6.3,4.8c0,0.18,0,.36,0,0.55a16.38,16.38,0,0,0,7.92,14,17.86,17.86,0,0,0-6,13.39,17.88,17.88,0,0,0,7.36,14.47,33.37,33.37,0,0,0-7.36,20.94A33.42,33.42,0,0,0,209.59-804a25,25,0,0,0-.86,6.48,24.83,24.83,0,0,0,2.2,10.23,20.63,20.63,0,0,0-2.2-.12,20.43,20.43,0,0,0-18.26,11.26,44.27,44.27,0,0,0-39.09,44,44.26,44.26,0,0,0,44.26,44.26,44.69,44.69,0,0,0,5.67-.36,30.27,30.27,0,0,0-5.1,16.86,30.36,30.36,0,0,0,11.41,23.74,21.14,21.14,0,0,0-1.22,7.1c0,11.7,9,21.18,20.66,21.18,0.15,0-.08,0-0.08,0h0c0,3.17,1.37,6.14,2.85,8.71a21.14,21.14,0,0,0-10.92-3,22,22,0,0,0-21.29,16.38A42,42,0,0,0,178.42-602a42.47,42.47,0,0,0-42.47,42.5,42.81,42.81,0,0,0,.43,5.84,18.67,18.67,0,0,0-13.69,18A18.67,18.67,0,0,0,141.36-517a18.72,18.72,0,0,0,4.35-.51A27.86,27.86,0,0,0,141-501.92a28,28,0,0,0,28,28,28.23,28.23,0,0,0,4-.29,24,24,0,0,0,24,22.77,23.9,23.9,0,0,0,15.48-5.67q0.59,0.58,1.22,1.11a28.09,28.09,0,0,0-7.18,18.79,28.2,28.2,0,0,0,25.09,28,40.59,40.59,0,0,0-32.71,39.81,40.5,40.5,0,0,0,15.33,31.76,20.77,20.77,0,0,0-5.19-.65,20.74,20.74,0,0,0-20.74,20.74,20.67,20.67,0,0,0,6.31,14.89,22.74,22.74,0,0,0-11,19.46,22.54,22.54,0,0,0,22.5,22.76H206A19.82,19.82,0,0,0,215.2-244a21.38,21.38,0,0,0-8.81,17.46,21.58,21.58,0,0,0,19.1,21.38s0,0.1,0,.15c0,0.28,0,.56,0,0.84a17.17,17.17,0,0,0-12.95,16.65,17.09,17.09,0,0,0,4.72,11.81,9.51,9.51,0,0,0-6,8.82,9.51,9.51,0,0,0,4.87,8.3,9.51,9.51,0,0,0-4.88,8.3,9.51,9.51,0,0,0,9.51,9.51,9.51,9.51,0,0,0,9.51-9.51,9.51,9.51,0,0,0-4.88-8.3,9.51,9.51,0,0,0,4.88-8.3,9.47,9.47,0,0,0-.66-3.46h0a17.18,17.18,0,0,0,17-14.48A20.2,20.2,0,0,0,265.93-205a20.35,20.35,0,0,0-.22-3,26.09,26.09,0,0,0,13.94-23.09,26.1,26.1,0,0,0-26.1-26.1,26,26,0,0,0-8.37,1.38,19.65,19.65,0,0,0,.55-4.62,19.61,19.61,0,0,0-16.81-19.41,22.93,22.93,0,0,0,.25-3.35A22.71,22.71,0,0,0,221-300.63a20.7,20.7,0,0,0,8.75-16.91,20.66,20.66,0,0,0-5.73-14.3,40.45,40.45,0,0,0,15.43,3,40.59,40.59,0,0,0,38-26.38,43.05,43.05,0,0,0,11.93,1.69,43.06,43.06,0,0,0,43.06-43.06A43,43,0,0,0,311.82-433.34Z" transform="translate(0 1056)" fill="#fff"/>
  </g>
</svg>
