<svg id="svg-arm" xmlns="http://www.w3.org/2000/svg" viewBox="0 0 800 800">
  <title>svg-arm</title>
  <g id="fullarm">
    <g id="arm">
      <path d="M472.33,512.73a41.23,41.23,0,0,0-13-11.53c-10.29-5.84-23.61-7.95-39.1-6.39-51,5.11-45.89,49.79-43.3,92.37,5.33,87.62-50.53,173.54-71,253.18-0.56,2.19-1.11,4.35-1.61,6.46-1.42,5.9-2.59,11.47-3.49,16.65q-0.69,4-1.15,7.63-0.53,4.2-.74,8c0,0.4,0,.81-0.06,1.2-1.75,43.09,15.49,62.93,14.09,71.34-0.8,4.81-6.23,13.26-11.4,20.44-5.06,7-9.87,12.82-9.87,12.82l82.58,10.89,52.8,7,33.7,4.44s28.18-87.67,35-154.9c2.67-26.53-21.4-161.11-13.56-297.65C483.18,536.54,479.6,522.62,472.33,512.73Z" fill="#fcf0b4"/>
      <path d="M460.75,1007.15s28.18-87.67,35-154.9c2.67-26.53-21.4-161.11-13.56-297.65,1-18.06-2.55-32-9.81-41.87a41.23,41.23,0,0,0-13-11.53C450.18,539,422,660.51,422.24,717.95c0.32,68.54,49,86.63,21.12,180.51-18.16,61-71.86,49.17-71.86,49.17-78.58-.23-65.6-107.27-65.6-107.27l-7,38.7c0,0.4,0,.81-0.06,1.2-1.75,43.09,15.49,62.93,14.09,71.34-0.8,4.81-6.23,13.26-11.4,20.44a162.56,162.56,0,0,1,46.86,5.24c7,1.9,16.11,9,25.85,18.46l52.8,7Z" fill="#f5e49f"/>
      <path d="M475.71,553.58c-5.54,94-6.16,117.67-2.49,186.39S484.86,844.74,471.94,904C457,972.39,436.26,995.51,427,1002.71l33.7,4.44s31.07-79.09,35-154.9c1.37-26.63-21.4-161.11-13.56-297.65,1-18.06-2.55-32-9.81-41.87C472.64,521.11,476.47,540.68,475.71,553.58Z" fill="#decb81"/>
      <path d="M304.28,846.82c-1.42,5.9-2.59,11.47-3.49,16.65q-0.69,4-1.15,7.63-0.53,4.2-.74,8l7-38.7C305.33,842.55,304.79,844.72,304.28,846.82Z" fill="#fcf0b4"/>
      <path id="sleeve" d="M221.21,1142.56s12.18-78.33,42.92-128.76c6.13-10,29.12-62.74,28-54.94,0,0,166.35,44.19,172.11,47.58a153.82,153.82,0,0,1,12.69,8.71s-23.84,42.82-25.76,64.22-8.72,53.23-15,73.27-20.64,58.61-20.64,58.61Z" fill="#646074"/>
    </g>
    <g id="hand-wave">
      <g id="finger04">
        <path d="M526.51,323.1c0.26-13,3.78-32.09-11.19-37.07a27.07,27.07,0,0,0-8.53-1.22c-8.78,0-11.78,27.74-12.41,40.66-0.87,17.74-2.19,55.2-6.58,67.67s-2.46,27.34,13.51,29.65,24.15-3,21.57-19c-1.59-9.82,0-32.34,1.58-51.74C525.44,339.87,526.4,328.91,526.51,323.1Z" fill="#fcf0b4"/>
        <g>
          <polygon points="490.11 417.29 487.57 413.4 490.11 417.29 490.11 417.29" fill="#f5e49f"/>
          <polygon points="501.32 422.8 522.88 403.81 526.51 323.1 515.32 286.04 510.01 284.97 506.41 299.17 505.11 330.18 511.77 354.6 492.38 361.64 491.02 376.15 505.24 382.37 486.14 408.75 487.57 413.4 490.11 417.29 501.32 422.8 501.32 422.8" fill="#f5e49f"/>
        </g>
        <path d="M518.35,309.08c-1,15.23-9.1,22-9.1,22s6-2.87,11.71,11.2c1.16,2.86,2.34,6.22,3.5,9.75,1-12.2,1.93-23.16,2-29,0.26-13,3.78-32.09-11.19-37.07A65.17,65.17,0,0,1,518.35,309.08Z" fill="#decb81"/>
      </g>
      <g id="finger03">
        <path d="M463.82,233.57A22,22,0,0,0,461,234c-13.34,2.9-16.82,20.48-12.67,71.2S448.2,365.7,445,375.3,438,394.09,455.6,399c11.76,3.29,18.67,1.64,22.93-2.68a20.85,20.85,0,0,0,4.64-8.13c3.23-9.6-.17-73.55.48-87.77C484.28,286.69,490.41,231.35,463.82,233.57Z" fill="#fcf0b4"/>
        <polygon points="455.6 399.02 478.53 396.34 483.17 388.2 483.65 300.44 465.52 233.51 460.01 254.61 460.54 296.48 464.21 315.29 449.66 325.7 449.66 352.54 461.43 348.3 467.71 370.5 446.03 372.15 444.97 375.3 455.6 399.02 455.6 399.02" fill="#f5e49f"/>
        <path d="M483.17,388.2c3.23-9.6-.17-73.55.48-87.77,0.63-13.75,6.76-69.09-19.83-66.86a96.58,96.58,0,0,1,8.94,29.55C475.55,285,469,297,469,297s9.52,15.72,8.66,46.67-13.94,41.19-5.4,50c2.19,2.25,4.31,2.92,6.25,2.67A20.85,20.85,0,0,0,483.17,388.2Z" fill="#decb81"/>
      </g>
      <g id="finger02">
        <path d="M443.22,306c-1.69-21.92,3.74-93.41-19-95.31a12.05,12.05,0,0,0-2.73.09c-26,3.75-18.9,58.53-18,96.68s-3.39,64.05,2.53,73.17,28.08,11.53,35,1.33a11.27,11.27,0,0,0,.89-1.61C447.7,367.85,444.9,327.74,443.22,306Z" fill="#fcf0b4"/>
        <polygon points="441.05 381.97 441.95 380.36 443.22 306.02 424.23 210.71 420.32 211.01 417.97 289.07 425.41 315.73 419.93 342.85 424.54 387.55 425.62 388.62 441.05 381.97 441.05 381.97" fill="#f5e49f"/>
        <path d="M443.22,306c-1.69-21.92,3.74-93.41-19-95.31,1.81,7.69,5.07,22.42,7.5,38.42,3.55,23.36-4.89,37.62-4.89,37.62s12.17,33.46,11,56.44-5.8,32.12,2.34,36.81a2.44,2.44,0,0,0,1.76.36C447.7,367.85,444.9,327.74,443.22,306Z" fill="#decb81"/>
      </g>
      <g id="palm">
        <path d="M520.9,400.66c-0.2-.33-0.42-0.65-0.64-1-9.67-13.64-28.25-3.05-41.64-5.09-7.22-1.1-11.18-4.82-25-8.45-17.39-4.57-20.63-7.92-20.63-7.92-6.38.55-12.53-3.76-25.66-.63-16.47,3.93-9.86,2.27-19.87,9-9.61,6.49-14.64-.65-27.74,13.87-10.15,11.25-9.9,26.13-9.9,26.13s0,1,0,2.73c0,6.39,0,22.59,1.42,39.71,1,11.7,17.14,79.23,17.14,79.23l22.2,10.07,21.17,3.38,23.1-4.95,1.6-.32a47.71,47.71,0,0,1,5.06-.6c8.33-.63,10.32,1.63,22.76,2.43,0,0,11.51-4.61,15.13-6.28,13.52-6.23,21.25-23.42,25.6-35C511.69,499.16,529.6,414.92,520.9,400.66Z" fill="#fcf0b4"/>
        <polygon points="520.9 400.66 520.91 399.57 512.49 392.28 472.89 392.77 453.38 382.24 431.42 378.6 412.81 375.52 411.37 377.35 408.52 396.62 425.06 404.68 442.11 423.28 484.61 435.01 474.52 539.29 451.82 548.68 444.17 531.38 444.36 531.53 411.85 475.32 388.28 492.34 387.25 530.61 394.59 552.59 390.76 558.15 410.77 561.79 440.46 555.93 463.19 558.35 479.15 552.77 503.69 517.11 522.56 404.42 520.9 400.66" fill="#f5e49f"/>
        <path d="M448,515.29c-6.93-54-48.34-47.91-57.88-30.34-5.14,9.47-8.09,27.78,8.47,37.48,16.11,9.44,24.12,15.44,29.43,22.77a41.55,41.55,0,0,1,5.79,11.65c0.55-.12,1.07-0.22,1.6-0.32C436.94,549.41,451.78,544.73,448,515.29Z" fill="#decb81"/>
        <path d="M505.77,516.94c6.72-17.86,24.46-102.13,15.76-116.4-0.2-.34-1.59-0.43-1.81-0.75a95.76,95.76,0,0,1-15.85,4.46,178.76,178.76,0,0,1-29.42,3.19s32.36,9.35,31.39,34.76c-0.87,22.82-5.62,45.56-12.94,62.34C486.23,519.84,473,534.27,474.78,543a28.57,28.57,0,0,0,4.34,9.48C492.32,545.22,496.1,542.1,505.77,516.94Z" fill="#decb81"/>
      </g>
      <g id="finger01">
        <path d="M398,379.45c-1.11-2.93-2.23-6.08-3.33-9.38a487.23,487.23,0,0,1-15.08-57c-3-15.83,1-77.57-21.14-79.45a13.64,13.64,0,0,0-3.53.18c-21.62,3.82-17.45,38.61-11.9,90.2s11.15,62.2,10.43,77.25S360.36,421,375.85,417,405.56,399.29,398,379.45Z" fill="#fcf0b4"/>
        <polygon points="383.27 339.62 368.7 271.27 371.99 252.74 358.49 233.63 354.96 233.81 341.04 247.41 357.51 261.71 354.85 291.82 364.05 320.22 360.44 342.9 378.17 364.29 355.6 402.85 373.04 384.18 398.04 379.44 383.27 339.62" fill="#f5e49f"/>
        <path d="M365,294.21s5.78,29.6,12.4,40.18,3.62,21.67,5.78,29.6c3.88,14.27,8.52,10.93,11.58,6.08a487.23,487.23,0,0,1-15.08-57c-3-15.83,1-77.57-21.14-79.45,4.21,5.49,9.14,14.83,10.56,29.39C371.67,289.81,365,294.21,365,294.21Z" fill="#decb81"/>
      </g>
      <g id="thumb">
        <path d="M381.56,470c-2.53-9.43-6-17.34-10.57-21.94-20.86-21.18-7.48-35.69-30.64-62.51-18.72-21.67-23.56-30.83-35.1-30.25-3.33.17-7.2,1.15-12.11,2.86-12.25,4.28,16.9,44.71,23.61,70.84,6.43,25,5.43,58.6,13.7,70.81,8.1,12,30.2,51.58,45.19,50.66C387.31,549.77,390.14,501.91,381.56,470Z" fill="#fcf0b4"/>
        <polygon points="394.42 465.82 357.51 423.1 340.35 385.55 305.24 355.3 296.88 356.94 301.42 369.31 327.53 408.86 335.74 443.34 349.17 456.94 379.24 512.74 387.15 516.86 394.42 465.82 394.42 465.82" fill="#f5e49f"/>
        <path d="M333,413.42c4.77,16.59,5.14,22.78,5.14,22.78s6.48-3,13.05,10c6.43,12.76-.83,34.71,16.16,43.1,7.21,3.56,26.27,2.4,29-6.94,5.81-19.72-15.42-31.55-22.4-37.28-23.92-19.66-10.42-32.71-33.59-59.53-18.72-21.67-23.56-30.83-35.1-30.25,0.28,2.31,1.47,5.61,4.18,10.3C319.45,383,328.06,396.37,333,413.42Z" fill="#decb81"/>
      </g>
    </g>
  </g>
  <g id="hand-grab">
    <g id="palm-2" data-name="palm">
      <path d="M995.13,522.67c0.31-.2.61-0.41,0.9-0.62,12.59-9.11,6.36-24.53,10-36.46,2-6.51,5.67-10.14,10.76-22.72,6.49-16,9.79-19,9.79-19,0.56-6,5.12-11.66,4.67-24.43-0.59-16.55-.28-9.82-4.42-20.43s3-15-7.77-30.74c-8.85-12.94-23.44-15.2-23.44-15.2s-1-.19-2.74-0.52c-6.51-1.19-23.63-4.11-42.9-5.69-13.79-1.13-28.61-1.56-41.55-.19-33.88,3.59-55.89,6.24-78.17,27.63L823,382.92l0.73,26.86s5.94,25.18,7,29.77l0.44,2a50.61,50.61,0,0,1,.79,6.23c0.76,10.09-2.48,12.45-3.77,27.21,0,0,6.26,13.15,8.48,17.18,8,14.59,29.75,21.53,43.61,25.08C900.44,522.39,981.82,531.23,995.13,522.67Z" fill="#f5e49f"/>
      <polygon points="995.13 522.67 996.04 522.59 1003.24 514.95 1008.34 480.41 1020.05 462.64 1026.48 442.39 1032.04 424.86 1030.75 423.37 1014.64 419.41 1004.95 435.36 985.49 451.56 969.05 492.44 853.85 486.18 841.88 460.3 865.46 451.59 865.26 451.81 935.93 417.47 918.54 388.37 869.33 381.8 831.71 389.22 823.29 383.22 823.64 408.52 831.91 446.51 828.14 473.72 835.66 491.93 880.23 515.92 991.73 524.36 995.13 522.67" fill="#fcf0b4"/>
      <path d="M885.76,456.25c62.2-6.52,60.32-51.83,41.38-64.77-10.81-7.39-33.57-13.68-47.42,5.82-13.5,19-22,28.39-32.34,34.44a62.17,62.17,0,0,1-16.7,6.54c0.16,0.69.31,1.34,0.44,2C841.24,442.44,847.3,460.28,885.76,456.25Z" fill="#decb81"/>
      <path d="M880.31,518c20.16,5.15,101.53,13.73,114.84,5.16,0.31-.2.57-1.38,0.86-1.59a71.82,71.82,0,0,1-1.71-13.31,161.62,161.62,0,0,1,1.17-26.12S983,511.63,959.77,512.43c-22.35.77-45.86-2.2-64.14-8.42-17.73-6-35.19-19.67-46.7-17.41a44.82,44.82,0,0,0-12.87,5.27C845.49,506.07,849.46,509.93,880.31,518Z" fill="#decb81"/>
    </g>
    <rect x="953.38" width="273.1" height="800" fill="#fcf0b4"/>
    <g id="thumb-2" data-name="thumb">
      <path d="M902.06,409.67c9.41,2.61,21.35,3.51,27.6,2,28.85-7.18,34.53,11.71,69.4,5.41,28.17-5.09,38.53-4.6,43.9-14.84,1.55-3,2.67-6.78,3.69-11.88,2.55-12.72-47.09-8.19-73-15.7-24.83-7.19-53.21-25.13-67.94-24.22-14.41.89-43.81-1.47-66.6,13.14-18.3,11.73-37.55,54.14-37.55,54.14s-3.15,11.31-.5,15C820.64,459.91,859.69,428.7,902.06,409.67Z" fill="#fcf0b4"/>
      <polygon points="902.45 422.76 958.01 412.71 999.07 417.03 1042.97 402.2 1045.81 394.16 1032.85 391.78 985.52 394.14 951.65 383.67 933.1 388.32 869.77 385.83 862.2 390.54 902.45 422.76 902.45 422.76" fill="#f5e49f"/>
      <path d="M978.82,396.5c-16.71-4.33-22.23-7.16-22.23-7.16s-0.67,7.13-15.25,6.15c-14.26-1-29.47-18.37-45.33-8-6.73,4.4-15.43,21.39-8.79,28.51,14,15,43.84,4.27,52.33,1.18,29.1-10.6,24.63,6.17,59.51-.14,28.17-5.09,38.53-4.6,43.9-14.84-2.13-.93-5.58-1.58-11-1.64C1011.88,400.33,996,401,978.82,396.5Z" fill="#decb81"/>
    </g>
  </g>
  <g id="heybox">
    <rect id="squareleft" width="410" height="800" fill="#fcf0b4"/>
    <rect id="squareright" x="400" width="410" height="800" fill="#fcf0b4"/>
    <g id="hey">
      <g id="words">
        <path d="M305,392.24q3.87-5.1,8.68-10.95a133.56,133.56,0,0,1,10-10.9,68.88,68.88,0,0,1,10.34-8.4q5.14-3.35,9.68-3.35a9,9,0,0,1,2.55.42,7.14,7.14,0,0,1,2.69,1.56,8.57,8.57,0,0,1,2.12,3.16,13.71,13.71,0,0,1,.85,5.24,44.06,44.06,0,0,1-1.79,12.51q-1.79,6.09-3.92,12.18t-3.87,12.41a49.38,49.38,0,0,0-1.75,13.22,13.6,13.6,0,0,0,1.13,6q1.13,2.27,2.93,2.27a13.87,13.87,0,0,0,4.81-.94,31.26,31.26,0,0,0,5.1-2.45,45.66,45.66,0,0,0,5-3.45q2.45-1.93,4.63-4a108,108,0,0,0,10.19-10.95l1.6,25.11q-1.7,1.32-4.29,3.3t-5.76,4.2q-3.16,2.22-6.84,4.48a74.06,74.06,0,0,1-7.41,4,55.8,55.8,0,0,1-7.46,2.88,24.51,24.51,0,0,1-7.13,1.13,14.89,14.89,0,0,1-9-2.78,22.32,22.32,0,0,1-6.28-7.08,35.54,35.54,0,0,1-3.68-9.39,41.16,41.16,0,0,1-1.23-9.63,32.33,32.33,0,0,1,.8-6.75q0.8-3.73,2-7.5t2.64-7.36q1.46-3.59,2.74-6.42t2.22-4.62a12.92,12.92,0,0,1,1.23-2.08l-2-.28a35.87,35.87,0,0,0-5.43,5.29q-3.82,4.25-8.64,10.71t-10,14.54a162.71,162.71,0,0,0-9.3,16.66q-2.08,4.25-3.4,7.41a36,36,0,0,1-2.6,5.19,10.26,10.26,0,0,1-2.78,3.07,7.66,7.66,0,0,1-8.78-.76,11.52,11.52,0,0,1-2.74-4.77,29.64,29.64,0,0,1-1.23-6.75q-0.28-3.77-.28-7.74,0-6.32.14-16.57t0.9-22.7q0.75-12.46,2.17-26.24t4-27.23a221.59,221.59,0,0,1,6.51-25.67A101.27,101.27,0,0,1,294.69,290a49.51,49.51,0,0,1,13.17-14.77,28.83,28.83,0,0,1,17.37-5.47,20,20,0,0,1,8.35,1.51,12.82,12.82,0,0,1,5.19,4.25,16.92,16.92,0,0,1,2.69,6.56,44.28,44.28,0,0,1,.76,8.54,68.65,68.65,0,0,1-2,15.48A164.07,164.07,0,0,1,335,323.71q-3.26,9.16-7.41,18.55t-8.5,18.22q-4.34,8.83-8.54,16.66t-7.41,13.78Zm8.4-58.33a219.5,219.5,0,0,0,8.07-24.35q2.5-9.91,2.5-14.63,0-7.17-1.89-7.17-2.46,0-7.27,8a200.18,200.18,0,0,0-11.33,23.31q-1.61,5.19-3,10.76t-2.45,11.09q-1.09,5.52-2,10.86t-1.56,10.15q-1.61,11.23-2.45,22,2.55-5.95,5.57-12.93t5.95-13.83l5.52-12.93Q311.73,338.15,313.43,333.91Z" fill="#fff"/>
        <path d="M401.12,451a35.36,35.36,0,0,1-15.53-3.21,32.1,32.1,0,0,1-11.09-8.64,36.92,36.92,0,0,1-6.65-12.55,50,50,0,0,1-2.22-15,66.66,66.66,0,0,1,4.2-22.75A60.52,60.52,0,0,1,375.16,378a42.93,42.93,0,0,1,7.5-9.06,34.68,34.68,0,0,1,9.63-6.23,29.48,29.48,0,0,1,11.85-2.31,27.74,27.74,0,0,1,9.82,1.7,24,24,0,0,1,7.88,4.77,21.61,21.61,0,0,1,5.24,7.41A24.16,24.16,0,0,1,429,384a26.32,26.32,0,0,1-2.88,11.7,42.69,42.69,0,0,1-8,11A56.26,56.26,0,0,1,406,416a64.82,64.82,0,0,1-15.24,6.32,30.11,30.11,0,0,0,2.78,4.25,12.69,12.69,0,0,0,2.78,2.64,9.24,9.24,0,0,0,3,1.32,14.16,14.16,0,0,0,3.35.38,35.19,35.19,0,0,0,11.94-2.27A78,78,0,0,0,426.8,423,103.39,103.39,0,0,0,438,415.6a96.31,96.31,0,0,0,9-7.6l12.18,12.65a124.65,124.65,0,0,1-17.65,15.2q-4.06,2.83-8.73,5.57a79,79,0,0,1-9.82,4.86,67.94,67.94,0,0,1-10.67,3.4A49.58,49.58,0,0,1,401.12,451Zm-12.55-44.36a18.69,18.69,0,0,0,7.41-1.75,33.29,33.29,0,0,0,7.46-4.48,31.34,31.34,0,0,0,5.81-5.95,10.58,10.58,0,0,0,2.36-6.23,14,14,0,0,0-1.56-7q-1.56-2.74-3.82-2.74a14.78,14.78,0,0,0-6.94,1.51,15.06,15.06,0,0,0-4.81,3.92,20.29,20.29,0,0,0-3.11,5.47,37.11,37.11,0,0,0-1.79,6.18,46.67,46.67,0,0,0-.8,6Q388.57,404.51,388.57,406.59Z" fill="#fff"/>
        <path d="M491.83,378.46a14.72,14.72,0,0,1,2.69-5.71,19.31,19.31,0,0,1,4.44-4.2A19.65,19.65,0,0,1,504.2,366a17.52,17.52,0,0,1,5.19-.85,8.9,8.9,0,0,1,4.91,1.27,4.42,4.42,0,0,1,2,4,8.34,8.34,0,0,1-.28,2q-0.57,2.46-1.42,6.7t-1.84,9.63q-1,5.38-2,11.37t-2,11.94q-2.36,14-4.81,30a70.36,70.36,0,0,0,6.14-4,64.62,64.62,0,0,0,7.36-6.32q4.06-4,9.06-10t11.23-15l4.53,21a38.5,38.5,0,0,1-4.39,6q-2.69,3.07-5.95,6.14t-6.8,5.95q-3.54,2.88-6.94,5.43-8,6-17.27,11.71-1.79,10.1-4.25,19.68a144.8,144.8,0,0,1-5.81,17.94A101.21,101.21,0,0,1,483.2,516a56.26,56.26,0,0,1-9.72,12,41,41,0,0,1-12.13,7.79,38.29,38.29,0,0,1-14.82,2.78,40,40,0,0,1-6.94-.66,19.13,19.13,0,0,1-6.89-2.64,15.49,15.49,0,0,1-5.24-5.66q-2.08-3.68-2.08-9.82a25.79,25.79,0,0,1,2.17-9.58A70.1,70.1,0,0,1,433.5,499a133.11,133.11,0,0,1,9-12.27q5.19-6.37,11.28-12.7t12.74-12.46q6.65-6.14,13.45-11.71l2.55-8.78a49.66,49.66,0,0,1-10.62,7.32,23.73,23.73,0,0,1-10.71,2.78,22.2,22.2,0,0,1-8.83-1.84,23,23,0,0,1-7.6-5.29,25.81,25.81,0,0,1-5.29-8.4,29.91,29.91,0,0,1-2-11.19,131,131,0,0,1,.8-15.1,109.08,109.08,0,0,1,2.31-13.12,93.72,93.72,0,0,1,3.78-12q2.27-5.81,5.19-11.75a14.91,14.91,0,0,1,6.23-6.47,16.49,16.49,0,0,1,7.93-2.22,9.64,9.64,0,0,1,5.66,1.65,5.85,5.85,0,0,1,2.36,5.14,12.09,12.09,0,0,1-.24,2.27,14.63,14.63,0,0,1-.8,2.64q-1.7,4.34-3.35,10.24t-2.93,12.08q-1.27,6.18-2,12.13a84.18,84.18,0,0,0-.75,10.48,30.91,30.91,0,0,0,.33,4.58,13.56,13.56,0,0,0,1.18,4,7.78,7.78,0,0,0,2.27,2.83,5.72,5.72,0,0,0,3.59,1.09,8.52,8.52,0,0,0,6.32-3,29.43,29.43,0,0,0,4.91-7.27,52.06,52.06,0,0,0,3.35-8.78,53.44,53.44,0,0,0,1.65-7.55Zm-44.18,142a13.5,13.5,0,0,0,7.5-2.31,27.5,27.5,0,0,0,6.51-6.09,52.13,52.13,0,0,0,5.43-8.59,95.19,95.19,0,0,0,4.34-9.86q1.89-5.05,3.21-9.86t2.08-8.59a68.75,68.75,0,0,0-7.5,5.85q-3.82,3.4-7.46,7.32t-6.89,8.07q-3.26,4.15-5.71,8a49.23,49.23,0,0,0-3.87,7.13,14.6,14.6,0,0,0-1.42,5.47Q443.88,520.43,447.66,520.43Z" fill="#fff"/>
        <path d="M572.49,435c0,0.15,0,.54-0.06,1.15a11.41,11.41,0,0,1-.37,2.13,13.92,13.92,0,0,1-1,2.56,8.8,8.8,0,0,1-1.87,2.5,9.59,9.59,0,0,1-3.05,1.9,12,12,0,0,1-4.49.75,12.71,12.71,0,0,1-3.86-.55,7.89,7.89,0,0,1-3-1.67,7.52,7.52,0,0,1-1.93-2.88,11.56,11.56,0,0,1-.69-4.23,13.86,13.86,0,0,1,.6-4.06A10.28,10.28,0,0,1,554.7,429a8.94,8.94,0,0,1,3.28-2.48,11.42,11.42,0,0,1,4.78-.92q4.78,0,7.25,2.42T572.49,435Z" fill="#fff"/>
        <path d="M602.89,435c0,0.15,0,.54-0.06,1.15a11.41,11.41,0,0,1-.37,2.13,13.92,13.92,0,0,1-1,2.56,8.8,8.8,0,0,1-1.87,2.5,9.59,9.59,0,0,1-3.05,1.9,12,12,0,0,1-4.49.75,12.71,12.71,0,0,1-3.86-.55,7.89,7.89,0,0,1-3-1.67,7.52,7.52,0,0,1-1.93-2.88,11.56,11.56,0,0,1-.69-4.23,13.86,13.86,0,0,1,.6-4.06A10.28,10.28,0,0,1,585.1,429a8.94,8.94,0,0,1,3.28-2.48,11.42,11.42,0,0,1,4.78-.92q4.78,0,7.25,2.42T602.89,435Z" fill="#fff"/>
        <path d="M633.9,435c0,0.15,0,.54-0.06,1.15a11.41,11.41,0,0,1-.37,2.13,13.92,13.92,0,0,1-1,2.56,8.8,8.8,0,0,1-1.87,2.5,9.59,9.59,0,0,1-3.05,1.9,12,12,0,0,1-4.49.75,12.71,12.71,0,0,1-3.86-.55,7.89,7.89,0,0,1-3-1.67,7.52,7.52,0,0,1-1.93-2.88,11.56,11.56,0,0,1-.69-4.23,13.86,13.86,0,0,1,.6-4.06,10.28,10.28,0,0,1,1.87-3.54,8.94,8.94,0,0,1,3.28-2.48,11.42,11.42,0,0,1,4.78-.92q4.78,0,7.25,2.42T633.9,435Z" fill="#fff"/>
      </g>
      <g id="paint">
        <path d="M630.61,450.23c-1.93.15-3.42-.31-4-2.45a4,4,0,0,0-2.88-2.66c-2.9-1.78-5.6-8.26-3.75-10.32,2.3-2.57,4.77-5.45,8.85-5.46a9.89,9.89,0,0,1,8.55,4.42c2.24,3.18,1,8.42-2.14,11-0.89.73-3.08,0.87-2.2,3l-0.19,1.17A2.8,2.8,0,0,1,630.61,450.23Z" fill="#fff"/>
        <path d="M525.69,359.52a2.38,2.38,0,0,1,.87.13c2,1.26,4,2.58,5.1,4.72a2.86,2.86,0,0,1-1.38,3.51c-1.05.41-7.15-1.76-7.91-2.68-1.07-1.29-.62-2.66-0.09-3.82S524.34,359.75,525.69,359.52Z" fill="#fff"/>
        <g>
          <path d="M263.43,406.95c-1,1.35-2.1,2.2-3.54.62-0.89-1-1.1-2.28,0-3.12,1.43-1.12,2.73-.64,3.55,1Z" fill="#fff"/>
          <path d="M232,444.7l3-1.71c0.55,5,.55,5-3.09,3.67Z" fill="#fff"/>
        </g>
        <path d="M346.59,447.48c1.84,1.36,2.78,4,5.6,4,1.77,0,3.24.82,2.86,2.43-0.44,1.87-1.51,4.2-4.12,3.67-2.19-.44-4.05.1-6.09,0.58-1.31.31-3.39,1.61-4.12-.63s-2.09-4.78.8-6.66c1.73-1.13,3.48-2.23,5.21-3.35h-0.14Z" fill="#fff"/>
        <path d="M582,266.1c3.31,1.74,5.77,4.32,3.85,7.31-2.19,3.41-6.45,3.12-9.76,1.43-2.74-1.4-6-3.75-3.91-7.5C574.82,262.78,578.89,265.67,582,266.1Z" fill="#fff"/>
        <path d="M565.45,272.1c2.24,0.68,1.61,2.29,1.3,3.87-0.52,2.58-2.17,1.67-3.64,1.21-2-.63-3.2-2-2.34-4S563.67,271.59,565.45,272.1Z" fill="#fff"/>
        <path d="M303.51,324.82a1,1,0,0,1,.21-0.62l0.14-1.75c-0.41-2.65-2.34-2.73-4.39-2.6l-2.89,2.1c-1.27,3.37-.65,4.84,2.16,5.35,0.91,0.16,1.63-.42,2.45-0.52,0.11,0.95-.3,2.22,1.46,2.09,1.35-.11,2.41-0.79,2.37-2.28C305,325.37,304.4,324.84,303.51,324.82Z" fill="#fff"/>
      </g>
    </g>
  </g>
</svg>
