<svg id="svg-balloons" xmlns="http://www.w3.org/2000/svg" xmlns:xlink="http://www.w3.org/1999/xlink" viewBox="0 0 800 800">
  <defs>
    <radialGradient id="radial-gradient" cx="435.74" cy="128.24" r="158.24" gradientUnits="userSpaceOnUse">
      <stop offset="0.18" stop-color="#fff"/>
      <stop offset="0.27" stop-color="#fafafa"/>
      <stop offset="0.37" stop-color="#ebeced"/>
      <stop offset="0.49" stop-color="#d2d4d6"/>
      <stop offset="0.62" stop-color="#afb4b7"/>
      <stop offset="0.75" stop-color="#828a8e"/>
      <stop offset="0.88" stop-color="#4c575e"/>
      <stop offset="1" stop-color="#15232c"/>
    </radialGradient>
    <radialGradient id="radial-gradient-2" cx="459.36" cy="96.86" r="17.85" gradientTransform="translate(65.44 -158.52) rotate(21.05)" gradientUnits="userSpaceOnUse">
      <stop offset="0" stop-color="#fff"/>
      <stop offset="0.09" stop-color="#fff" stop-opacity="0.98"/>
      <stop offset="0.22" stop-color="#fff" stop-opacity="0.91"/>
      <stop offset="0.36" stop-color="#fff" stop-opacity="0.79"/>
      <stop offset="0.52" stop-color="#fff" stop-opacity="0.63"/>
      <stop offset="0.7" stop-color="#fff" stop-opacity="0.43"/>
      <stop offset="0.88" stop-color="#fff" stop-opacity="0.19"/>
      <stop offset="1" stop-color="#fff" stop-opacity="0"/>
    </radialGradient>
  </defs>
  <title>svg-balloons</title>
  <g id="morphstrings">
    <path id="morphstring4" d="M400.22,298.08s0.39,92.24,84.53,228.44c91.93,148.8,97,215.48,97,215.48" transform="translate(-153.42 -30.13)" fill="none" stroke="#fff" stroke-miterlimit="10"/>
    <path id="morphstring3" d="M400,297.95s12.29,69.53-20.66,146.74C351,511,320.33,550.33,274.35,594A1368.82,1368.82,0,0,1,153.71,695.5" transform="translate(-153.42 -30.13)" fill="none" stroke="#fff" stroke-miterlimit="10"/>
    <path id="morphstring2" d="M399.49,298.08s7.27,53.46-31.83,135.29C343,485,274.33,565.67,255.8,607.4,217,694.7,218,742,218,742" transform="translate(-153.42 -30.13)" fill="none" stroke="#fff" stroke-miterlimit="10"/>
    <path id="morphstring1" d="M400.22,297.95s-5.94,75,20.64,146.74C468,572.16,644.41,695.53,644.41,695.53" transform="translate(-153.42 -30.13)" fill="none" stroke="#fff" stroke-miterlimit="10"/>
  </g>
  <g id="bl_you">
    <g id="balloon">
      <path id="string" d="M404.22,305.95s-5.94,75,20.64,146.74C472,580.16,648.41,703.53,648.41,703.53" transform="translate(-153.42 -30.13)" fill="none" stroke="#fff" stroke-miterlimit="10" stroke-width="2"/>
      <path id="body" d="M526,156.1c0,69.57-58,153.23-127.6,153.23S274,225.67,274,156.1A126,126,0,1,1,526,156.1Z" transform="translate(-153.42 -30.13)" fill="#ea46a8"/>
      <path id="wordleft-you" d="M431.09,184.68q0-1.29-.05-2.5t0-2.55q0-1.34,0-3a20.19,20.19,0,0,1-2.17,2.35q-1.34,1.26-3,2.55T422.41,184q-1.78,1.17-3.49,2.09a24,24,0,0,1-3.23,1.47,7.9,7.9,0,0,1-2.59.55,2.19,2.19,0,0,1-1.51-.47,2.94,2.94,0,0,1-.81-1.34,9,9,0,0,1-.36-2q-0.09-1.17-.12-2.56a19.63,19.63,0,0,1,.23-2.65q0.26-1.91.69-4.43c0.29-1.68.64-3.49,1-5.43s0.74-3.83,1.08-5.66,0.63-3.51.86-5a31.82,31.82,0,0,0,.38-3.64,2.54,2.54,0,0,0-1.4-2.28,7.43,7.43,0,0,0-3.93-.9,9.41,9.41,0,0,0-4,.81,3.28,3.28,0,0,0-2.07,2c-2.28,10.06-3.39,15-5.12,25.12a13.86,13.86,0,0,1-1.1,3.56,10.67,10.67,0,0,1-1.73,2.64,7.48,7.48,0,0,1-2.11,1.65,4.92,4.92,0,0,1-2.23.58,2.15,2.15,0,0,1-1.29-.4,3.16,3.16,0,0,1-.91-1,5.64,5.64,0,0,1-.55-1.47,8.42,8.42,0,0,1-.21-1.72s0.06-.55.18-1.54,0.3-2.31.54-3.93,0.52-3.46.84-5.52,0.67-4.17,1-6.35,0.76-4.34,1.14-6.48,0.76-4.09,1.12-5.84a1.62,1.62,0,0,0-1.11-1.41,9.57,9.57,0,0,0-3.67-.67,5.19,5.19,0,0,0-2.73.84,8.09,8.09,0,0,0-2.11,2,14.49,14.49,0,0,0-1.57,2.77,27.89,27.89,0,0,0-1.11,3q-0.45,1.49-.71,2.75c-0.05.25-.1,0.48-0.14,0.7-0.32-.39-0.63-0.79-1-1.18A46,46,0,0,0,373,157a27,27,0,0,0-6.23-3.91,17.58,17.58,0,0,0-15.18.54,21.07,21.07,0,0,0-6.56,5.5,26.31,26.31,0,0,0-4.38,8.21,30,30,0,0,0-1.46,10.17,34.85,34.85,0,0,0,.78,6.56,61.73,61.73,0,0,1-4,5.21,27.78,27.78,0,0,1-3.42,3.41,28.84,28.84,0,0,1-3,2.15c0.39-5.77,1-11.17,1.66-16.08,0.28-2.09.56-4.2,0.91-6.28s0.72-4.07,1.1-6,0.75-3.56,1.1-5,0.64-2.67.88-3.52a5.17,5.17,0,0,0,.2-1,2.23,2.23,0,0,0-.82-2.11,4,4,0,0,0-2.39-.67,9.12,9.12,0,0,0-2.68.45,11.05,11.05,0,0,0-2.83,1.34,10.15,10.15,0,0,0-2.39,2.21,8.11,8.11,0,0,0-1.48,3c-1.55,5.82-2.17,8.69-3.37,14.53a37.32,37.32,0,0,1-.71,4,36.89,36.89,0,0,1-1.37,4.68,17.72,17.72,0,0,1-1.94,3.9,3.08,3.08,0,0,1-2.5,1.62,2,2,0,0,1-1.46-.58,4.46,4.46,0,0,1-1-1.52,9.44,9.44,0,0,1-.56-2.13,21,21,0,0,1-.23-2.45,47.89,47.89,0,0,1,.16-5.57c0.17-2.09.45-4.21,0.79-6.37s0.76-4.26,1.27-6.32a52.77,52.77,0,0,1,1.58-5.36,10.31,10.31,0,0,0,.41-1.39,8.49,8.49,0,0,0,.17-1.19,3.29,3.29,0,0,0-.78-2.69,3,3,0,0,0-2.19-.86,5.39,5.39,0,0,0-3.13,1.17,7.67,7.67,0,0,0-2.54,3.39c-0.85,2.06-1.57,4.13-2.19,6.15a52.67,52.67,0,0,0-1.5,6.29,60.49,60.49,0,0,0-.8,6.88,68.14,68.14,0,0,0,0,8,22.28,22.28,0,0,0,1.14,6,17.27,17.27,0,0,0,2.29,4.53,10.4,10.4,0,0,0,3,2.85,6.4,6.4,0,0,0,3.34,1,6.86,6.86,0,0,0,4-1.5A23.91,23.91,0,0,0,319,194.3c-0.3,1.89-.44,2.84-0.69,4.73a49,49,0,0,0-4.7,6.3,46.93,46.93,0,0,0-3.48,6.67,41,41,0,0,0-2.19,6.73,35.63,35.63,0,0,0-.9,6.41,28.07,28.07,0,0,0,.31,5.76,18.55,18.55,0,0,0,1.42,4.81,21.06,21.06,0,0,0,2.94,4.82,14.86,14.86,0,0,0,2.91,2.72,8.48,8.48,0,0,0,2.6,1.26,8.63,8.63,0,0,0,2.13.31,5.48,5.48,0,0,0,3.79-1.32,9.64,9.64,0,0,0,2.46-3.75,29.15,29.15,0,0,0,1.55-5.92q0.58-3.5,1-7.8t0.63-9.38c0.15-3.38.31-6.88,0.46-10.5a67.26,67.26,0,0,0,8-6.34q1.5-1.38,3-2.93t2.87-3.21c0.17-.2.32-0.41,0.48-0.61A17.07,17.07,0,0,0,348,197.6a10.65,10.65,0,0,0,6.31,1.92,9.65,9.65,0,0,0,4.49-1.08,13.76,13.76,0,0,0,3.73-2.9,20.07,20.07,0,0,0,3-4.3,33.11,33.11,0,0,0,2.21-5.28,39.87,39.87,0,0,0,1.4-5.8,36.71,36.71,0,0,0,.5-5.91,33.9,33.9,0,0,0-.59-6.1,32.69,32.69,0,0,0-1.7-6.06l0.34-.54c1,0.79,2.12,1.77,3.5,2.94s2.79,2.42,4.26,3.73c1,0.93,2,1.88,3,2.85-0.4,2.67-.78,5.18-1.07,7.49a61.83,61.83,0,0,0-.59,9.79,20.22,20.22,0,0,0,.79,5.29,10.2,10.2,0,0,0,1.74,3.43,6.09,6.09,0,0,0,2.4,1.85,7.39,7.39,0,0,0,2.86.54,10.05,10.05,0,0,0,3.84-.84,19.94,19.94,0,0,0,4-2.29,28.92,28.92,0,0,0,3.89-3.44,39.79,39.79,0,0,0,3.57-4.33,32.61,32.61,0,0,0,1.36,4.17,13.75,13.75,0,0,0,1.81,3.22,7.69,7.69,0,0,0,2.41,2.09,6.6,6.6,0,0,0,3.22.74,16.39,16.39,0,0,0,3.95-.54,31.06,31.06,0,0,0,4.23-1.41,42.74,42.74,0,0,0,4.23-2q2.1-1.15,4-2.4t3.42-2.49a27.82,27.82,0,0,0,2.6-2.34Q431.13,186,431.09,184.68ZM319,217.17c0,1.69,0,3.42,0,5.18s-0.09,3.46-.17,5.11a37.32,37.32,0,0,1-.45,4.38,9.31,9.31,0,0,1-1,3.06,2,2,0,0,1-1.86,1.15c-0.76,0-1.39-.58-1.87-1.74a10.59,10.59,0,0,1-.66-2.75,20.13,20.13,0,0,1-.09-3.63,27.88,27.88,0,0,1,.57-4.12,28.46,28.46,0,0,1,1.24-4.22,24.09,24.09,0,0,1,1.87-3.86,16.83,16.83,0,0,1,2.37-3.11C319,214,319,215.47,319,217.17Zm42.27-39.28a39.26,39.26,0,0,1-1.42,5.8,17.46,17.46,0,0,1-2.08,4.38,3.28,3.28,0,0,1-2.56,1.74,4.67,4.67,0,0,1-2.76-.82,6.49,6.49,0,0,1-2-2.21,11.88,11.88,0,0,1-1.17-3.24,21.32,21.32,0,0,1-.46-4,28.83,28.83,0,0,1,.56-6.31,27.53,27.53,0,0,1,1.88-5.95,16.88,16.88,0,0,1,2.77-4.43,4.4,4.4,0,0,1,3.21-1.73,2.9,2.9,0,0,1,2.11.84,6.11,6.11,0,0,1,1.39,2.28,15.74,15.74,0,0,1,.79,3.39,31.9,31.9,0,0,1,.26,4.22A35.78,35.78,0,0,1,361.26,177.89Z" transform="translate(-153.42 -30.13)" fill="#fff"/>
      <path id="wordright-you" d="M506.41,188.76a26.94,26.94,0,0,1-2,2.38q-1.17,1.27-2.58,2.54t-3,2.44a28.51,28.51,0,0,1-3.21,2.06,19.35,19.35,0,0,1-3.24,1.43,9.76,9.76,0,0,1-3,.53,3.85,3.85,0,0,1-2.42-.76,6,6,0,0,1-1.67-2.14,14.91,14.91,0,0,1-1.11-3.28q-0.43-1.91-.74-4.24a34.27,34.27,0,0,1-3.67,4.4,27.37,27.37,0,0,1-4.2,3.49,22.68,22.68,0,0,1-4.35,2.3,10.83,10.83,0,0,1-4,.82,6.64,6.64,0,0,1-2.76-.57,5,5,0,0,1-2.1-1.89,9.47,9.47,0,0,1-1.25-3.48,23.11,23.11,0,0,1-.2-5.34c0.15-2.59.57-5.89,1.21-9.85,0.37-2.32.79-4.83,1.16-7.5-1-1-2-1.91-3.06-2.85q-2.25-2-4.38-3.73t-3.65-2.94l-0.31.54a29.12,29.12,0,0,1,1.95,6.06,28.8,28.8,0,0,1,.63,6.1,30.87,30.87,0,0,1-.65,5.92,34.35,34.35,0,0,1-1.75,5.82,31.5,31.5,0,0,1-2.71,5.29,22.06,22.06,0,0,1-3.53,4.28,16.35,16.35,0,0,1-4.16,2.86,10.62,10.62,0,0,1-4.65,1,9.4,9.4,0,0,1-6-2,14.67,14.67,0,0,1-3.73-4.54l-0.55.6q-1.57,1.63-3.31,3.15T420,200.57a77.89,77.89,0,0,1-9.25,6.16q-1.42,5.34-3.31,10.37a74.24,74.24,0,0,1-4.25,9.36,61.34,61.34,0,0,1-5.1,7.91,37.92,37.92,0,0,1-5.78,6.12,25.36,25.36,0,0,1-6.35,3.95,17.47,17.47,0,0,1-6.93,1.41,15,15,0,0,1-3-.34,7,7,0,0,1-2.91-1.35,6.81,6.81,0,0,1-2.06-2.91,11.36,11.36,0,0,1-.51-5.07,15.48,15.48,0,0,1,1.4-5,40,40,0,0,1,3.26-5.83,72.06,72.06,0,0,1,4.81-6.38q2.78-3.32,6.06-6.63t6.91-6.53q3.62-3.22,7.35-6.15c0.65-1.85,1-2.78,1.61-4.64a28.16,28.16,0,0,1-5.73,3.85,12.43,12.43,0,0,1-5.58,1.45,10.62,10.62,0,0,1-4.44-1,11.14,11.14,0,0,1-3.74-2.8,13.48,13.48,0,0,1-2.54-4.43,16.38,16.38,0,0,1-.87-5.89,76.93,76.93,0,0,1,.53-7.93,63.84,63.84,0,0,1,1.22-6.86,51.91,51.91,0,0,1,1.92-6.3c0.76-2,1.62-4.1,2.6-6.15a7.51,7.51,0,0,1,3.14-3.39,8.24,8.24,0,0,1,4.06-1.17,5.07,5.07,0,0,1,3,.86,3.17,3.17,0,0,1,1.3,2.7,6.32,6.32,0,0,1-.09,1.19,7.6,7.6,0,0,1-.38,1.39c-0.56,1.51-1.1,3.31-1.64,5.37s-1,4.17-1.44,6.32-0.81,4.27-1.11,6.35a48.79,48.79,0,0,0-.52,5.51,17,17,0,0,0,.1,2.41,7.17,7.17,0,0,0,.54,2.09,3.9,3.9,0,0,0,1.11,1.5,2.82,2.82,0,0,0,1.83.58,4.59,4.59,0,0,0,3.35-1.59,16.2,16.2,0,0,0,2.7-3.83,29.38,29.38,0,0,0,2.82-8.59c1.46-5.82,2.07-8.71,3.35-14.53a7.57,7.57,0,0,1,1.35-3,9.77,9.77,0,0,1,2.29-2.2,10.33,10.33,0,0,1,2.71-1.34,8.65,8.65,0,0,1,2.62-.45,4.26,4.26,0,0,1,2.45.67,2.44,2.44,0,0,1,1,2.11,4.85,4.85,0,0,1-.11,1c-0.17.85-.37,2-0.63,3.52s-0.54,3.17-.85,5l-1,6c-0.35,2.09-.67,4.19-1,6.26-0.82,4.88-1.83,10.2-3,15.87a32.56,32.56,0,0,0,3.26-2.09,30,30,0,0,0,3.78-3.35,56.19,56.19,0,0,0,4.37-5.14,42.55,42.55,0,0,1-.48-6.52,35.74,35.74,0,0,1,1.45-10.16,27.52,27.52,0,0,1,3.94-8.21,19,19,0,0,1,6-5.5,15.58,15.58,0,0,1,7.89-2,18.15,18.15,0,0,1,7.19,1.46,30,30,0,0,1,6.61,3.91,46.77,46.77,0,0,1,6.05,5.62c0.35,0.39.67,0.79,1,1.18,0-.22.06-0.45,0.1-0.7q0.19-1.26.54-2.75a30.26,30.26,0,0,1,.88-3,13.71,13.71,0,0,1,1.3-2.77,7,7,0,0,1,1.88-2,4.68,4.68,0,0,1,2.62-.84,10.16,10.16,0,0,1,3.74.67,1.84,1.84,0,0,1,1.25,1.41c-0.16,1.75-.34,3.7-0.57,5.84s-0.49,4.31-.79,6.48-0.61,4.29-.92,6.35-0.63,3.9-.92,5.53-0.53,3-.7,4-0.27,1.53-.27,1.56a8.94,8.94,0,0,0,.1,1.74,5.57,5.57,0,0,0,.43,1.49,2.86,2.86,0,0,0,.82,1.07,2,2,0,0,0,1.25.41,5,5,0,0,0,2.26-.58,7.66,7.66,0,0,0,2.16-1.67,11,11,0,0,0,1.78-2.68,14.46,14.46,0,0,0,1.16-3.59,211.19,211.19,0,0,0,3.6-25.15,2.69,2.69,0,0,1,1.48-2,5.78,5.78,0,0,1,3.06-.81,4.88,4.88,0,0,1,3.07.9,3,3,0,0,1,1.25,2.27,34.88,34.88,0,0,1,0,3.63c-0.05,1.53-.16,3.21-0.32,5s-0.36,3.71-.61,5.65-0.5,3.75-.73,5.43-0.44,3.18-.61,4.46-0.27,2.18-.28,2.68q0,1.41-.05,2.6a12.74,12.74,0,0,0,.13,2.07,3.14,3.14,0,0,0,.49,1.37,1.25,1.25,0,0,0,1.07.48,4.53,4.53,0,0,0,1.92-.56,15.63,15.63,0,0,0,2.39-1.49,32.54,32.54,0,0,0,2.55-2.12,34.48,34.48,0,0,0,2.46-2.49q1.17-1.31,2.12-2.58a19.63,19.63,0,0,0,1.55-2.37c0,1.1-.05,2.1-0.07,3s-0.06,1.76-.1,2.59l-0.13,2.55C506.56,186.7,506.5,187.68,506.41,188.76ZM397.52,213a38.65,38.65,0,0,0-4.1,3.05q-2.1,1.77-4.1,3.81t-3.8,4.19q-1.8,2.16-3.17,4.14a29.39,29.39,0,0,0-2.22,3.69,8.92,8.92,0,0,0-1,2.83,1.4,1.4,0,0,0,1.55,1.81,6.57,6.57,0,0,0,3.65-1.17,16.76,16.76,0,0,0,3.49-3.13,32.94,32.94,0,0,0,3.19-4.44,56.86,56.86,0,0,0,2.76-5.12q1.25-2.63,2.19-5.15T397.52,213Zm49.13-40.15a27.34,27.34,0,0,0-.32-4.22,15,15,0,0,0-.91-3.39,6.43,6.43,0,0,0-1.51-2.28,3.06,3.06,0,0,0-2.15-.84,4.1,4.1,0,0,0-3.1,1.73,17,17,0,0,0-2.58,4.43,31.37,31.37,0,0,0-1.79,5.95,34.54,34.54,0,0,0-.69,6.3,23.91,23.91,0,0,0,.26,3.94,11.83,11.83,0,0,0,.93,3.23,5.81,5.81,0,0,0,1.75,2.21,4.31,4.31,0,0,0,2.66.84,3.66,3.66,0,0,0,2.72-1.73,17.65,17.65,0,0,0,2.41-4.37,33.53,33.53,0,0,0,1.69-5.8A30.14,30.14,0,0,0,446.65,172.89Z" transform="translate(-153.42 -30.13)" fill="#fff"/>
      <g id="reflect">
        <path d="M526,156.1c0,69.57-58,153.23-127.6,153.23S274,225.67,274,156.1A126,126,0,1,1,526,156.1Z" transform="translate(-153.42 -30.13)" fill-opacity="0.3" fill="url(#radial-gradient)"/>
        <ellipse cx="459.36" cy="96.86" rx="16.54" ry="19.06" transform="translate(-157.55 141.31) rotate(-21.05)" fill="url(#radial-gradient-2)"/>
        <path d="M409.32,287.17c-74.33,0-132.84-82.69-132.84-151.44,0-1.68,0-3.36.12-5A126.53,126.53,0,0,0,274,156.1c0,69.57,54.76,153.23,124.33,153.23,39.61,0,75.47-27.12,99-63.32C473.49,270.54,442.64,287.17,409.32,287.17Z" transform="translate(-153.42 -30.13)" fill="#15232c" fill-opacity="0.1"/>
      </g>
      <g id="knot">
        <path d="M380.91,321.87l22.36-22.36,22.36,22.36s-10.91,6-21.82,6C388.55,327.87,380.91,321.87,380.91,321.87Z" transform="translate(-153.42 -30.13)" fill="#993c7d"/>
        <ellipse cx="249.88" cy="293.75" rx="22.33" ry="9.98" fill="#ca5ea6"/>
      </g>
    </g>
  </g>
  <g id="bl_it">
    <g id="balloon-2" data-name="balloon">
      <path id="string-2" data-name="string" d="M404.22,305.95s-5.94,75,20.64,146.74C472,580.16,648.41,703.53,648.41,703.53" transform="translate(-153.42 -30.13)" fill="none" stroke="#fff" stroke-miterlimit="10" stroke-width="2"/>
      <path id="body-2" data-name="body" d="M526,156.1c0,69.57-58,153.23-127.6,153.23S274,225.67,274,156.1A126,126,0,1,1,526,156.1Z" transform="translate(-153.42 -30.13)" fill="#ea46a8"/>
      <path id="wordleft_it" data-name="wordleft it" d="M318.61,155.35a7.27,7.27,0,0,1-1.1-5.76,10.34,10.34,0,0,1,.88-2.72,10.33,10.33,0,0,1,5.24-5.1,12,12,0,0,1,4.94-.93,11.78,11.78,0,0,1,3.25.42,6,6,0,0,1,2.4,1.28,4.71,4.71,0,0,1,1.35,2.27,7.87,7.87,0,0,1,.1,3.34,13.2,13.2,0,0,1-1,3.45,9.78,9.78,0,0,1-2.08,3,10.2,10.2,0,0,1-3.24,2.12,11.75,11.75,0,0,1-4.57.81C321.68,157.51,319.72,156.8,318.61,155.35Zm48.71,37.34c1.08-1.1,2.5-2.23,3.7-3.37,0,5.34,0,8,.2,13.46-2.32,2-5.91,3.72-8,5.22s-4.26,2.75-5.83,3.75a27.48,27.48,0,0,1-4.3,2.26,9.37,9.37,0,0,1-3.45.77,8.78,8.78,0,0,1-6-2.43,20.45,20.45,0,0,1-4.8-7.07,8.58,8.58,0,0,1-1-2.93c0,0.44,0,.65.06,1.09-1.14,1.18-2.94,2.44-4.55,3.78a40.67,40.67,0,0,1-5.82,3.72,43.5,43.5,0,0,1-6.42,2.83,17,17,0,0,1-5.72,1.13,8.46,8.46,0,0,1-3.84-.78,6.92,6.92,0,0,1-2.54-2.18,10.3,10.3,0,0,1-1.54-3.41,22.65,22.65,0,0,1-.68-4.43,48,48,0,0,1,.24-7.81c0.31-3,.79-6,1.36-9.09s1.23-6.21,2-9.31,1.52-6,2.25-8.56a5.17,5.17,0,0,1,1.4-2.33,8.54,8.54,0,0,1,2.26-1.57,11.74,11.74,0,0,1,2.65-.89,12.75,12.75,0,0,1,2.55-.29,3.79,3.79,0,0,1,2.85.81,2.8,2.8,0,0,1,.58,2.17,17.26,17.26,0,0,1-.78,3.32c-0.45,1.45-1,3.09-1.61,4.92s-1.24,3.8-1.86,5.9-1.18,4.21-1.66,6.31-0.89,4.16-1.18,6.19a31.35,31.35,0,0,0-.34,5.49,11.94,11.94,0,0,0,.64,3.82,2,2,0,0,0,2.08,1.42,8.1,8.1,0,0,0,4.06-1.34,30.48,30.48,0,0,0,4.38-3.24c1.44-1.26,3.25-2.57,4.57-3.91,0.73-.74,1.46-1.4,2.18-2a72.31,72.31,0,0,1-.84-14.41c0.07-2.09.26-4.32,0.55-6.69s0.69-4.72,1.17-7.06c-0.91-.14-1.63-0.27-2.14-0.39l-1.63-.37c-0.58-.12-1.32-0.25-2.24-0.39s-2.27-.3-4.08-0.52a4.14,4.14,0,0,1-1.85-.6,2.41,2.41,0,0,1-.89-1,3,3,0,0,1-.23-1.25q0-.65.07-1.12a2,2,0,0,1,1.2-1.6,9.33,9.33,0,0,1,2.68-.81,23,23,0,0,1,3.39-.29c1.2,0,2.32,0,3.37,0l2.79,0.08a8.1,8.1,0,0,0,1.68-.08,112.89,112.89,0,0,1,4.93-13.66,92.49,92.49,0,0,1,6.05-11.71A43.5,43.5,0,0,1,355.8,124q3.13-3.07,5.75-3.07a3.61,3.61,0,0,1,2.8,1.24,8,8,0,0,1,1.68,3.3,19.35,19.35,0,0,1,.6,4.84,34.21,34.21,0,0,1-.44,5.79,32.69,32.69,0,0,1-1.37,5.39q-1,2.84-2.3,5.79t-3,6q-1.65,3-3.4,6,0.37,0.05,1.24.08l2,0.08,2.48,0.13,2.6,0.13,2.38,0.11c0.74,0,1.36.09,1.85,0.12a1.36,1.36,0,0,1,1.2,1.07,7.16,7.16,0,0,1,.25,2.57,4.74,4.74,0,0,1-1,2.89,2.63,2.63,0,0,1-2,1.17H350.85q-1.36,2.08-2.74,4.09c-0.92,1.34-1.75,2.43-2.53,3.51-0.21,2.16-.4,4.34-0.53,6.42-0.06.9-.1,1.86-0.14,2.82s-0.08,1.91-.12,2.85,0,1.85,0,2.72,0,1.68,0,2.41a21.28,21.28,0,0,0,.56,4.8,9.78,9.78,0,0,0,1.38,3.21,5.23,5.23,0,0,0,2.08,1.8,6.21,6.21,0,0,0,2.65.55,6.12,6.12,0,0,0,2.2-.54,21.28,21.28,0,0,0,2.87-1.46c1-.62,2.13-1.35,3.29-2.2s2.31-1.77,3.46-2.77S366.23,193.8,367.32,192.7ZM346.83,158l1.26,0.18,1.29,0.18q1.53-2.67,3.23-5.78t3.16-6.11q1.46-3,2.54-5.61a20.68,20.68,0,0,0,1.36-4.27q0.1-.57.16-1.27a5.86,5.86,0,0,0,0-1.32,2,2,0,0,0-.43-1,1.34,1.34,0,0,0-1.1-.42c-0.69,0-1.54.8-2.53,2.39a45.49,45.49,0,0,0-3.1,6.11c-1.06,2.48-2.1,5.22-3.1,8.22S347.64,155.15,346.83,158Zm35.5,38a8.89,8.89,0,0,0-4,.84,7.08,7.08,0,0,0-2.66,2.27,9.29,9.29,0,0,0-1.43,3.25,13.71,13.71,0,0,0-.35,3.73,12.17,12.17,0,0,0,.74,3.92,7.6,7.6,0,0,0,1.72,2.7,6.53,6.53,0,0,0,2.54,1.55,10.13,10.13,0,0,0,3.31.49,9.14,9.14,0,0,0,3.76-.7,7.91,7.91,0,0,0,2.49-1.73,6.74,6.74,0,0,0,1.43-2.25,15.81,15.81,0,0,0,.69-2.32,12.88,12.88,0,0,0,.28-1.9,3.54,3.54,0,0,1,.14-1,0.73,0.73,0,0,0,0-.32,9,9,0,0,0-2.44-6.31A8.6,8.6,0,0,0,382.34,196Zm33.61-75.86a3.28,3.28,0,0,0-.49-1.5,1.93,1.93,0,0,0-1-.75,4.27,4.27,0,0,0-1.36-.21A16.66,16.66,0,0,0,410,118a11.43,11.43,0,0,0-3.25,1.16,12.62,12.62,0,0,0-3.1,2.37,13.52,13.52,0,0,0-2.58,4c-1,2.37-2.29,5.05-3.62,8s-2.69,6.17-4.07,9.57-2.74,7-4.05,10.7-2.48,7.5-3.52,11.32-1.91,7.64-2.64,11.45-1.24,7.51-1.56,11.09a4.78,4.78,0,0,0-.1.78,1.52,1.52,0,0,0,.67,1.41,3,3,0,0,0,1.63.42,5.5,5.5,0,0,0,1.37-.18,5.67,5.67,0,0,0,1.34-.52,3.93,3.93,0,0,0,1.06-.83,2.18,2.18,0,0,0,.55-1.07c3.06-7.19,6-13.61,8.68-19.24s5.17-10.79,7.4-15.49,4.2-9.08,5.91-13.16,3.24-8.15,4.51-12.18c0.32-1,.58-2,0.76-2.77s0.33-1.56.43-2.25A10,10,0,0,0,415.95,120.11Z" transform="translate(-153.42 -30.13)" fill="#fff"/>
      <path id="wordright_it" data-name="wordright it" d="M424.36,156.53a11.6,11.6,0,0,0,4.57-.82,8.21,8.21,0,0,0,3-2.12,7.09,7.09,0,0,0,1.55-3,10.31,10.31,0,0,0,.25-3.45,8,8,0,0,0-1-3.34,6.84,6.84,0,0,0-2.08-2.27,9,9,0,0,0-3-1.27,14.72,14.72,0,0,0-3.53-.41,10.66,10.66,0,0,0-4.75.92A8,8,0,0,0,416.6,143a7.76,7.76,0,0,0-1.4,2.85,8.76,8.76,0,0,0,2.27,8.48C419,155.81,421.28,156.53,424.36,156.53Zm42,38.35q-1.76,1.5-3.56,2.77t-3.42,2.19a22.46,22.46,0,0,1-3,1.45,6.53,6.53,0,0,1-2.27.53,6.16,6.16,0,0,1-2.65-.56,4.84,4.84,0,0,1-2-1.8,9.45,9.45,0,0,1-1.22-3.19,23.09,23.09,0,0,1-.39-4.78c0-.73,0-1.54,0-2.41s0-1.78.06-2.72,0.06-1.9.09-2.85,0-1.91.08-2.82c0.06-2.08.15-4.26,0.22-6.42,0.72-1.08,1.49-2.17,2.31-3.51s1.61-2.7,2.37-4.09h16.2a2.2,2.2,0,0,0,1.79-1.17,4.28,4.28,0,0,0,.63-2.89A7.59,7.59,0,0,0,471,160a1.63,1.63,0,0,0-1.33-1.08c-0.48,0-1.09-.08-1.82-0.12l-2.35-.11-2.59-.13-2.48-.13-2-.08q-0.88,0-1.26-.08,1.27-3,2.29-6a49.66,49.66,0,0,0,1.62-6,38.15,38.15,0,0,0,.73-5.79,24.74,24.74,0,0,0-.31-5.39,30.22,30.22,0,0,0-1.6-5.79,23.54,23.54,0,0,0-2.5-4.84,13.82,13.82,0,0,0-3.09-3.3A5.61,5.61,0,0,0,451,120c-1.76,0-3.23,1-4.47,3.07a32.17,32.17,0,0,0-3.2,8.18c-0.92,3.41-1.74,7.31-2.5,11.71s-1.44,9-2,13.66a8.64,8.64,0,0,1-1.74.08l-3-.08c-1.12,0-2.3,0-3.57,0a24.11,24.11,0,0,0-3.54.29,8.07,8.07,0,0,0-2.59.81,1.63,1.63,0,0,0-.93,1.6c0,0.31.05,0.69,0.11,1.12a3.39,3.39,0,0,0,.43,1.25,3,3,0,0,0,1,1,4.75,4.75,0,0,0,2,.6c1.89,0.22,3.39.38,4.37,0.52s1.79,0.27,2.42.39l1.76,0.37c0.55,0.12,1.32.25,2.29,0.39q-0.3,3.51-.47,7.06t-0.14,6.69a115.16,115.16,0,0,0,1,14.4c-0.77.61-1.57,1.27-2.36,2-1.45,1.33-3.44,2.62-5,3.86a38.7,38.7,0,0,1-4.79,3.18,8.89,8.89,0,0,1-4.24,1.31,2,2,0,0,1-2.07-1.4,11.15,11.15,0,0,1-.38-3.76,34.78,34.78,0,0,1,.67-5.43c0.39-2,.88-4.06,1.39-6.16s1-4.2,1.6-6.31,1.08-4.07,1.57-5.9,0.88-3.47,1.18-4.91a14.8,14.8,0,0,0,.42-3.32,3.07,3.07,0,0,0-.87-2.17,4.31,4.31,0,0,0-3-.81,14,14,0,0,0-2.67.29,13.13,13.13,0,0,0-2.82.89,8.82,8.82,0,0,0-2.4,1.57,4.44,4.44,0,0,0-1.37,2.33c-0.57,2.57-1.18,5.47-1.94,8.57s-1.49,6.2-2.19,9.31-1.4,6.12-2,9a50.22,50.22,0,0,0-1,7.68,18.54,18.54,0,0,0,.33,4.34,8,8,0,0,0,1.46,3.34,7,7,0,0,0,2.83,2.14,11.36,11.36,0,0,0,4.46.78,21.17,21.17,0,0,0,6.46-1.08,51.64,51.64,0,0,0,6.92-2.75,50.62,50.62,0,0,0,6.63-3.63c1.85-1.32,3.86-2.55,5.17-3.71,0-.43,0-0.65,0-1.08a8,8,0,0,0,.72,2.9,18.71,18.71,0,0,0,4.08,7,8,8,0,0,0,5.76,2.47,10.55,10.55,0,0,0,3.63-.73,31,31,0,0,0,4.66-2.21c1.71-1,4.06-2.22,6.26-3.7s5.88-3.21,8.29-5.2c0.29-5.45.36-8.17,0.41-13.52-1.17,1.15-2.57,2.28-3.65,3.38S467.52,193.87,466.35,194.88Zm-17.87-46.62c0.31-3,.63-5.73,1-8.22a45,45,0,0,1,1.2-6.11c0.46-1.59,1-2.39,1.73-2.39a1.88,1.88,0,0,1,1.26.42,3.16,3.16,0,0,1,.8,1,6.72,6.72,0,0,1,.48,1.32q0.18,0.7.27,1.27a15.71,15.71,0,0,1,0,4.27,51,51,0,0,1-1,5.61q-0.71,3-1.78,6.11c-0.71,2.07-1.45,4-2.18,5.78l-1.35-.18-1.32-.18Q448,152.75,448.48,148.26Zm42,49c1.35,1.49,2,3.62,1.83,6.41a0.8,0.8,0,0,1-.07.32,4.06,4.06,0,0,0-.24,1,13.46,13.46,0,0,1-.49,1.93,17.43,17.43,0,0,1-1,2.36,8.33,8.33,0,0,1-1.69,2.28,9,9,0,0,1-2.62,1.73,8.78,8.78,0,0,1-3.66.68,8.4,8.4,0,0,1-3-.52,5.11,5.11,0,0,1-2.17-1.59,6.85,6.85,0,0,1-1.25-2.74,13.41,13.41,0,0,1-.24-4,16.48,16.48,0,0,1,.69-3.76,10.88,10.88,0,0,1,1.61-3.27,7.57,7.57,0,0,1,2.67-2.28,8.35,8.35,0,0,1,3.9-.84A7.44,7.44,0,0,1,490.52,197.25Zm12.33-75.66q0.27,1,.49,2.25c0.14,0.81.28,1.74,0.37,2.77a74.94,74.94,0,0,1,.12,12.18A98.07,98.07,0,0,1,502,151.95a135.29,135.29,0,0,1-4.22,15.48c-1.89,5.63-4.4,12.05-7.29,19.24a2.2,2.2,0,0,1-.52,1.07,3.82,3.82,0,0,1-1,.84,5.29,5.29,0,0,1-1.27.52,5,5,0,0,1-1.3.18,2.73,2.73,0,0,1-1.54-.42,1.55,1.55,0,0,1-.62-1.41,5.32,5.32,0,0,1,.1-0.78q0.44-5.36,1.12-11.09t1.41-11.45q0.73-5.73,1.43-11.33c0.47-3.73.89-7.3,1.28-10.7s0.74-6.6,1-9.57,0.46-5.67.52-8a9.62,9.62,0,0,1,.8-4,6.7,6.7,0,0,1,1.86-2.37,6.22,6.22,0,0,1,2.41-1.16,10.91,10.91,0,0,1,2.52-.31,3.72,3.72,0,0,1,1.22.21,2.92,2.92,0,0,1,1.12.75,5.8,5.8,0,0,1,1,1.5A13.65,13.65,0,0,1,502.85,121.6Z" transform="translate(-153.42 -30.13)" fill="#fff"/>
      <g id="reflect-2" data-name="reflect">
        <path d="M526,156.1c0,69.57-58,153.23-127.6,153.23S274,225.67,274,156.1A126,126,0,1,1,526,156.1Z" transform="translate(-153.42 -30.13)" fill-opacity="0.3" fill="url(#radial-gradient)"/>
        <ellipse cx="459.36" cy="96.86" rx="16.54" ry="19.06" transform="translate(-157.55 141.31) rotate(-21.05)" fill="url(#radial-gradient-2)"/>
        <path d="M409.32,287.17c-74.33,0-132.84-82.69-132.84-151.44,0-1.68,0-3.36.12-5A126.53,126.53,0,0,0,274,156.1c0,69.57,54.76,153.23,124.33,153.23,39.61,0,75.47-27.12,99-63.32C473.49,270.54,442.64,287.17,409.32,287.17Z" transform="translate(-153.42 -30.13)" fill="#15232c" fill-opacity="0.1"/>
      </g>
      <g id="knot-2" data-name="knot">
        <path d="M380.91,321.87l22.36-22.36,22.36,22.36s-10.91,6-21.82,6C388.55,327.87,380.91,321.87,380.91,321.87Z" transform="translate(-153.42 -30.13)" fill="#993c7d"/>
        <ellipse cx="249.88" cy="293.75" rx="22.33" ry="9.98" fill="#ca5ea6"/>
      </g>
    </g>
  </g>
  <g id="bl_made">
    <g id="balloon-3" data-name="balloon">
      <path id="string-3" data-name="string" d="M404.22,305.95s-5.94,75,20.64,146.74C472,580.16,648.41,703.53,648.41,703.53" transform="translate(-153.42 -30.13)" fill="none" stroke="#fff" stroke-miterlimit="10" stroke-width="2"/>
      <path id="body-3" data-name="body" d="M526,156.1c0,69.57-58,153.23-127.6,153.23S274,225.67,274,156.1A126,126,0,1,1,526,156.1Z" transform="translate(-153.42 -30.13)" fill="#ea46a8"/>
      <path id="wordleft_made" data-name="wordleft made" d="M468.28,170.37a51.08,51.08,0,0,1-4.7,4,55.88,55.88,0,0,1-5.86,3.87,41.26,41.26,0,0,1-6.32,3,17.87,17.87,0,0,1-6.14,1.19,7.21,7.21,0,0,1-1.72-.2,4.77,4.77,0,0,1-1.54-.69,6.72,6.72,0,0,1-1.45-1.38,16.14,16.14,0,0,1-1.47-2.22,33.65,33.65,0,0,0,7.86-3.31,30.13,30.13,0,0,0,6.31-4.82,21.53,21.53,0,0,0,4.13-5.75,13.7,13.7,0,0,0,1.46-6.1,12.75,12.75,0,0,0-1-5.07,11.44,11.44,0,0,0-2.72-3.86,12.44,12.44,0,0,0-4-2.49,13.93,13.93,0,0,0-5-.89,14.89,14.89,0,0,0-6.07,1.2,18.26,18.26,0,0,0-5,3.25,23,23,0,0,0-4,4.73,32,32,0,0,0-2.85,5.64,33.66,33.66,0,0,0-1.71,6,29.5,29.5,0,0,0-.5,5.83q0,1,.11,2c-0.86.69-1.71,1.37-2.53,2s-1.56,1.11-2.38,1.66-1.63,1-2.43,1.46a15.49,15.49,0,0,1-2.3,1,6.33,6.33,0,0,1-2,.37,2.46,2.46,0,0,1-1.67-.59,4.28,4.28,0,0,1-1.12-1.61,10,10,0,0,1-.63-2.3,19.63,19.63,0,0,1-.24-2.72,18.49,18.49,0,0,1,.11-2.34q0.13-1.21.34-2.36c0.14-.77.3-1.48,0.47-2.14s0.34-1.21.51-1.67q2.62-6.2,5.49-12t5.41-11.64q2.55-5.87,4.63-12a92.66,92.66,0,0,0,3.35-13.09c0.22-1.2.38-2.39,0.51-3.53a40.44,40.44,0,0,0,.25-5.41,17.16,17.16,0,0,0-.66-4.59,7.21,7.21,0,0,0-1.83-3.17,4.56,4.56,0,0,0-3.31-1.19,11.61,11.61,0,0,0-6,1.92,31.22,31.22,0,0,0-6.39,5.32,51.22,51.22,0,0,0-6.23,8.1A62.56,62.56,0,0,0,402.35,124a79.79,79.79,0,0,0-5.24,24.22,19.3,19.3,0,0,0-6.39,1.73,23.43,23.43,0,0,0-5.35,3.48,26.3,26.3,0,0,0-4.32,4.79,31.8,31.8,0,0,0-5.15,12,28.88,28.88,0,0,0-.58,6.42c0,0.49,0,1,.07,1.45l0,0a22.79,22.79,0,0,1-1.82,1.93,10.29,10.29,0,0,1-1.81,1.38,3.45,3.45,0,0,1-1.74.53,1.56,1.56,0,0,1-1.53-1.33,14.85,14.85,0,0,1-.47-3.67,38.42,38.42,0,0,1,.28-5.79c0.25-2,.54-4,0.89-6.06s0.68-4,1-5.91a43.88,43.88,0,0,0,.59-5.25,10.8,10.8,0,0,0-.1-2.42,3.38,3.38,0,0,0-.54-1.38,1.68,1.68,0,0,0-.88-0.64,4,4,0,0,0-1.11-.15l-0.9,0-0.91,0a7.1,7.1,0,0,1-1-.07,3,3,0,0,1-1-.32,1.82,1.82,0,0,1-.76-0.79L363,147a3.69,3.69,0,0,0-.8-1,2.11,2.11,0,0,0-1.45-.44,13.57,13.57,0,0,0-5.9,1.46,29.18,29.18,0,0,0-6,3.92,40.12,40.12,0,0,0-5.63,5.77,36.33,36.33,0,0,0-4.44,7,36.85,36.85,0,0,0-2.65,7.61,30.09,30.09,0,0,0-.78,5.89c-0.22.22-.42,0.45-0.64,0.67a18.3,18.3,0,0,1-1.92,1.63,13.65,13.65,0,0,1-1.86,1.16,3.76,3.76,0,0,1-1.7.45q-0.77,0-1.36-1.71a14.55,14.55,0,0,1-.65-4.41,56.88,56.88,0,0,1,.23-6.47c0.19-2,.39-4,0.66-6s0.54-4,.82-6,0.5-4.19.67-6.45a4.34,4.34,0,0,0-1-3.42,3.67,3.67,0,0,0-2.82-1.2,3.38,3.38,0,0,0-2.64,1.36,24.24,24.24,0,0,0-2.29,3.33c-0.79,1.35-1.63,2.91-2.51,4.68s-1.68,3.46-2.42,5.07-1.35,3-1.84,4.1l-0.8,1.84-0.36-.59c0-.07,0-0.2,0-0.39s0.1-.67.23-1.43q0.27-1.62.59-3.17t0.65-3.17q0.33-1.62.61-3.34t0.43-3.64a5,5,0,0,0-.69-3.41,2.69,2.69,0,0,0-2.28-1.2,3.73,3.73,0,0,0-2.75,1.33,19.72,19.72,0,0,0-2.43,3.34c-0.8,1.34-1.68,2.89-2.58,4.64s-1.75,3.43-2.52,5-1.42,3-2,4.13-0.81,1.77-.87,1.87l-0.42-.59c0.3-2.06.6-4.07,0.92-6,0.14-.82.28-1.66,0.42-2.53l0.41-2.53q0.2-1.23.34-2.31t0.22-1.91c0.09-1,.14-1.81.15-2.4a2.15,2.15,0,0,0-.34-1.35,1.73,1.73,0,0,0-1.19-.59,17.58,17.58,0,0,0-2.39-.12,7.49,7.49,0,0,0-1.74.18,2.84,2.84,0,0,0-1.26.69,5.38,5.38,0,0,0-1.05,1.45,23.05,23.05,0,0,0-1.08,2.5c-0.38,1-.83,2.32-1.3,3.92s-0.94,3.37-1.37,5.3-0.84,3.95-1.2,6.06-0.65,4.18-.85,6.23-0.32,4-.36,5.89a40.54,40.54,0,0,0,.16,4.88,28,28,0,0,0,.68,3.92,12.4,12.4,0,0,0,1.37,3.4,7.35,7.35,0,0,0,2.24,2.38,5.63,5.63,0,0,0,3.17.89,3.87,3.87,0,0,0,2.39-.74,4.83,4.83,0,0,0,1.46-2.81c1.13-4.69,2.22-8.6,3.09-11.69s1.66-5.59,2.29-7.5,1.16-3.75,1.54-4.73,0.74-2.61,1-2.61h0.52c-0.43,2.46-.75,6.24-0.94,8.87-0.08,1.12-.15,2.47-0.2,3.62S306,178,306,179.05s0,2,0,2.82,0.07,1.46.11,1.89c0.11,1,.27,2.14.48,3.25a17.1,17.1,0,0,0,.89,3.07,7.88,7.88,0,0,0,1.34,2.29,2.37,2.37,0,0,0,1.83.89,3.57,3.57,0,0,0,2.3-.73,6.92,6.92,0,0,0,1.45-3.2c1.37-10.62,2.67-15.85,5.67-26.15h0.52c-0.23,2.47-.39,5-0.48,7.34s-0.09,4.71,0,6.82a60.38,60.38,0,0,0,.56,6.33,30,30,0,0,0,1.14,5.05,10.75,10.75,0,0,0,1.68,3.34,2.81,2.81,0,0,0,2.21,1.2,11,11,0,0,0,4.67-1,19.44,19.44,0,0,0,4-2.53c1-.84,2-1.77,3.06-2.77a13.14,13.14,0,0,0,1.89,2.57,12.46,12.46,0,0,0,8.8,3.81,11.29,11.29,0,0,0,4.1-.78,17.35,17.35,0,0,0,3.66-2,19.56,19.56,0,0,0,3.07-2.66,20.55,20.55,0,0,0,2.28-2.88,19.74,19.74,0,0,0,3.59,6.21,6.05,6.05,0,0,0,4.61,2.12,7.66,7.66,0,0,0,4.24-1.38,20.66,20.66,0,0,0,3.85-3.33c0.23-.26.44-0.53,0.66-0.79l0,0.06a11.88,11.88,0,0,0,3.41,3.72,7.92,7.92,0,0,0,4.69,1.38,10.61,10.61,0,0,0,3.8-.74,22,22,0,0,0,3.81-1.94,29.58,29.58,0,0,0,3.75-2.84q1.84-1.63,3.56-3.43a15.3,15.3,0,0,0,3,4.63,14.82,14.82,0,0,0,3.41,2.66,11.54,11.54,0,0,0,3.06,1.21,10.78,10.78,0,0,0,2.07.29,9.33,9.33,0,0,0,2.65-.43,22.45,22.45,0,0,0,2.89-1.1q1.47-.68,3-1.55t2.87-1.77c1.68-1.1,3.37-2.33,5.09-3.68a19.47,19.47,0,0,0,1.62,2.3,17.39,17.39,0,0,0,5.81,4.52,17.68,17.68,0,0,0,7.91,1.66,24.39,24.39,0,0,0,5.66-.69,34.78,34.78,0,0,0,5.43-1.79,42.19,42.19,0,0,0,5-2.55c1.61-1,3.13-1.93,4.54-2.92a66.33,66.33,0,0,0,9.28-7.93C472.07,174.32,470.8,173,468.28,170.37Zm-109.94-.93a35,35,0,0,1-.68,4,32.12,32.12,0,0,1-1.38,4.64,15.31,15.31,0,0,1-2.1,3.87,3.61,3.61,0,0,1-2.91,1.62,2.76,2.76,0,0,1-1.78-.58,4.45,4.45,0,0,1-1.2-1.51,7.77,7.77,0,0,1-.68-2.11,16.63,16.63,0,0,1-.26-2.43,20.6,20.6,0,0,1,.42-4.69,27.3,27.3,0,0,1,1.46-4.91,30.8,30.8,0,0,1,2.35-4.65,25.78,25.78,0,0,1,3-3.94,14.61,14.61,0,0,1,3.3-2.74,6.7,6.7,0,0,1,3.42-1C360,160.76,359.32,163.64,358.34,169.44Zm37.09,7.86a20.38,20.38,0,0,1-1.15,1.91,13.09,13.09,0,0,1-1.31,1.65,6.85,6.85,0,0,1-1.44,1.17,2.93,2.93,0,0,1-1.52.45,5.2,5.2,0,0,1-2.45-.49,3.87,3.87,0,0,1-1.47-1.29,5.17,5.17,0,0,1-.74-1.79,10.47,10.47,0,0,1-.23-2,21.89,21.89,0,0,1,.7-5.55,29.75,29.75,0,0,1,2.22-6.05,25.15,25.15,0,0,1,3.74-5.59,18.1,18.1,0,0,1,5.32-4.17,3.51,3.51,0,0,1,.07,1q0,1,0,2.66t0,3.6q0,2,.09,3.81c0,1.23.07,2.34,0.14,3.34a17.15,17.15,0,0,0,.24,2.2A41.12,41.12,0,0,1,395.43,177.3Zm10.4-21.6v-0.49q0-.74,0-2.12c0-.92,1.51-2,1.58-3.23s0.9-2.6,1-4.1,0.69-3.05.91-4.66c0.11-.79.49-2.12,0.82-4s0.83-4,1.35-6.31,1.21-4.74,2-7.23a59.66,59.66,0,0,1,2.55-6.82,24.9,24.9,0,0,1,2.92-5.07c1-1.32,2-2,3-2a1.17,1.17,0,0,1,1.13,1,10.65,10.65,0,0,1-.06,3.67c-0.17,1.34-.48,3.17-0.93,5.44-0.34,1.73-.81,3.57-1.39,5.5s-1.22,3.9-1.92,5.91-1.45,4-2.24,6-3,3.9-3.73,5.69C411.15,147.16,408.41,151.43,405.83,155.7ZM438,167a24.29,24.29,0,0,1,.42-3.15,19.37,19.37,0,0,1,.94-3.22A10.68,10.68,0,0,1,441,157.8a7.85,7.85,0,0,1,2.5-2,7.57,7.57,0,0,1,3.58-.79,2.31,2.31,0,0,1,2,1.43,7.39,7.39,0,0,1,.81,3.64,5.52,5.52,0,0,1-1.21,3.25,16.16,16.16,0,0,1-3,3.1,17.22,17.22,0,0,1-3.88,2.33,9.72,9.72,0,0,1-3.85.91Q437.88,168.55,438,167Z" transform="translate(-153.42 -30.13)" fill="#fff"/>
      <path id="wordright_made" data-name="wordright made" d="M518.24,177.06a102.2,102.2,0,0,1-9.28,8.11c-1.32,1-2.7,2-4.12,3a44.18,44.18,0,0,1-4.25,2.61,26.58,26.58,0,0,1-4.19,1.83,12.64,12.64,0,0,1-4,.68,7.48,7.48,0,0,1-5-1.72,12.86,12.86,0,0,1-3.36-4.64,23.08,23.08,0,0,1-.89-2.35,50.63,50.63,0,0,1-4.06,3.74q-1.11.91-2.38,1.8a25.58,25.58,0,0,1-2.54,1.57,17,17,0,0,1-2.52,1.12,7.17,7.17,0,0,1-2.33.43,8,8,0,0,1-1.79-.3,9.19,9.19,0,0,1-2.64-1.24,13.25,13.25,0,0,1-2.95-2.71,14.52,14.52,0,0,1-2.43-4.71q-1.89,1.82-3.93,3.45a33.27,33.27,0,0,1-4.12,2.84,25.13,25.13,0,0,1-4.09,1.93,11.33,11.33,0,0,1-3.91.71,7,7,0,0,1-4.45-1.43,10.23,10.23,0,0,1-2.87-3.77l0-.06c-0.26.26-.5,0.53-0.76,0.78A23.85,23.85,0,0,1,431,192a8.61,8.61,0,0,1-4.45,1.33,5.16,5.16,0,0,1-4.26-2.15,18.68,18.68,0,0,1-2.79-6.2,23.16,23.16,0,0,1-6,5.46,20.29,20.29,0,0,1-3.95,1.91,12.31,12.31,0,0,1-4.21.73,11.08,11.08,0,0,1-4.48-1,11.22,11.22,0,0,1-3.85-2.8,12,12,0,0,1-1.71-2.53,40.59,40.59,0,0,1-3.85,2.71A25.93,25.93,0,0,1,386.1,192a19.82,19.82,0,0,1-6.38.94,3.78,3.78,0,0,1-2.84-1.19,8.12,8.12,0,0,1-1.75-3.28,23.77,23.77,0,0,1-.86-4.95c-0.15-1.88-.2-4-0.16-6.22s0.15-4.44.32-6.75,0.36-4.87.6-7.34H374.3c-3.88,10.31-6,15.47-10.16,25.82a8.15,8.15,0,0,1-2.85,3.11,8.3,8.3,0,0,1-3.55.7,3.35,3.35,0,0,1-2.42-.87,5.75,5.75,0,0,1-1.39-2.23,12.3,12.3,0,0,1-.65-3,31.52,31.52,0,0,1-.15-3.17c0-.43,0-1.06.1-1.85s0.17-1.74.3-2.76,0.28-2.2.44-3.33,0.33-2.46.48-3.57c0.36-2.61.79-6.39,1.33-8.86H355c-0.39,0-.85,1.63-1.36,2.61s-1.23,2.83-2.13,4.73-2.05,4.37-3.46,7.41-3.25,6.85-5.48,11.39a5.93,5.93,0,0,1-2.28,2.73,5.85,5.85,0,0,1-2.88.7,5.26,5.26,0,0,1-5.19-3.19,10.91,10.91,0,0,1-.9-3.3,31.41,31.41,0,0,1-.22-3.81q0-2,.25-4.77t0.64-5.8c0.26-2,.56-4.1.91-6.22s0.72-4.14,1.1-6.07,0.78-3.7,1.18-5.31,0.77-2.92,1.1-3.93a21,21,0,0,1,.95-2.51,4.64,4.64,0,0,1,1-1.45,2.91,2.91,0,0,1,1.36-.69,9.75,9.75,0,0,1,2-.17,26.72,26.72,0,0,1,2.91.12,2.75,2.75,0,0,1,1.56.59,2.06,2.06,0,0,1,.61,1.35,22.84,22.84,0,0,1,.09,2.41q0,0.84-.08,1.92t-0.23,2.31q-0.15,1.23-.33,2.53c-0.12.87-.25,1.72-0.38,2.53-0.31,1.93-.63,3.93-1,6l0.53,0.59q0.1-.15,1.07-1.87t2.38-4.13q1.41-2.41,3-5c1.08-1.76,2.11-3.31,3.06-4.65a18.11,18.11,0,0,1,3-3.35,5.53,5.53,0,0,1,3.71-1.33,5.29,5.29,0,0,1,3.48,1.2,4.28,4.28,0,0,1,1.5,3.42,25.46,25.46,0,0,1-.19,3.64q-0.22,1.72-.58,3.35t-0.74,3.17c-0.26,1-.49,2.09-0.72,3.17-0.16.75-.26,1.23-0.29,1.43a3,3,0,0,0,0,.39l0.54,0.59q0.1-.15,1.12-1.84l2.5-4.11,3.11-5.07q1.64-2.66,3-4.68a24,24,0,0,1,2.71-3.33,4.6,4.6,0,0,1,3.39-1.36,6.36,6.36,0,0,1,3.9,1.2,4.2,4.2,0,0,1,1.7,3.43,53,53,0,0,1-.17,6.46q-0.28,3.06-.68,6c-0.27,2-.48,4-0.73,6A64.46,64.46,0,0,0,384,175a11.86,11.86,0,0,0,.57,4.35c0.42,1.12,1,1.69,1.6,1.69a6,6,0,0,0,2.17-.44,17.25,17.25,0,0,0,2.34-1.14,19.67,19.67,0,0,0,2.36-1.61c0.27-.21.51-0.44,0.77-0.66a33.23,33.23,0,0,1,1.1-5.84,46,46,0,0,1,2.85-7.6,44.8,44.8,0,0,1,4.23-7,38.88,38.88,0,0,1,5.13-5.77,25.59,25.59,0,0,1,5.54-3.92,12.35,12.35,0,0,1,5.69-1.46,2.35,2.35,0,0,1,1.51.44,4.42,4.42,0,0,1,.93,1l0.73,1.11a2.16,2.16,0,0,0,.85.79,3.34,3.34,0,0,0,1,.32,7.28,7.28,0,0,0,1,.07l0.9,0,0.9,0a4.13,4.13,0,0,1,1.12.15,1.94,1.94,0,0,1,.95.64,3.73,3.73,0,0,1,.68,1.38,10.41,10.41,0,0,1,.32,2.42,34.32,34.32,0,0,1-.24,5.25q-0.34,2.88-.8,5.91c-0.31,2-.61,4-0.89,6.05a50.22,50.22,0,0,0-.48,5.78,16,16,0,0,0,.24,3.67,1.42,1.42,0,0,0,1.42,1.33,3.65,3.65,0,0,0,1.78-.52,11.2,11.2,0,0,0,1.91-1.37,24,24,0,0,0,1.94-1.92l0,0c0-.48,0-1,0-1.45a35.21,35.21,0,0,1,.77-6.42,37.28,37.28,0,0,1,1.91-6.25,34.3,34.3,0,0,1,3-5.71,25.27,25.27,0,0,1,4-4.79,20.92,20.92,0,0,1,5-3.48,17.64,17.64,0,0,1,6.17-1.73q-0.39-6.32-.3-12.49c0.07-4.11.26-8,.63-11.73a73.39,73.39,0,0,1,1.68-10.26,47.32,47.32,0,0,1,2.73-8.09,18.27,18.27,0,0,1,3.41-5.32,5.73,5.73,0,0,1,4.18-1.92,4.91,4.91,0,0,1,3.15,1.2,12.72,12.72,0,0,1,2.71,3.18,25.87,25.87,0,0,1,2.23,4.6,45.45,45.45,0,0,1,1.66,5.42c0.27,1.15.52,2.33,0.72,3.53a67.46,67.46,0,0,1,.91,13.09,81.47,81.47,0,0,1-1.25,12,96.28,96.28,0,0,1-2.86,11.62q-1.81,5.76-4,12-0.21.69-.42,1.67c-0.14.66-.28,1.37-0.41,2.14s-0.23,1.56-.33,2.37-0.14,1.6-.15,2.36a25.66,25.66,0,0,0,.11,2.75,11.77,11.77,0,0,0,.44,2.33,4.22,4.22,0,0,0,.87,1.63,1.81,1.81,0,0,0,1.39.6,4.53,4.53,0,0,0,1.71-.38,11.39,11.39,0,0,0,1.92-1,20.8,20.8,0,0,0,2-1.48c0.66-.55,1.29-1.11,1.88-1.68s1.29-1.29,1.93-2q0-1,0-2a51.94,51.94,0,0,1,.39-5.85,56.49,56.49,0,0,1,1.07-6,45.59,45.59,0,0,1,1.7-5.63,23.19,23.19,0,0,1,2.36-4.72,11.7,11.7,0,0,1,3.1-3.24,7,7,0,0,1,4.06-1.19,8.08,8.08,0,0,1,3.65.89A10.94,10.94,0,0,1,501,149a13.13,13.13,0,0,1,2.38,3.85,15.36,15.36,0,0,1,1.07,5.06,15.76,15.76,0,0,1-.93,6.09,22.35,22.35,0,0,1-3.06,5.75,26.62,26.62,0,0,1-4.61,4.86,21.69,21.69,0,0,1-5.53,3.35,19.55,19.55,0,0,0,.84,2.26,5.64,5.64,0,0,0,.87,1.41,2.56,2.56,0,0,0,1,.71,3.2,3.2,0,0,0,1.15.2,9.88,9.88,0,0,0,4.38-1.21,35.46,35.46,0,0,0,4.9-3c1.66-1.2,3.3-2.52,4.89-3.93s3-2.74,4.17-4C514.71,173,515.85,174.38,518.24,177.06ZM419.84,155a6.29,6.29,0,0,0-3.34,1,13.6,13.6,0,0,0-3.12,2.74,26.4,26.4,0,0,0-2.78,3.94,34.56,34.56,0,0,0-2.26,4.65,32.07,32.07,0,0,0-1.5,4.9,23.52,23.52,0,0,0-.59,4.65,17.94,17.94,0,0,0,.11,2.41,7.51,7.51,0,0,0,.53,2.09,4,4,0,0,0,1.07,1.5,2.56,2.56,0,0,0,1.72.58,4,4,0,0,0,3-1.59,15.48,15.48,0,0,0,2.36-3.83,28.07,28.07,0,0,0,1.59-4.61,29.39,29.39,0,0,0,.75-4C418.43,163.66,419,160.77,419.84,155Zm36.78,17.2a19.18,19.18,0,0,1-.2-2.2c-0.05-1-.09-2.12-0.13-3.35s-0.1-2.5-.16-3.81-0.13-2.51-.19-3.6-0.12-2-.19-2.66a3.52,3.52,0,0,0-.14-1,17,17,0,0,0-5,4.17,26.26,26.26,0,0,0-3.55,5.59,34.61,34.61,0,0,0-2.22,6.06,25.66,25.66,0,0,0-.89,5.57,11.18,11.18,0,0,0,.11,2,5,5,0,0,0,.61,1.81,3.49,3.49,0,0,0,1.36,1.31,4.9,4.9,0,0,0,2.4.51,3.1,3.1,0,0,0,1.56-.45,7.57,7.57,0,0,0,1.53-1.18,14,14,0,0,0,1.43-1.66,20.63,20.63,0,0,0,1.27-1.93A36.63,36.63,0,0,0,456.62,172.17Zm12.73-29.23c0.38-1.8,1.92-3.7,2.22-5.69s0.51-4,.65-6,0.19-4,.16-5.9a47.08,47.08,0,0,0-.38-5.5c-0.3-2.28-.64-4.11-0.94-5.45a14.17,14.17,0,0,0-1.2-3.68,1.66,1.66,0,0,0-1.29-1q-1.22,0-1.8,2a23.36,23.36,0,0,0-.78,5.06c-0.13,2.06-.19,4.33-0.17,6.82s0,4.9.08,7.23,0,4.43.1,6.31-0.07,3.21,0,4c0.06,1.61-.21,3.17-0.14,4.66s-0.54,2.86-.48,4.1-1.24,2.31-1.18,3.23,0.1,1.63.13,2.12l0,0.49A54,54,0,0,0,469.36,142.94Zm20.43,26.7a5,5,0,0,0,2.63-.91,12.06,12.06,0,0,0,2.65-2.33,14.69,14.69,0,0,0,2-3.09,6.72,6.72,0,0,0,.76-3.24,9.75,9.75,0,0,0-.74-3.64c-0.43-.95-0.93-1.42-1.47-1.43a3.74,3.74,0,0,0-2.43.78,6,6,0,0,0-1.6,2,12.67,12.67,0,0,0-1,2.85,29.76,29.76,0,0,0-.55,3.22q-0.19,1.62-.25,3.15T489.79,169.65Z" transform="translate(-153.42 -30.13)" fill="#fff"/>
      <g id="reflect-3" data-name="reflect">
        <path d="M526,156.1c0,69.57-58,153.23-127.6,153.23S274,225.67,274,156.1A126,126,0,1,1,526,156.1Z" transform="translate(-153.42 -30.13)" fill-opacity="0.3" fill="url(#radial-gradient)"/>
        <ellipse cx="459.36" cy="96.86" rx="16.54" ry="19.06" transform="translate(-157.55 141.31) rotate(-21.05)" fill="url(#radial-gradient-2)"/>
        <path d="M409.32,287.17c-74.33,0-132.84-82.69-132.84-151.44,0-1.68,0-3.36.12-5A126.53,126.53,0,0,0,274,156.1c0,69.57,54.76,153.23,124.33,153.23,39.61,0,75.47-27.12,99-63.32C473.49,270.54,442.64,287.17,409.32,287.17Z" transform="translate(-153.42 -30.13)" fill="#15232c" fill-opacity="0.1"/>
      </g>
      <g id="knot-3" data-name="knot">
        <path d="M380.91,321.87l22.36-22.36,22.36,22.36s-10.91,6-21.82,6C388.55,327.87,380.91,321.87,380.91,321.87Z" transform="translate(-153.42 -30.13)" fill="#993c7d"/>
        <ellipse cx="249.88" cy="293.75" rx="22.33" ry="9.98" fill="#ca5ea6"/>
      </g>
    </g>
  </g>
</svg>
