<svg id="svg-label" xmlns="http://www.w3.org/2000/svg" xmlns:xlink="http://www.w3.org/1999/xlink" viewBox="0 0 795 795">
  <defs>
    <clipPath id="clip-path" transform="translate(-3.3 -3)">
      <rect id="labelClip" x="-1349.7" width="1400" height="800" fill="none"/>
    </clipPath>
  </defs>
  <title>svg-you</title>
  <rect id="bg" width="795" height="795" fill="none"/>
  <g clip-path="url(#clip-path)">
    <g id="sign">
      <g id="label1">
        <path id="paper1" d="M600.14,218.34c-11.18,9.23-28.22,17.38-39.46,19.1-8,1.22-17.15.8-25.13-.07-1.24-.14-2.74-1-4-0.64,0,0-124.19,31.61-184.24,55.44s-217.27,52.3-217.27,52.3c-1.41,7.65-4.39,18.52-6.87,27.4-1.31,6.57-2.61,12.66-3.24,17.73-0.6-3.36,1.09-9.93,3.25-17.69,1.74-8.74,3.52-18.24,3.93-26.65L56.3,368s18.77,56.57,34.88,121.78S114.25,604.2,114.25,604.2l71.17-19.1c3.76-11.39,7.56-23.18,8.16-33.86,1.65,5.38,4.75,19,3.92,30.62L744.3,433.53l-58-238.32Z" transform="translate(-3.3 -3)" fill="#fff"/>
        <g>
          <path d="M253,457.06l-48.63-50c-5.32-5.3-3.75-10.68,3.35-12.58l13-3.5c5.12-1.37,9-.11,12.38,3.93l16,18.88c6,7.07,11.66,15.1,11.66,15.1l0.33-.09s0.91-9.8,2.54-18.91l4.27-24.33c0.91-5.2,3.63-8.23,8.75-9.61l13-3.5c7.1-1.91,11.15,2,9.2,9.21l-17.08,67.6,10.54,39.3c1.6,5.94-.7,9.92-6.64,11.52L275,503c-5.94,1.6-9.92-.7-11.52-6.64Z" transform="translate(-3.3 -3)" fill="#dd429f"/>
          <path d="M360.7,351.32c36.65-9.84,68.84,9.85,77.92,43.7,9.3,34.67-8.53,68.49-45.18,78.32s-69-10.51-78.32-45.18C306,394.31,324,361.16,360.7,351.32Zm25.65,95.6c18.66-5,27.79-23.74,22.38-43.89-5.18-19.32-22.29-30.3-40.95-25.3s-28,23.08-22.78,42.4C350.41,440.29,367.69,451.93,386.35,446.93Z" transform="translate(-3.3 -3)" fill="#dd429f"/>
          <path d="M440.93,341.65c-1.6-5.94.7-9.92,6.64-11.52l10.73-2.88c5.94-1.6,9.92.7,11.52,6.64l17.59,65.55c3.32,12.38,13.19,16.82,25.57,13.49s18.7-12.1,15.38-24.48l-17.59-65.55c-1.6-5.94.7-9.92,6.64-11.52l10.73-2.88c5.94-1.6,9.92.7,11.52,6.64l17.59,65.55c7.13,26.58-7.3,50.63-37,58.61-30.05,8.06-54.59-5.53-61.72-32.11Z" transform="translate(-3.3 -3)" fill="#dd429f"/>
          <path d="M578,373l-19-62.87c-1.76-5.9.49-10,6.43-11.64l11.23-3c5.94-1.6,10,.86,11.4,6.85l15,63.93c1.39,5.82-1.07,9.85-6.85,11.4l-6.6,1.77C583.89,381,579.74,378.74,578,373Zm7.48,29.85c-1.6-5.94.7-9.92,6.64-11.52l7.92-2.13c5.94-1.59,9.92.7,11.52,6.64l1.77,6.6c1.6,5.94-.7,9.92-6.64,11.52l-7.93,2.13c-5.94,1.59-9.92-.7-11.52-6.65Z" transform="translate(-3.3 -3)" fill="#dd429f"/>
        </g>
      </g>
      <g id="label2">
        <path id="paper1-2" data-name="paper1" d="M200.46,218.34c11.18,9.23,28.22,17.38,39.46,19.1,8,1.22,17.15.8,25.13-.07,1.24-.14,2.74-1,4-0.64,0,0,124.19,31.61,184.24,55.44s217.27,52.3,217.27,52.3c1.41,7.65,4.39,18.52,6.87,27.4,1.31,6.57,2.61,12.66,3.24,17.73,0.6-3.36-1.09-9.93-3.25-17.69-1.74-8.74-3.52-18.24-3.93-26.65L744.3,368s-18.77,56.57-34.88,121.78S686.34,604.2,686.34,604.2l-71.17-19.1c-3.76-11.39-7.56-23.18-8.16-33.86-1.65,5.38-4.75,19-3.92,30.62L56.3,433.53l58-238.32Z" transform="translate(-3.3 -3)" fill="#f3bddd"/>
      </g>
    </g>
  </g>
</svg>
