<svg id="svg-thanks" xmlns="http://www.w3.org/2000/svg" viewBox="0 0 800 800">

<g id="stars-big">
	<circle fill="#FFFFFF" cx="304.6" cy="131.2" r="2.5"/>
	<circle fill="#FFFFFF" cx="318.6" cy="131.2" r="2.5"/>
	<circle fill="#FFFFFF" cx="417.6" cy="132.2" r="2.5"/>
	<circle fill="#FFFFFF" cx="582.6" cy="132.2" r="2.5"/>
	<circle fill="#FFFFFF" cx="712.6" cy="132.2" r="2.5"/>
	<circle fill="#FFFFFF" cx="834.6" cy="132.2" r="2.5"/>
	<circle fill="#FFFFFF" cx="893.6" cy="136.2" r="2.5"/>
	<circle fill="#FFFFFF" cx="937.6" cy="185.2" r="2.5"/>
	<circle fill="#FFFFFF" cx="923.6" cy="298.2" r="2.5"/>
	<circle fill="#FFFFFF" cx="827.6" cy="422.2" r="2.5"/>
	<circle fill="#FFFFFF" cx="692.6" cy="308.2" r="2.5"/>
	<circle fill="#FFFFFF" cx="570.6" cy="217.2" r="2.5"/>
	<circle fill="#FFFFFF" cx="482.6" cy="225.2" r="2.5"/>
	<circle fill="#FFFFFF" cx="403.6" cy="352.2" r="2.5"/>
	<circle fill="#FFFFFF" cx="369.6" cy="478.2" r="2.5"/>
	<circle fill="#FFFFFF" cx="404.6" cy="574.2" r="2.5"/>
	<circle fill="#FFFFFF" cx="347.6" cy="729.2" r="2.5"/>
	<circle fill="#FFFFFF" cx="328.6" cy="740.2" r="2.5"/>
	<circle fill="#FFFFFF" cx="463.6" cy="808.2" r="2.5"/>
	<circle fill="#FFFFFF" cx="648.6" cy="725.2" r="2.5"/>
	<circle fill="#FFFFFF" cx="582.6" cy="418.2" r="2.5"/>
	<circle fill="#FFFFFF" cx="630.6" cy="476.2" r="2.5"/>
	<circle fill="#FFFFFF" cx="721.6" cy="723.2" r="2.5"/>
	<circle fill="#FFFFFF" cx="772.6" cy="686.2" r="2.5"/>
	<circle fill="#FFFFFF" cx="921.6" cy="732.2" r="2.5"/>
	<circle fill="#FFFFFF" cx="940.6" cy="688.2" r="2.5"/>
	<circle fill="#FFFFFF" cx="968.6" cy="468.2" r="2.5"/>
	<circle fill="#FFFFFF" cx="1050.6" cy="628.2" r="2.5"/>
	<circle fill="#FFFFFF" cx="783.6" cy="818.2" r="2.5"/>
	<circle fill="#FFFFFF" cx="707.6" cy="768.2" r="2.5"/>
	<circle fill="#FFFFFF" cx="700.6" cy="698.2" r="2.5"/>
	<circle fill="#FFFFFF" cx="785.6" cy="987.2" r="2.5"/>
	<circle fill="#FFFFFF" cx="583.6" cy="707.2" r="2.5"/>
	<circle fill="#FFFFFF" cx="516.6" cy="560.2" r="2.5"/>
	<circle fill="#FFFFFF" cx="423.6" cy="589.2" r="2.5"/>
	<circle fill="#FFFFFF" cx="294.6" cy="438.2" r="2.5"/>
	<circle fill="#FFFFFF" cx="244.6" cy="266.2" r="2.5"/>
	<circle fill="#FFFFFF" cx="270.6" cy="165.2" r="2.5"/>
	<circle fill="#FFFFFF" cx="257.6" cy="185.2" r="2.5"/>
	<circle fill="#FFFFFF" cx="155.6" cy="581.2" r="2.5"/>
	<circle fill="#FFFFFF" cx="205.6" cy="729.2" r="2.5"/>
	<circle fill="#FFFFFF" cx="228.6" cy="810.2" r="2.5"/>
	<circle fill="#FFFFFF" cx="286.6" cy="860.2" r="2.5"/>
	<circle fill="#FFFFFF" cx="684.6" cy="831.2" r="2.5"/>
	<circle fill="#FFFFFF" cx="993.6" cy="836.2" r="2.5"/>
	<circle fill="#FFFFFF" cx="1028.6" cy="856.2" r="2.5"/>
	<circle fill="#FFFFFF" cx="1042.6" cy="735.2" r="2.5"/>
	<circle fill="#FFFFFF" cx="1024.6" cy="376.2" r="2.5"/>
	<circle fill="#FFFFFF" cx="1029.6" cy="234.2" r="2.5"/>
	<circle fill="#FFFFFF" cx="988.6" cy="143.2" r="2.5"/>
	<circle fill="#FFFFFF" cx="992.6" cy="106.2" r="2.5"/>
	<circle fill="#FFFFFF" cx="720.6" cy="227.2" r="2.5"/>
	<circle fill="#FFFFFF" cx="697.6" cy="229.2" r="2.5"/>
	<circle fill="#FFFFFF" cx="430.6" cy="300.2" r="2.5"/>
	<circle fill="#FFFFFF" cx="371.6" cy="254.2" r="2.5"/>
	<circle fill="#FFFFFF" cx="348.6" cy="239.2" r="2.5"/>
	<circle fill="#FFFFFF" cx="529.6" cy="860.2" r="2.5"/>
	<circle fill="#FFFFFF" cx="431.6" cy="11.2" r="2.5"/>
	<circle fill="#FFFFFF" cx="435.6" cy="32.2" r="2.5"/>
	<circle fill="#FFFFFF" cx="472.6" cy="66.2" r="2.5"/>
	<circle fill="#FFFFFF" cx="628.6" cy="49.2" r="2.5"/>
	<circle fill="#FFFFFF" cx="752.6" cy="23.2" r="2.5"/>
	<circle fill="#FFFFFF" cx="835.6" cy="11.2" r="2.5"/>
	<circle fill="#FFFFFF" cx="929.6" cy="29.2" r="2.5"/>
	<circle fill="#FFFFFF" cx="978.6" cy="65.2" r="2.5"/>
	<circle fill="#FFFFFF" cx="1045.6" cy="72.2" r="2.5"/>
	<circle fill="#FFFFFF" cx="1141.6" cy="139.2" r="2.5"/>
	<circle fill="#FFFFFF" cx="1145.6" cy="352.2" r="2.5"/>
	<circle fill="#FFFFFF" cx="1117.6" cy="470.2" r="2.5"/>
	<circle fill="#FFFFFF" cx="1123.6" cy="634.2" r="2.5"/>
	<circle fill="#FFFFFF" cx="1165.6" cy="741.2" r="2.5"/>
	<circle fill="#FFFFFF" cx="1115.6" cy="848.2" r="2.5"/>
	<circle fill="#FFFFFF" cx="945.6" cy="989.2" r="2.5"/>
	<circle fill="#FFFFFF" cx="714.6" cy="991.2" r="2.5"/>
	<circle fill="#FFFFFF" cx="662.6" cy="963.2" r="2.5"/>
	<circle fill="#FFFFFF" cx="501.6" cy="953.2" r="2.5"/>
	<circle fill="#FFFFFF" cx="345.6" cy="999.2" r="2.5"/>
	<circle fill="#FFFFFF" cx="242.6" cy="965.2" r="2.5"/>
	<circle fill="#FFFFFF" cx="191.6" cy="808.2" r="2.5"/>
	<circle fill="#FFFFFF" cx="185.6" cy="544.2" r="2.5"/>
	<circle fill="#FFFFFF" cx="219.6" cy="358.2" r="2.5"/>
	<circle fill="#FFFFFF" cx="208.6" cy="268.2" r="2.5"/>
	<circle fill="#FFFFFF" cx="206.6" cy="238.2" r="2.5"/>
	<circle fill="#FFFFFF" cx="578.6" cy="636.2" r="2.5"/>
</g>
<g id="stars-small">
	<circle fill="#FFFFFF" cx="880.9" cy="218.5" r="1.2"/>
	<circle fill="#FFFFFF" cx="880.9" cy="225.3" r="1.2"/>
	<circle fill="#FFFFFF" cx="880.4" cy="274.1" r="1.2"/>
	<circle fill="#FFFFFF" cx="880.4" cy="355.4" r="1.2"/>
	<circle fill="#FFFFFF" cx="880.4" cy="419.4" r="1.2"/>
	<circle fill="#FFFFFF" cx="880.4" cy="479.5" r="1.2"/>
	<circle fill="#FFFFFF" cx="878.5" cy="508.5" r="1.2"/>
	<circle fill="#FFFFFF" cx="854.3" cy="530.2" r="1.2"/>
	<circle fill="#FFFFFF" cx="798.7" cy="523.3" r="1.2"/>
	<circle fill="#FFFFFF" cx="737.6" cy="476" r="1.2"/>
	<circle fill="#FFFFFF" cx="793.8" cy="409.5" r="1.2"/>
	<circle fill="#FFFFFF" cx="838.6" cy="349.4" r="1.2"/>
	<circle fill="#FFFFFF" cx="834.6" cy="306.1" r="1.2"/>
	<circle fill="#FFFFFF" cx="772.1" cy="267.2" r="1.2"/>
	<circle fill="#FFFFFF" cx="710.1" cy="250.5" r="1.2"/>
	<circle fill="#FFFFFF" cx="662.8" cy="267.7" r="1.2"/>
	<circle fill="#FFFFFF" cx="586.5" cy="239.6" r="1.2"/>
	<circle fill="#FFFFFF" cx="581" cy="230.3" r="1.2"/>
	<circle fill="#FFFFFF" cx="547.6" cy="296.8" r="1.2"/>
	<circle fill="#FFFFFF" cx="588.4" cy="387.9" r="1.2"/>
	<circle fill="#FFFFFF" cx="739.6" cy="355.4" r="1.2"/>
	<circle fill="#FFFFFF" cx="711" cy="379" r="1.2"/>
	<circle fill="#FFFFFF" cx="589.4" cy="423.8" r="1.2"/>
	<circle fill="#FFFFFF" cx="607.6" cy="448.9" r="1.2"/>
	<circle fill="#FFFFFF" cx="585" cy="522.3" r="1.2"/>
	<circle fill="#FFFFFF" cx="606.6" cy="531.7" r="1.2"/>
	<circle fill="#FFFFFF" cx="715" cy="545.4" r="1.2"/>
	<circle fill="#FFFFFF" cx="636.2" cy="585.8" r="1.2"/>
	<circle fill="#FFFFFF" cx="542.6" cy="454.3" r="1.2"/>
	<circle fill="#FFFFFF" cx="567.2" cy="416.9" r="1.2"/>
	<circle fill="#FFFFFF" cx="601.7" cy="413.5" r="1.2"/>
	<circle fill="#FFFFFF" cx="459.4" cy="455.3" r="1.2"/>
	<circle fill="#FFFFFF" cx="597.3" cy="355.8" r="1.2"/>
	<circle fill="#FFFFFF" cx="669.7" cy="322.9" r="1.2"/>
	<circle fill="#FFFFFF" cx="655.4" cy="277.1" r="1.2"/>
	<circle fill="#FFFFFF" cx="729.8" cy="213.5" r="1.2"/>
	<circle fill="#FFFFFF" cx="814.5" cy="188.9" r="1.2"/>
	<circle fill="#FFFFFF" cx="864.2" cy="201.7" r="1.2"/>
	<circle fill="#FFFFFF" cx="854.3" cy="195.3" r="1.2"/>
	<circle fill="#FFFFFF" cx="659.3" cy="145.1" r="1.2"/>
	<circle fill="#FFFFFF" cx="586.5" cy="169.7" r="1.2"/>
	<circle fill="#FFFFFF" cx="546.6" cy="181" r="1.2"/>
	<circle fill="#FFFFFF" cx="521.9" cy="209.6" r="1.2"/>
	<circle fill="#FFFFFF" cx="536.2" cy="405.6" r="1.2"/>
	<circle fill="#FFFFFF" cx="533.8" cy="557.8" r="1.2"/>
	<circle fill="#FFFFFF" cx="523.9" cy="575" r="1.2"/>
	<circle fill="#FFFFFF" cx="583.5" cy="581.9" r="1.2"/>
	<circle fill="#FFFFFF" cx="760.3" cy="573" r="1.2"/>
	<circle fill="#FFFFFF" cx="830.2" cy="575.5" r="1.2"/>
	<circle fill="#FFFFFF" cx="875" cy="555.3" r="1.2"/>
	<circle fill="#FFFFFF" cx="893.2" cy="557.3" r="1.2"/>
	<circle fill="#FFFFFF" cx="833.7" cy="423.3" r="1.2"/>
	<circle fill="#FFFFFF" cx="832.7" cy="412" r="1.2"/>
	<circle fill="#FFFFFF" cx="797.7" cy="280.5" r="1.2"/>
	<circle fill="#FFFFFF" cx="820.4" cy="251.4" r="1.2"/>
	<circle fill="#FFFFFF" cx="827.8" cy="240.1" r="1.2"/>
	<circle fill="#FFFFFF" cx="521.9" cy="329.3" r="1.2"/>
	<circle fill="#FFFFFF" cx="940" cy="281" r="1.2"/>
	<circle fill="#FFFFFF" cx="929.7" cy="283" r="1.2"/>
	<circle fill="#FFFFFF" cx="912.9" cy="301.2" r="1.2"/>
	<circle fill="#FFFFFF" cx="921.3" cy="378" r="1.2"/>
	<circle fill="#FFFFFF" cx="934.1" cy="439.1" r="1.2"/>
	<circle fill="#FFFFFF" cx="940" cy="479.9" r="1.2"/>
	<circle fill="#FFFFFF" cx="931.2" cy="526.2" r="1.2"/>
	<circle fill="#FFFFFF" cx="913.4" cy="550.4" r="1.2"/>
	<circle fill="#FFFFFF" cx="910" cy="583.4" r="1.2"/>
	<circle fill="#FFFFFF" cx="877" cy="630.6" r="1.2"/>
	<circle fill="#FFFFFF" cx="772.1" cy="632.6" r="1.2"/>
	<circle fill="#FFFFFF" cx="714" cy="618.8" r="1.2"/>
	<circle fill="#FFFFFF" cx="633.2" cy="621.8" r="1.2"/>
	<circle fill="#FFFFFF" cx="580.5" cy="642.5" r="1.2"/>
	<circle fill="#FFFFFF" cx="527.9" cy="617.8" r="1.2"/>
	<circle fill="#FFFFFF" cx="458.4" cy="534.1" r="1.2"/>
	<circle fill="#FFFFFF" cx="457.4" cy="420.4" r="1.2"/>
	<circle fill="#FFFFFF" cx="471.2" cy="394.8" r="1.2"/>
	<circle fill="#FFFFFF" cx="476.1" cy="315.5" r="1.2"/>
	<circle fill="#FFFFFF" cx="453.5" cy="238.6" r="1.2"/>
	<circle fill="#FFFFFF" cx="470.2" cy="187.9" r="1.2"/>
	<circle fill="#FFFFFF" cx="547.6" cy="162.8" r="1.2"/>
	<circle fill="#FFFFFF" cx="677.6" cy="159.9" r="1.2"/>
	<circle fill="#FFFFFF" cx="769.2" cy="176.6" r="1.2"/>
	<circle fill="#FFFFFF" cx="813.5" cy="171.2" r="1.2"/>
	<circle fill="#FFFFFF" cx="828.2" cy="170.2" r="1.2"/>
	<circle fill="#FFFFFF" cx="632.3" cy="353.4" r="1.2"/>
	<circle fill="#FFFFFF" cx="493.3" cy="656.8" r="1.2"/>
	<circle fill="#FFFFFF" cx="493.3" cy="663.7" r="1.2"/>
	<circle fill="#FFFFFF" cx="492.8" cy="712.4" r="1.2"/>
	<circle fill="#FFFFFF" cx="492.8" cy="793.7" r="1.2"/>
	<circle fill="#FFFFFF" cx="492.8" cy="857.7" r="1.2"/>
	<circle fill="#FFFFFF" cx="492.8" cy="917.8" r="1.2"/>
	<circle fill="#FFFFFF" cx="490.8" cy="946.8" r="1.2"/>
	<circle fill="#FFFFFF" cx="466.7" cy="968.5" r="1.2"/>
	<circle fill="#FFFFFF" cx="411" cy="961.6" r="1.2"/>
	<circle fill="#FFFFFF" cx="350" cy="914.3" r="1.2"/>
	<circle fill="#FFFFFF" cx="406.1" cy="847.9" r="1.2"/>
	<circle fill="#FFFFFF" cx="450.9" cy="787.8" r="1.2"/>
	<circle fill="#FFFFFF" cx="447" cy="744.4" r="1.2"/>
	<circle fill="#FFFFFF" cx="384.4" cy="705.5" r="1.2"/>
	<circle fill="#FFFFFF" cx="322.4" cy="688.8" r="1.2"/>
	<circle fill="#FFFFFF" cx="275.1" cy="706" r="1.2"/>
	<circle fill="#FFFFFF" cx="198.8" cy="678" r="1.2"/>
	<circle fill="#FFFFFF" cx="193.4" cy="668.6" r="1.2"/>
	<circle fill="#FFFFFF" cx="200.7" cy="826.2" r="1.2"/>
	<circle fill="#FFFFFF" cx="351.9" cy="793.7" r="1.2"/>
	<circle fill="#FFFFFF" cx="323.4" cy="817.3" r="1.2"/>
	<circle fill="#FFFFFF" cx="201.7" cy="862.1" r="1.2"/>
	<circle fill="#FFFFFF" cx="219.9" cy="887.3" r="1.2"/>
	<circle fill="#FFFFFF" cx="197.3" cy="960.6" r="1.2"/>
	<circle fill="#FFFFFF" cx="219" cy="970" r="1.2"/>
	<circle fill="#FFFFFF" cx="327.3" cy="983.8" r="1.2"/>
	<circle fill="#FFFFFF" cx="248.5" cy="1024.2" r="1.2"/>
	<circle fill="#FFFFFF" cx="154.9" cy="892.7" r="1.2"/>
	<circle fill="#FFFFFF" cx="179.6" cy="855.2" r="1.2"/>
	<circle fill="#FFFFFF" cx="214" cy="851.8" r="1.2"/>
	<circle fill="#FFFFFF" cx="209.6" cy="794.2" r="1.2"/>
	<circle fill="#FFFFFF" cx="282" cy="761.2" r="1.2"/>
	<circle fill="#FFFFFF" cx="267.7" cy="715.4" r="1.2"/>
	<circle fill="#FFFFFF" cx="342.1" cy="651.9" r="1.2"/>
	<circle fill="#FFFFFF" cx="426.8" cy="627.2" r="1.2"/>
	<circle fill="#FFFFFF" cx="476.5" cy="640" r="1.2"/>
	<circle fill="#FFFFFF" cx="466.7" cy="633.6" r="1.2"/>
	<circle fill="#FFFFFF" cx="271.7" cy="583.4" r="1.2"/>
	<circle fill="#FFFFFF" cx="198.8" cy="608" r="1.2"/>
	<circle fill="#FFFFFF" cx="158.9" cy="619.4" r="1.2"/>
	<circle fill="#FFFFFF" cx="134.3" cy="647.9" r="1.2"/>
	<circle fill="#FFFFFF" cx="148.5" cy="843.9" r="1.2"/>
	<circle fill="#FFFFFF" cx="146.1" cy="996.1" r="1.2"/>
	<circle fill="#FFFFFF" cx="136.2" cy="1013.3" r="1.2"/>
	<circle fill="#FFFFFF" cx="195.8" cy="1020.2" r="1.2"/>
	<circle fill="#FFFFFF" cx="372.6" cy="1011.4" r="1.2"/>
	<circle fill="#FFFFFF" cx="442.5" cy="1013.8" r="1.2"/>
	<circle fill="#FFFFFF" cx="487.3" cy="993.6" r="1.2"/>
	<circle fill="#FFFFFF" cx="505.6" cy="995.6" r="1.2"/>
	<circle fill="#FFFFFF" cx="446" cy="861.6" r="1.2"/>
	<circle fill="#FFFFFF" cx="445" cy="850.3" r="1.2"/>
	<circle fill="#FFFFFF" cx="410" cy="718.8" r="1.2"/>
	<circle fill="#FFFFFF" cx="432.7" cy="689.8" r="1.2"/>
	<circle fill="#FFFFFF" cx="440.1" cy="678.5" r="1.2"/>
	<circle fill="#FFFFFF" cx="552.4" cy="719.3" r="1.2"/>
	<circle fill="#FFFFFF" cx="542" cy="721.3" r="1.2"/>
	<circle fill="#FFFFFF" cx="525.3" cy="739.5" r="1.2"/>
	<circle fill="#FFFFFF" cx="533.6" cy="816.3" r="1.2"/>
	<circle fill="#FFFFFF" cx="546.4" cy="877.4" r="1.2"/>
	<circle fill="#FFFFFF" cx="552.4" cy="918.3" r="1.2"/>
	<circle fill="#FFFFFF" cx="543.5" cy="964.6" r="1.2"/>
	<circle fill="#FFFFFF" cx="525.8" cy="988.7" r="1.2"/>
	<circle fill="#FFFFFF" cx="522.3" cy="1021.7" r="1.2"/>
	<circle fill="#FFFFFF" cx="489.3" cy="1069" r="1.2"/>
	<circle fill="#FFFFFF" cx="384.4" cy="1070.9" r="1.2"/>
	<circle fill="#FFFFFF" cx="326.3" cy="1057.1" r="1.2"/>
	<circle fill="#FFFFFF" cx="245.6" cy="1060.1" r="1.2"/>
	<circle fill="#FFFFFF" cx="192.9" cy="1080.8" r="1.2"/>
	<circle fill="#FFFFFF" cx="140.2" cy="1056.2" r="1.2"/>
	<circle fill="#FFFFFF" cx="70.7" cy="972.4" r="1.2"/>
	<circle fill="#FFFFFF" cx="65.8" cy="677" r="1.2"/>
	<circle fill="#FFFFFF" cx="82.6" cy="626.3" r="1.2"/>
	<circle fill="#FFFFFF" cx="159.9" cy="601.1" r="1.2"/>
	<circle fill="#FFFFFF" cx="289.9" cy="598.2" r="1.2"/>
	<circle fill="#FFFFFF" cx="381.5" cy="614.9" r="1.2"/>
	<circle fill="#FFFFFF" cx="425.8" cy="609.5" r="1.2"/>
	<circle fill="#FFFFFF" cx="440.6" cy="608.5" r="1.2"/>
	<circle fill="#FFFFFF" cx="244.6" cy="791.7" r="1.2"/>
	<circle fill="#FFFFFF" cx="1182.9" cy="143.2" r="1.2"/>
	<circle fill="#FFFFFF" cx="1135.6" cy="160.5" r="1.2"/>
	<circle fill="#FFFFFF" cx="1059.3" cy="132.4" r="1.2"/>
	<circle fill="#FFFFFF" cx="1053.9" cy="123" r="1.2"/>
	<circle fill="#FFFFFF" cx="1020.4" cy="189.5" r="1.2"/>
	<circle fill="#FFFFFF" cx="1061.3" cy="280.6" r="1.2"/>
	<circle fill="#FFFFFF" cx="1062.2" cy="316.6" r="1.2"/>
	<circle fill="#FFFFFF" cx="1080.5" cy="341.7" r="1.2"/>
	<circle fill="#FFFFFF" cx="1057.8" cy="415.1" r="1.2"/>
	<circle fill="#FFFFFF" cx="1079.5" cy="424.4" r="1.2"/>
	<circle fill="#FFFFFF" cx="1187.8" cy="438.2" r="1.2"/>
	<circle fill="#FFFFFF" cx="1109" cy="478.6" r="1.2"/>
	<circle fill="#FFFFFF" cx="1015.5" cy="347.1" r="1.2"/>
	<circle fill="#FFFFFF" cx="1040.1" cy="309.7" r="1.2"/>
	<circle fill="#FFFFFF" cx="1074.6" cy="306.2" r="1.2"/>
	<circle fill="#FFFFFF" cx="932.2" cy="348.1" r="1.2"/>
	<circle fill="#FFFFFF" cx="1070.1" cy="248.6" r="1.2"/>
	<circle fill="#FFFFFF" cx="1142.5" cy="215.6" r="1.2"/>
	<circle fill="#FFFFFF" cx="1128.2" cy="169.8" r="1.2"/>
	<circle fill="#FFFFFF" cx="1202.6" cy="106.3" r="1.2"/>
	<circle fill="#FFFFFF" cx="1132.2" cy="37.9" r="1.2"/>
	<circle fill="#FFFFFF" cx="1059.3" cy="62.5" r="1.2"/>
	<circle fill="#FFFFFF" cx="1019.4" cy="73.8" r="1.2"/>
	<circle fill="#FFFFFF" cx="994.8" cy="102.4" r="1.2"/>
	<circle fill="#FFFFFF" cx="1009.1" cy="298.4" r="1.2"/>
	<circle fill="#FFFFFF" cx="1006.6" cy="450.5" r="1.2"/>
	<circle fill="#FFFFFF" cx="996.7" cy="467.8" r="1.2"/>
	<circle fill="#FFFFFF" cx="1056.3" cy="474.7" r="1.2"/>
	<circle fill="#FFFFFF" cx="994.8" cy="222" r="1.2"/>
	<circle fill="#FFFFFF" cx="1186.8" cy="511.6" r="1.2"/>
	<circle fill="#FFFFFF" cx="1106.1" cy="514.5" r="1.2"/>
	<circle fill="#FFFFFF" cx="1053.4" cy="535.2" r="1.2"/>
	<circle fill="#FFFFFF" cx="1000.7" cy="510.6" r="1.2"/>
	<circle fill="#FFFFFF" cx="931.3" cy="426.9" r="1.2"/>
	<circle fill="#FFFFFF" cx="930.3" cy="313.1" r="1.2"/>
	<circle fill="#FFFFFF" cx="944.1" cy="287.5" r="1.2"/>
	<circle fill="#FFFFFF" cx="949" cy="208.2" r="1.2"/>
	<circle fill="#FFFFFF" cx="926.3" cy="131.4" r="1.2"/>
	<circle fill="#FFFFFF" cx="943.1" cy="80.7" r="1.2"/>
	<circle fill="#FFFFFF" cx="1020.4" cy="55.6" r="1.2"/>
	<circle fill="#FFFFFF" cx="1150.4" cy="52.6" r="1.2"/>
	<circle fill="#FFFFFF" cx="1105.1" cy="246.2" r="1.2"/>
	<circle fill="#FFFFFF" cx="423.8" cy="24.4" r="1.2"/>
	<circle fill="#FFFFFF" cx="423.8" cy="31.3" r="1.2"/>
	<circle fill="#FFFFFF" cx="423.3" cy="80" r="1.2"/>
	<circle fill="#FFFFFF" cx="423.3" cy="161.3" r="1.2"/>
	<circle fill="#FFFFFF" cx="423.3" cy="225.3" r="1.2"/>
	<circle fill="#FFFFFF" cx="423.3" cy="285.4" r="1.2"/>
	<circle fill="#FFFFFF" cx="421.3" cy="314.4" r="1.2"/>
	<circle fill="#FFFFFF" cx="397.2" cy="336.1" r="1.2"/>
	<circle fill="#FFFFFF" cx="341.5" cy="329.2" r="1.2"/>
	<circle fill="#FFFFFF" cx="280.4" cy="281.9" r="1.2"/>
	<circle fill="#FFFFFF" cx="336.6" cy="215.4" r="1.2"/>
	<circle fill="#FFFFFF" cx="381.4" cy="155.4" r="1.2"/>
	<circle fill="#FFFFFF" cx="377.5" cy="112" r="1.2"/>
	<circle fill="#FFFFFF" cx="314.9" cy="73.1" r="1.2"/>
	<circle fill="#FFFFFF" cx="252.9" cy="56.4" r="1.2"/>
	<circle fill="#FFFFFF" cx="205.6" cy="73.6" r="1.2"/>
	<circle fill="#FFFFFF" cx="131.2" cy="193.8" r="1.2"/>
	<circle fill="#FFFFFF" cx="282.4" cy="161.3" r="1.2"/>
	<circle fill="#FFFFFF" cx="253.9" cy="184.9" r="1.2"/>
	<circle fill="#FFFFFF" cx="132.2" cy="229.7" r="1.2"/>
	<circle fill="#FFFFFF" cx="150.4" cy="254.8" r="1.2"/>
	<circle fill="#FFFFFF" cx="127.8" cy="328.2" r="1.2"/>
	<circle fill="#FFFFFF" cx="149.5" cy="337.6" r="1.2"/>
	<circle fill="#FFFFFF" cx="257.8" cy="351.4" r="1.2"/>
	<circle fill="#FFFFFF" cx="179" cy="391.7" r="1.2"/>
	<circle fill="#FFFFFF" cx="85.4" cy="260.3" r="1.2"/>
	<circle fill="#FFFFFF" cx="110.1" cy="222.8" r="1.2"/>
	<circle fill="#FFFFFF" cx="144.5" cy="219.4" r="1.2"/>
	<circle fill="#FFFFFF" cx="140.1" cy="161.8" r="1.2"/>
	<circle fill="#FFFFFF" cx="212.5" cy="128.8" r="1.2"/>
	<circle fill="#FFFFFF" cx="198.2" cy="83" r="1.2"/>
	<circle fill="#FFFFFF" cx="272.6" cy="19.5" r="1.2"/>
	<circle fill="#FFFFFF" cx="407" cy="7.6" r="1.2"/>
	<circle fill="#FFFFFF" cx="397.2" cy="1.2" r="1.2"/>
	<circle fill="#FFFFFF" cx="79" cy="211.5" r="1.2"/>
	<circle fill="#FFFFFF" cx="76.6" cy="363.7" r="1.2"/>
	<circle fill="#FFFFFF" cx="66.7" cy="380.9" r="1.2"/>
	<circle fill="#FFFFFF" cx="126.3" cy="387.8" r="1.2"/>
	<circle fill="#FFFFFF" cx="303.1" cy="378.9" r="1.2"/>
	<circle fill="#FFFFFF" cx="373" cy="381.4" r="1.2"/>
	<circle fill="#FFFFFF" cx="417.8" cy="361.2" r="1.2"/>
	<circle fill="#FFFFFF" cx="436.1" cy="363.2" r="1.2"/>
	<circle fill="#FFFFFF" cx="376.5" cy="229.2" r="1.2"/>
	<circle fill="#FFFFFF" cx="375.5" cy="217.9" r="1.2"/>
	<circle fill="#FFFFFF" cx="340.5" cy="86.4" r="1.2"/>
	<circle fill="#FFFFFF" cx="363.2" cy="57.4" r="1.2"/>
	<circle fill="#FFFFFF" cx="370.6" cy="46" r="1.2"/>
	<circle fill="#FFFFFF" cx="482.8" cy="86.9" r="1.2"/>
	<circle fill="#FFFFFF" cx="472.5" cy="88.9" r="1.2"/>
	<circle fill="#FFFFFF" cx="455.8" cy="107.1" r="1.2"/>
	<circle fill="#FFFFFF" cx="464.1" cy="183.9" r="1.2"/>
	<circle fill="#FFFFFF" cx="476.9" cy="245" r="1.2"/>
	<circle fill="#FFFFFF" cx="482.8" cy="285.9" r="1.2"/>
	<circle fill="#FFFFFF" cx="474" cy="332.2" r="1.2"/>
	<circle fill="#FFFFFF" cx="456.3" cy="356.3" r="1.2"/>
	<circle fill="#FFFFFF" cx="452.8" cy="389.3" r="1.2"/>
	<circle fill="#FFFFFF" cx="419.8" cy="436.6" r="1.2"/>
	<circle fill="#FFFFFF" cx="314.9" cy="438.5" r="1.2"/>
	<circle fill="#FFFFFF" cx="256.8" cy="424.7" r="1.2"/>
	<circle fill="#FFFFFF" cx="176" cy="427.7" r="1.2"/>
	<circle fill="#FFFFFF" cx="123.4" cy="448.4" r="1.2"/>
	<circle fill="#FFFFFF" cx="70.7" cy="423.8" r="1.2"/>
	<circle fill="#FFFFFF" cx="1.2" cy="340" r="1.2"/>
	<circle fill="#FFFFFF" cx="175.1" cy="159.3" r="1.2"/>
	<circle fill="#FFFFFF" cx="1024.5" cy="603.2" r="1.2"/>
	<circle fill="#FFFFFF" cx="1024.5" cy="610.1" r="1.2"/>
	<circle fill="#FFFFFF" cx="1024" cy="658.8" r="1.2"/>
	<circle fill="#FFFFFF" cx="1024" cy="740.1" r="1.2"/>
	<circle fill="#FFFFFF" cx="1024" cy="804.1" r="1.2"/>
	<circle fill="#FFFFFF" cx="1024" cy="864.2" r="1.2"/>
	<circle fill="#FFFFFF" cx="1022.1" cy="893.2" r="1.2"/>
	<circle fill="#FFFFFF" cx="997.9" cy="914.9" r="1.2"/>
	<circle fill="#FFFFFF" cx="942.3" cy="908" r="1.2"/>
	<circle fill="#FFFFFF" cx="881.2" cy="860.7" r="1.2"/>
	<circle fill="#FFFFFF" cx="937.4" cy="794.3" r="1.2"/>
	<circle fill="#FFFFFF" cx="982.2" cy="734.2" r="1.2"/>
	<circle fill="#FFFFFF" cx="978.3" cy="690.8" r="1.2"/>
	<circle fill="#FFFFFF" cx="915.7" cy="651.9" r="1.2"/>
	<circle fill="#FFFFFF" cx="853.7" cy="635.2" r="1.2"/>
	<circle fill="#FFFFFF" cx="806.4" cy="652.4" r="1.2"/>
	<circle fill="#FFFFFF" cx="730.1" cy="624.4" r="1.2"/>
	<circle fill="#FFFFFF" cx="724.6" cy="615" r="1.2"/>
	<circle fill="#FFFFFF" cx="691.2" cy="681.5" r="1.2"/>
	<circle fill="#FFFFFF" cx="732" cy="772.6" r="1.2"/>
	<circle fill="#FFFFFF" cx="883.2" cy="740.1" r="1.2"/>
	<circle fill="#FFFFFF" cx="854.6" cy="763.7" r="1.2"/>
	<circle fill="#FFFFFF" cx="733" cy="808.5" r="1.2"/>
	<circle fill="#FFFFFF" cx="751.2" cy="833.7" r="1.2"/>
	<circle fill="#FFFFFF" cx="728.6" cy="907" r="1.2"/>
	<circle fill="#FFFFFF" cx="750.2" cy="916.4" r="1.2"/>
	<circle fill="#FFFFFF" cx="858.6" cy="930.2" r="1.2"/>
	<circle fill="#FFFFFF" cx="779.8" cy="970.6" r="1.2"/>
	<circle fill="#FFFFFF" cx="686.2" cy="839.1" r="1.2"/>
	<circle fill="#FFFFFF" cx="710.9" cy="801.6" r="1.2"/>
	<circle fill="#FFFFFF" cx="745.3" cy="798.2" r="1.2"/>
	<circle fill="#FFFFFF" cx="603" cy="840.1" r="1.2"/>
	<circle fill="#FFFFFF" cx="740.9" cy="740.6" r="1.2"/>
	<circle fill="#FFFFFF" cx="813.3" cy="707.6" r="1.2"/>
	<circle fill="#FFFFFF" cx="799" cy="661.8" r="1.2"/>
	<circle fill="#FFFFFF" cx="873.4" cy="598.3" r="1.2"/>
	<circle fill="#FFFFFF" cx="958.1" cy="573.6" r="1.2"/>
	<circle fill="#FFFFFF" cx="1007.8" cy="586.4" r="1.2"/>
	<circle fill="#FFFFFF" cx="997.9" cy="580" r="1.2"/>
	<circle fill="#FFFFFF" cx="802.9" cy="529.8" r="1.2"/>
	<circle fill="#FFFFFF" cx="730.1" cy="554.4" r="1.2"/>
	<circle fill="#FFFFFF" cx="690.2" cy="565.8" r="1.2"/>
	<circle fill="#FFFFFF" cx="665.5" cy="594.3" r="1.2"/>
	<circle fill="#FFFFFF" cx="679.8" cy="790.3" r="1.2"/>
	<circle fill="#FFFFFF" cx="677.4" cy="942.5" r="1.2"/>
	<circle fill="#FFFFFF" cx="667.5" cy="959.7" r="1.2"/>
	<circle fill="#FFFFFF" cx="727.1" cy="966.6" r="1.2"/>
	<circle fill="#FFFFFF" cx="903.9" cy="957.8" r="1.2"/>
	<circle fill="#FFFFFF" cx="973.8" cy="960.2" r="1.2"/>
	<circle fill="#FFFFFF" cx="1018.6" cy="940" r="1.2"/>
	<circle fill="#FFFFFF" cx="1036.9" cy="942" r="1.2"/>
	<circle fill="#FFFFFF" cx="977.3" cy="808" r="1.2"/>
	<circle fill="#FFFFFF" cx="976.3" cy="796.7" r="1.2"/>
	<circle fill="#FFFFFF" cx="941.3" cy="665.2" r="1.2"/>
	<circle fill="#FFFFFF" cx="964" cy="636.2" r="1.2"/>
	<circle fill="#FFFFFF" cx="971.4" cy="624.9" r="1.2"/>
	<circle fill="#FFFFFF" cx="665.5" cy="714" r="1.2"/>
	<circle fill="#FFFFFF" cx="1083.6" cy="665.7" r="1.2"/>
	<circle fill="#FFFFFF" cx="1073.3" cy="667.7" r="1.2"/>
	<circle fill="#FFFFFF" cx="1056.5" cy="685.9" r="1.2"/>
	<circle fill="#FFFFFF" cx="1064.9" cy="762.7" r="1.2"/>
	<circle fill="#FFFFFF" cx="1077.7" cy="823.8" r="1.2"/>
	<circle fill="#FFFFFF" cx="1083.6" cy="864.7" r="1.2"/>
	<circle fill="#FFFFFF" cx="1074.8" cy="911" r="1.2"/>
	<circle fill="#FFFFFF" cx="1057" cy="935.1" r="1.2"/>
	<circle fill="#FFFFFF" cx="1053.6" cy="968.1" r="1.2"/>
	<circle fill="#FFFFFF" cx="1020.6" cy="1015.4" r="1.2"/>
	<circle fill="#FFFFFF" cx="915.7" cy="1017.3" r="1.2"/>
	<circle fill="#FFFFFF" cx="857.6" cy="1003.5" r="1.2"/>
	<circle fill="#FFFFFF" cx="776.8" cy="1006.5" r="1.2"/>
	<circle fill="#FFFFFF" cx="724.1" cy="1027.2" r="1.2"/>
	<circle fill="#FFFFFF" cx="671.5" cy="1002.6" r="1.2"/>
	<circle fill="#FFFFFF" cx="602" cy="918.8" r="1.2"/>
	<circle fill="#FFFFFF" cx="601" cy="805.1" r="1.2"/>
	<circle fill="#FFFFFF" cx="614.8" cy="779.5" r="1.2"/>
	<circle fill="#FFFFFF" cx="619.7" cy="700.2" r="1.2"/>
	<circle fill="#FFFFFF" cx="597.1" cy="623.4" r="1.2"/>
	<circle fill="#FFFFFF" cx="613.8" cy="572.7" r="1.2"/>
	<circle fill="#FFFFFF" cx="691.2" cy="547.5" r="1.2"/>
	<circle fill="#FFFFFF" cx="821.2" cy="544.6" r="1.2"/>
	<circle fill="#FFFFFF" cx="912.8" cy="561.3" r="1.2"/>
	<circle fill="#FFFFFF" cx="957.1" cy="555.9" r="1.2"/>
	<circle fill="#FFFFFF" cx="971.8" cy="554.9" r="1.2"/>
	<circle fill="#FFFFFF" cx="775.9" cy="738.1" r="1.2"/>
</g>

</svg>
