<svg id="svg-clouds" xmlns="http://www.w3.org/2000/svg" viewBox="0 0 800 800">
  <title>svg-clouds</title>
  <g id="cloudGroup01">
    <circle id="single-star" cx="400" cy="-291.16" r="2.5" transform="translate(323.04 1150.64) rotate(-45)" fill="#fff"/>
    <g id="speedline">
      <line x1="400" y1="361.11" x2="400" y2="643.24" fill="none" stroke="#fff" stroke-miterlimit="10"/>
      <circle id="_circle_" data-name="&lt;circle&gt;" cx="400" cy="-302.58" r="1.5" transform="translate(331.12 1147.29) rotate(-45)" fill="none" stroke="#fff" stroke-miterlimit="10"/>
    </g>
    <circle id="cGuide01" cx="400" cy="1353.07" r="399.65" fill="none" stroke="#ff2703" stroke-miterlimit="10" stroke-width="0.7"/>
    <path id="cloud-03" d="M60-528.45c0,3.69,1.74,6.81,4.15,7.87-4.54,2.23-8,7.57-9.07,14.16-2.82,2.17-4.73,6.31-4.73,11.06a14.63,14.63,0,0,0,3.71,10.15c-2.62.33-4.71,1.49-5.7,3.44-1.81,3.57.7,8.6,5.7,12a18.05,18.05,0,0,0-3.3,9.59,17.57,17.57,0,0,0-11.63,16.53,17.56,17.56,0,0,0,9.13,15.41A24.77,24.77,0,0,0,44-414.33a24.77,24.77,0,0,0,2.91,11.67,20.27,20.27,0,0,0-3.37,11.21,20.33,20.33,0,0,0,1.21,6.91l-0.25.36a21.14,21.14,0,0,0-21.08,6.3A21.14,21.14,0,0,0,25-348a21.07,21.07,0,0,0,7.32,4.3c0,0.19,0,.37,0,0.56a25.86,25.86,0,0,0,1.19,7.77A33.71,33.71,0,0,0,9.4-303.08a33.56,33.56,0,0,0,3.48,14.93A32,32,0,0,0,.25-262.65,32.06,32.06,0,0,0,27-231c0.89,20.19,13.19,36.2,28.24,36.2,15.63,0,28.3-17.26,28.3-38.54a51.55,51.55,0,0,0-1.25-11.37c11.94-.5,21.51-13.78,21.51-30.1,0-16.64-9.95-30.13-22.21-30.13H81.4a26.28,26.28,0,0,0,.18-3.05,24.74,24.74,0,0,0-1.37-8.25,21.85,21.85,0,0,0,7.65-16.62,21.8,21.8,0,0,0-3.92-12.5,25.7,25.7,0,0,0-2.85-9.76c0.34-.37.68-0.75,1-1.15a23.42,23.42,0,0,0,1-28.23,20.32,20.32,0,0,0,1.2-6.91A20.51,20.51,0,0,0,84-394.6a24.83,24.83,0,0,0,9.73-19.73,24.88,24.88,0,0,0-20.21-24.44,17.48,17.48,0,0,0,.61-3.16A18.16,18.16,0,0,0,87-459.3a18.08,18.08,0,0,0-1.71-7.7,14.08,14.08,0,0,0,3.07-8.8A14.15,14.15,0,0,0,79.33-489,24,24,0,0,0,83-502.19c0-10.57-6.09-19.17-13.7-19.5a9.49,9.49,0,0,0,2.54-6.76c0-4.56-2.66-8.25-5.93-8.25S60-533,60-528.45Z" transform="translate(0 953.07)" fill="#fff"/>
    <path id="cloud-02" d="M297.15-570.16c-4,0-7.16,4.53-7.16,10.12,0,5.18,2.75,9.44,6.3,10a18.12,18.12,0,0,0,2.48,13.35c-3.7,2.54-6.24,7.89-6.24,14.09,0,6.68,3,12.38,7.14,14.63A28.29,28.29,0,0,0,297.15-496a26.38,26.38,0,0,0,4.91,15.89,39.51,39.51,0,0,0-2.26,8,13.41,13.41,0,0,0-5.55-1.22c-10.06,0-18.21,11.52-18.21,25.74a33.35,33.35,0,0,0,3.32,14.82c-14.67,7.61-25.13,27.52-25.13,50.88,0,19.35,7.18,36.33,18,45.91a41.64,41.64,0,0,0-3.82,17.48,41.46,41.46,0,0,0,15.48,32.41c-3.24,4.81-5.29,11.82-5.29,19.64,0,14.07,6.62,25.56,14.94,26.2a38.77,38.77,0,0,0-1.39,10.46c0,11.25,4.47,20.64,10.43,22.91-3.28,5.46-3.1,13.67.55,18.83,3.84,5.43,10.08,5.43,13.92,0a18.05,18.05,0,0,0,2.58-13.26c5.54-.92,10.37-6.53,11.84-14.61a27.44,27.44,0,0,0,.39-6.47c5.71-5,9.51-13.88,9.51-24.05,0-11.65-5-21.65-12.12-26a38.14,38.14,0,0,0,3.17-12.15,41.44,41.44,0,0,0,17.49-33.93,41.89,41.89,0,0,0-1.55-11.34c5.17-6.06,8.46-15.2,8.46-25.43,0-13.49-5.73-25.08-13.93-30.21-1.66-8.71-6.19-15.74-12.07-19A46,46,0,0,0,333.44-420a45.84,45.84,0,0,0-2.84-16.11c7.65-5,13-15.86,13-28.53,0-14.18-6.66-26.17-15.8-30,0-.44,0-0.88,0-1.33,0-11.18-6-20.38-13.69-21.53a21.58,21.58,0,0,0,.58-5,18.83,18.83,0,0,0-3.86-11.87,11.25,11.25,0,0,0,1.93-2.13c3.84-5.43,3.84-14.24,0-19.67-2.3-3.25-5.46-4.55-8.44-3.91C304.27-565.68,301.08-570.16,297.15-570.16Z" transform="translate(0 953.07)" fill="#fff"/>
    <path id="cloud-01" d="M789.79-498.85a3.23,3.23,0,0,0,1.37,2.64,4.7,4.7,0,0,0-4.29,4.68,4.68,4.68,0,0,0,.5,2.12,3.53,3.53,0,0,0-1.08,2,4.86,4.86,0,0,0-3.56,4.68,4.84,4.84,0,0,0,.33,1.76,6,6,0,0,0-3.11,2.1,6,6,0,0,0,1.06,8.42,6,6,0,0,0,1,.64,6.36,6.36,0,0,0-.33,2,6.37,6.37,0,0,0,3.5,5.69,8.48,8.48,0,0,0-3.32,6.74,8.49,8.49,0,0,0,4.07,7.25,10.17,10.17,0,0,0-6.88,9.62,10.14,10.14,0,0,0,3.16,7.37,15.94,15.94,0,0,0,3.32,20h0a14.7,14.7,0,0,0-.88,5.06,14.32,14.32,0,0,0,1.59,6.66,10.17,10.17,0,0,0-.91,1.3,15.3,15.3,0,0,0-5.35-1,15.34,15.34,0,0,0-15.34,15.34,15.34,15.34,0,0,0,8.66,13.81,14.19,14.19,0,0,0,5.91,6.28A16.27,16.27,0,0,0,767.8-348a16.25,16.25,0,0,0,8,14,9.77,9.77,0,0,0-3.25,7.28,9.75,9.75,0,0,0,1.1,4.5A16.13,16.13,0,0,0,763-307.05a16.08,16.08,0,0,0,1.13,5.94,28.34,28.34,0,0,0-22.51,27.84,28.51,28.51,0,0,0,3.59,13.9,30.79,30.79,0,0,0-3.59,14.51c0,13.92,9.09,25.59,21.34,28.79a19.88,19.88,0,0,0-7.55,15.61,19.91,19.91,0,0,0,10.7,17.66,10.74,10.74,0,0,0-1.39,5.29,10.8,10.8,0,0,0,8.06,10.44,5.53,5.53,0,0,0-.13,1.17,5.52,5.52,0,0,0,5.22,5.51c0.56,2.5,1.69,4.45,3.08,5.35a6.85,6.85,0,0,0,2,4.71,6.84,6.84,0,0,0,3.07,1.78,3.72,3.72,0,0,0,0,.51,3.71,3.71,0,0,0,3.71,3.71,3.71,3.71,0,0,0,3.71-3.71,3.69,3.69,0,0,0-.76-2.25l0,0a6.85,6.85,0,0,0,2-4.63,7.84,7.84,0,0,0,5.22-7.39,7.84,7.84,0,0,0-6.66-7.75,6,6,0,0,0,.77-2,14.53,14.53,0,0,0,10.2-13.87,14.53,14.53,0,0,0-9-13.44q0-.54,0-1.08A19.88,19.88,0,0,0,794-207.2a12.46,12.46,0,0,0,2.56.27c8.09,0,14.64-7.8,14.64-17.41a20.58,20.58,0,0,0-.46-4.34,25.06,25.06,0,0,0,11-20.74,25,25,0,0,0-9.89-20,24.06,24.06,0,0,0,18.86-23.49,24.05,24.05,0,0,0-21.38-23.9,16,16,0,0,0,1.94-7.68,16.06,16.06,0,0,0-5.59-12.19A16.92,16.92,0,0,0,813-350.56a16.87,16.87,0,0,0-3.82-10.72,14.4,14.4,0,0,0,3.82-9.79,14.46,14.46,0,0,0-10.8-14,9.94,9.94,0,0,0,4.51-8.18,9.59,9.59,0,0,0-2.32-6.21,11.36,11.36,0,0,0,11.15-11.31,11.3,11.3,0,0,0-4-8.59,15.94,15.94,0,0,0-5-15.78,15.87,15.87,0,0,0-6.73-3.47,11.3,11.3,0,0,0,10.42-11.26,11.3,11.3,0,0,0-11.3-11.3,11.35,11.35,0,0,0-2.1.2,8.54,8.54,0,0,0-1.65-1.46,6.63,6.63,0,0,0,5.61-6.55,6.63,6.63,0,0,0-5.4-6.51,4.53,4.53,0,0,0,1.35-3.23,4.54,4.54,0,0,0-4.28-4.53,4.83,4.83,0,0,0-.21-1,3.53,3.53,0,0,0,1.13-2.59c0-.11,0-0.22,0-0.33a4.7,4.7,0,0,0,3-4.37,4.7,4.7,0,0,0-2.53-4.17,3.24,3.24,0,0,0,2.52-3.16,3.24,3.24,0,0,0-3.24-3.24A3.24,3.24,0,0,0,789.79-498.85Z" transform="translate(0 953.07)" fill="#fff"/>
    <path id="cloud-04" d="M624.43-678.93a23.79,23.79,0,0,0-18,8.16,22.57,22.57,0,0,0-2-2.15,16.7,16.7,0,0,0,7.15-13.71,16.73,16.73,0,0,0-16.73-16.73,16.78,16.78,0,0,0-3.55.38c0-.2,0-0.41,0-0.62a16.91,16.91,0,0,0-5.27-12.28,23,23,0,0,0,22.18-23,23.11,23.11,0,0,0-.36-4.06A25.1,25.1,0,0,0,619.31-764a25.14,25.14,0,0,0-17.95-24.08,11.72,11.72,0,0,0,.48-1.14,29.68,29.68,0,0,0-2.39-39.27,29.54,29.54,0,0,0-11.82-7.24c0-.16,0-0.31,0-0.47A16.53,16.53,0,0,0,580-850.1a11.57,11.57,0,0,0,1.77-3.68,16.05,16.05,0,0,0,9.7-14.74,16,16,0,0,0-2-7.68,17.79,17.79,0,0,0,2-1.71,17.65,17.65,0,0,0,0-25,17.7,17.7,0,0,0-2-1.71A11.48,11.48,0,0,0,597-915.3a11.48,11.48,0,0,0-6.24-10.21,5.49,5.49,0,0,0,.39-2,5.51,5.51,0,0,0-2.87-4.84c0-.16,0-0.33,0-0.49a5.6,5.6,0,0,0-1.28-3.55,5.64,5.64,0,0,0,2-4.33,5.61,5.61,0,0,0-1.5-3.81,3.28,3.28,0,0,0,.91-2.26,3.39,3.39,0,0,0-3.43-3.35l-0.24,0a1.94,1.94,0,0,0,.24-0.93,2,2,0,0,0-2-2,2,2,0,0,0-2,2,2,2,0,0,0,1.61,2,3.29,3.29,0,0,0-1,2.3,3.26,3.26,0,0,0,.06.56,5.73,5.73,0,0,0-4.3,5.5,5.6,5.6,0,0,0,1.28,3.55,5.64,5.64,0,0,0-2,4.33,5.71,5.71,0,0,0,3.53,5.24s0,0.06,0,.09a5.49,5.49,0,0,0,.35,1.92A11.48,11.48,0,0,0,574-915.3c0,0.32,0,.65,0,1a6.88,6.88,0,0,0-3.91,6.2,6.86,6.86,0,0,0,.4,2.29,17.65,17.65,0,0,0-4,3,17.65,17.65,0,0,0-2,22.56,16,16,0,0,0-5.16,11.79,16,16,0,0,0,1.11,5.87A11.57,11.57,0,0,0,559-856.9a11.57,11.57,0,0,0,2.54,7.25,16.52,16.52,0,0,0-7,13.48,16.46,16.46,0,0,0,2.28,8.38,29.67,29.67,0,0,0,.64,41.3,29.53,29.53,0,0,0,16,8.26A25,25,0,0,0,569.05-764a25.1,25.1,0,0,0,1.2,7.69,23,23,0,0,0-6.79,10,23.33,23.33,0,0,0-11.61-3.08,23.44,23.44,0,0,0-23.44,23.44,23.44,23.44,0,0,0,23.44,23.44,23.49,23.49,0,0,0,5.57-.67,17,17,0,0,0,16.95,16.51,17,17,0,0,0,3.78-.43c0,0.14,0,.28,0,0.43a16.65,16.65,0,0,0,2.8,9.26,22.44,22.44,0,0,0-14.21,20.87,22.4,22.4,0,0,0,9.11,18,18.75,18.75,0,0,0-13.59,18c0,0.61,0,1.21.09,1.8-0.73-.06-1.47-0.1-2.22-0.1a26.41,26.41,0,0,0-26.41,26.41,26.54,26.54,0,0,0,.43,4.73,35.09,35.09,0,0,0-5.72-.47,34.86,34.86,0,0,0-34.86,34.86,34.82,34.82,0,0,0,15.15,28.75,26.28,26.28,0,0,0,25,18.18A26.14,26.14,0,0,0,547.18-510a16.68,16.68,0,0,0,7.15,6.61,33.44,33.44,0,0,0,18.84,14.22,16.68,16.68,0,0,0-4.12,11,16.76,16.76,0,0,0,10.24,15.44,20.59,20.59,0,0,0,1,3.63,13.63,13.63,0,0,0-12.62,13.59,13.65,13.65,0,0,0,.44,3.44,14.48,14.48,0,0,0-13.5,14.45,14.41,14.41,0,0,0,1.95,7.25,38,38,0,0,0-7.34-.72,37.77,37.77,0,0,0-37.77,37.77,37.77,37.77,0,0,0,21.65,34.16,26.13,26.13,0,0,0,24.35,16.67,26.25,26.25,0,0,0,4.82-.45,10.08,10.08,0,0,0,3,.45,10.19,10.19,0,0,0,1.09-.06,21,21,0,0,0-1.6,8,21,21,0,0,0,9.82,17.8,16,16,0,0,0-2.4,8.44,16,16,0,0,0,1.07,5.76,8.78,8.78,0,0,0-3.3,6.87,8.76,8.76,0,0,0,.91,3.89,15.06,15.06,0,0,0-7.35-1.91,15.14,15.14,0,0,0-15.14,15.14,15.09,15.09,0,0,0,1.18,5.86A14.77,14.77,0,0,0,540.37-249a14.77,14.77,0,0,0,14.77,14.77,14.81,14.81,0,0,0,3.14-.34,14.93,14.93,0,0,0,.65,1.54,8.78,8.78,0,0,0-4.36,7.59,8.78,8.78,0,0,0,8.78,8.78,8.76,8.76,0,0,0,6.46-2.83,9.33,9.33,0,0,0-1,4.29,9.34,9.34,0,0,0,2.68,6.56,9,9,0,0,0-8.36,9,9,9,0,0,0,9,9h0.09a4.5,4.5,0,0,0,4.46,3.9,4.5,4.5,0,0,0,4.5-4.5,4.49,4.49,0,0,0-1.54-3.39,9,9,0,0,0,1.54-5.05,9,9,0,0,0-2.49-6.22,9.37,9.37,0,0,0,8.81-9.35,9.37,9.37,0,0,0-9.37-9.37,9.35,9.35,0,0,0-6.94,3.08,8.72,8.72,0,0,0,.9-3.09h0.37a15.05,15.05,0,0,0,15.05-15.05,15.05,15.05,0,0,0-15.05-15.05,15.08,15.08,0,0,0-3.52.42l0-.12a15.14,15.14,0,0,0,9.71-14.13,15.06,15.06,0,0,0-2.85-8.83,8.79,8.79,0,0,0,3,.51,8.8,8.8,0,0,0,8.13-5.44c0.44,0,.89.06,1.35,0.06a16.05,16.05,0,0,0,16.05-16.05,16,16,0,0,0-4.17-10.8,21,21,0,0,0,6.75-15.44,21.05,21.05,0,0,0-21.05-21.05,21,21,0,0,0-6.33,1,26,26,0,0,0,4.09-14,26.13,26.13,0,0,0-1-7,37.6,37.6,0,0,0,4.38-17.66,37.71,37.71,0,0,0-15-30.11,14.49,14.49,0,0,0,11.56-14.19,14.47,14.47,0,0,0-.67-4.36,13.63,13.63,0,0,0,12-13.53c0-.19,0-0.38,0-0.57a20.77,20.77,0,0,0,4.84.57,20.73,20.73,0,0,0,20.73-20.73A20.73,20.73,0,0,0,600.07-487a16.84,16.84,0,0,0-3.43-4,33.37,33.37,0,0,0,19.27-30.25A33.35,33.35,0,0,0,599.41-550a33.8,33.8,0,0,0,.31-4.57,33.48,33.48,0,0,0-15.08-28,26.32,26.32,0,0,0,1.88-9.78,26.32,26.32,0,0,0-1.86-9.73,18.77,18.77,0,0,0,14.07-12.36,23.75,23.75,0,0,0,3.26.23,23.57,23.57,0,0,0,22.65-17,23.85,23.85,0,0,0,23.64-23.85A23.85,23.85,0,0,0,624.43-678.93Z" transform="translate(0 953.07)" fill="#fff"/>
    <path id="cloud-05" d="M766.88-391.4a33.67,33.67,0,0,0-33.67-33.67,33.51,33.51,0,0,0-19,5.87,25,25,0,0,0-23-15.21c-0.45,0-.9,0-1.35,0a13.42,13.42,0,0,0,1.35-5.88,13.42,13.42,0,0,0-1.1-5.33,17.17,17.17,0,0,0,1.1-6A17.21,17.21,0,0,0,674-468.84a17.34,17.34,0,0,0-2.55.19,16.31,16.31,0,0,0-1.88-2.9c0.42,0,.84,0,1.26,0a20.37,20.37,0,0,0,17.79-10.43,25.53,25.53,0,0,0,11.28-21.2c0-13.16-10.31-24-23.1-25.4a10.38,10.38,0,0,0,.2-3.38h0.65A21.27,21.27,0,0,0,698.95-553a21,21,0,0,0-6.45-15.27,24.37,24.37,0,0,0,6.59-16.63,24.63,24.63,0,0,0-.18-3.08,36.21,36.21,0,0,0,7.8-22.48,36.35,36.35,0,0,0-35.13-36.33,12.13,12.13,0,0,0,1.59-6,12.14,12.14,0,0,0-1.22-5.31,15.3,15.3,0,0,0,5.79-12,15.31,15.31,0,0,0-6.57-12.58,6.07,6.07,0,0,0,2-4.5,6.08,6.08,0,0,0-2.46-4.88,15,15,0,0,0,3.95-10.15,15.09,15.09,0,0,0-.32-3.11,9,9,0,0,0,.48-2.91,9,9,0,0,0-.11-1.32,19.87,19.87,0,0,0,16.51-19.57,19.88,19.88,0,0,0-14.43-19.12c-0.17-.38-0.35-0.76-0.55-1.12a16.08,16.08,0,0,0,2.83-9.13,16.16,16.16,0,0,0-10.23-15A5.2,5.2,0,0,0,670.2-777a5.27,5.27,0,0,0-3.11-4.9,8.91,8.91,0,0,0,1-4,8.89,8.89,0,0,0-4-7.44l0.38,0a5.3,5.3,0,0,0,5.3-5.3A5.29,5.29,0,0,0,664.5-804a5.29,5.29,0,0,0-5.29,5.29,5.28,5.28,0,0,0,1.81,4,9,9,0,0,0-1.81-.18,8.92,8.92,0,0,0-8.92,8.92,8.64,8.64,0,0,0,8.59,8.92H659a4.94,4.94,0,0,0,.79,2.65,16.16,16.16,0,0,0-13.06,15.86,16.09,16.09,0,0,0,3.43,10,14.56,14.56,0,0,0-1.38,6.21,14.55,14.55,0,0,0,3.11,9,19.94,19.94,0,0,0-.45,4.2,19.79,19.79,0,0,0,2.17,9,9.83,9.83,0,0,0,1.49,3.55,15,15,0,0,0-10.51,14.34,15,15,0,0,0,15,15c0.46,0,.91,0,1.35-0.06,0,0,0,0,0,.06a6.09,6.09,0,0,0,.27,1.8,15.33,15.33,0,0,0-14.16,15.28A15.27,15.27,0,0,0,651-659.88a12.13,12.13,0,0,0-2.24,7,12.16,12.16,0,0,0,4.07,9.09,12.25,12.25,0,0,0-2.31,2.78A36.32,36.32,0,0,0,634-610.5a36.32,36.32,0,0,0,16.81,30.66,24.43,24.43,0,0,0,9.8,14.85,21,21,0,0,0-3.71,12,21,21,0,0,0,4.26,12.71,10.4,10.4,0,0,0-4.26,8.4,10.38,10.38,0,0,0,3.22,7.53,25.53,25.53,0,0,0-11.34,20.68,16.4,16.4,0,0,0-4.21-.55,16.38,16.38,0,0,0-16.38,16.38,16.38,16.38,0,0,0,16,16.37,16.22,16.22,0,0,0-3.61,10.22A16.29,16.29,0,0,0,656.91-445c0.4,0,.79,0,1.18,0a17.27,17.27,0,0,0,6.53,7.85,13.49,13.49,0,0,0,9.2,9.83,24.91,24.91,0,0,0-7.6,17.94,25,25,0,0,0,9.86,19.89A24.51,24.51,0,0,0,661-366.9a24.48,24.48,0,0,0,11.44,20.72,16.37,16.37,0,0,0-2.49,7,28.44,28.44,0,0,0-13.13-3.2,28.57,28.57,0,0,0-28.53,27,22.61,22.61,0,0,0-3.9,12.72,22.68,22.68,0,0,0,1.19,7.25,27.72,27.72,0,0,0-12-2.71,27.7,27.7,0,0,0-16.44,5.38A35.8,35.8,0,0,0,569-257.76,35.78,35.78,0,0,0,604.83-222a35.66,35.66,0,0,0,14.59-3.1,35.53,35.53,0,0,0,5,1.79c0,0.25,0,.5,0,0.75a24.42,24.42,0,0,0,22.4,24.33A13.24,13.24,0,0,0,660-185.78a13.19,13.19,0,0,0,4.87-.93,10.56,10.56,0,0,0,3.53,4.91,10.53,10.53,0,0,0-4.1,8.35,10.55,10.55,0,0,0,10.55,10.55,10.55,10.55,0,0,0,10.55-10.55,10.53,10.53,0,0,0-4.1-8.35,10.53,10.53,0,0,0,4.1-8.35,10.55,10.55,0,0,0-10.55-10.55,10.61,10.61,0,0,0-1.7.14,13.2,13.2,0,0,0-4.18-8.2,24.31,24.31,0,0,0,4.27-13.79,24.36,24.36,0,0,0-7.85-17.94,35.57,35.57,0,0,0,2.82-6.59,19.14,19.14,0,0,0,17.18-19,19.14,19.14,0,0,0-19.14-19.14,19.13,19.13,0,0,0-5.54.82q0.86-.64,1.65-1.36a28.58,28.58,0,0,0,23-28,28.63,28.63,0,0,0-.89-7.09,16.64,16.64,0,0,0,1.8.1,16.48,16.48,0,0,0,16-12.47A26.59,26.59,0,0,0,713-331a26.7,26.7,0,0,0,26.7-26.7c0-.21,0-0.41,0-0.62A33.68,33.68,0,0,0,766.88-391.4Z" transform="translate(0 953.07)" fill="#fff"/>
    <path id="cloud-06" d="M183.09-861c0,2.81,1.92,5.09,4.28,5.09h0.15a7.45,7.45,0,0,0-.15,1.46,6.58,6.58,0,0,0,2.7,5.49,8.42,8.42,0,0,0-1.24,4.45,8.55,8.55,0,0,0,.86,3.76c-2.72.74-4.75,3.63-4.75,7.09a7.49,7.49,0,0,0,3.45,6.54,9.63,9.63,0,0,0-4.5,8.46,10.53,10.53,0,0,0,1.57,5.62l0,0.05c-0.45,0-.91,0-1.37,0a21.54,21.54,0,0,0-21.54,21.54,21.46,21.46,0,0,0,6,15,18.65,18.65,0,0,0-11.2,17.09A18.64,18.64,0,0,0,176-740.76a18.73,18.73,0,0,0,3.63-.36,11.68,11.68,0,0,0,1.86,2.07,15.5,15.5,0,0,0-4,10.37,15.54,15.54,0,0,0,.74,4.74,10.89,10.89,0,0,0-9.64,10.81,10.89,10.89,0,0,0,10.89,10.89h0.08a9.62,9.62,0,0,0,2.55,5.39A12.81,12.81,0,0,0,176-685.91a12.92,12.92,0,0,0,.11,1.67,28.46,28.46,0,0,0-23,22.55,30,30,0,0,0-5.49-.51,29.83,29.83,0,0,0-23.89,11.93,16.27,16.27,0,0,0-6.27-1.26c-9.77,0-17.7,8.7-17.7,19.43s7.92,19.43,17.7,19.43A16.28,16.28,0,0,0,124-614a29.82,29.82,0,0,0,23.62,11.59,29.73,29.73,0,0,0,14-3.48,20.15,20.15,0,0,0,19,13.4,20.16,20.16,0,0,0,5.2-.68,12.13,12.13,0,0,0-.62,3.84A12.11,12.11,0,0,0,186-585a22.48,22.48,0,0,0-6.7,4.62,22.55,22.55,0,0,0,0,31.88,22.59,22.59,0,0,0,4.35,3.4,12.09,12.09,0,0,0-.5,3.43,12.09,12.09,0,0,0,8.9,11.66,11,11,0,0,0-1.67,5.83,11,11,0,0,0,3.45,8,26,26,0,0,0-10.69,21A26,26,0,0,0,199.53-471a25.47,25.47,0,0,0-6.45,17,25.5,25.5,0,0,0,1.69,9.15A11.12,11.12,0,0,0,190.4-436a11.14,11.14,0,0,0,6.22,10,24.29,24.29,0,0,0-.18,2.9,24.17,24.17,0,0,0,.35,4.1,18.12,18.12,0,0,0-14.15,17.55,26.34,26.34,0,0,0-25.22,20.79h-0.59a23.88,23.88,0,0,0-23.88,23.88,24,24,0,0,0,.42,4.43,27,27,0,0,0-12.78,22.93,27,27,0,0,0,22.9,26.66c0,0.1,0,.2,0,0.31a20.93,20.93,0,0,0,12,19,19.28,19.28,0,0,0-2.92,10.21,20,20,0,0,0,20.21,19.73,20.57,20.57,0,0,0,8-1.6,13.93,13.93,0,0,0-.61,1.6c0,6.81,4.79,12.33,11.79,12.33h0c0,0.92.75,1.79,1.11,2.57a10.77,10.77,0,0,0-3.41,2,12,12,0,0,0-1.83,16.92,12.16,12.16,0,0,0,6.66,4.22,6.53,6.53,0,0,0-.36,2.23,6.56,6.56,0,0,0,1.8,4.49,5,5,0,0,0-2.88,4.55,5,5,0,0,0,1.08,3.11,9,9,0,0,0-5.58,8.32,9,9,0,0,0,9,9,9,9,0,0,0,9-9,9,9,0,0,0-4.78-7.94,5,5,0,0,0,1.4-3.49,5,5,0,0,0-.77-2.68,6.57,6.57,0,0,0,4.94-6.36,6.55,6.55,0,0,0-2.07-4.78,12,12,0,0,0,1.62-16.63,12,12,0,0,0-2.91-2.64,6.12,6.12,0,0,0,1.39-3.89,6.13,6.13,0,0,0-2.48-4.92,12.28,12.28,0,0,0,2.48-7.41,12.27,12.27,0,0,0-2-6.7,26,26,0,0,0,13-22.5A26,26,0,0,0,196.9-308a27.31,27.31,0,0,0,10.44-21.5,27.33,27.33,0,0,0-11.75-22.47,26.33,26.33,0,0,0,13.91-23.23,26.26,26.26,0,0,0-1.76-9.47,18.12,18.12,0,0,0,11.13-16.72c0-.14,0-0.27,0-0.41A18.75,18.75,0,0,0,229.68-408a22.19,22.19,0,0,0,14.55,5.41,22.29,22.29,0,0,0,22.29-22.29,22.27,22.27,0,0,0-11.27-19.37,37,37,0,0,0,26-35.34,37,37,0,0,0-37-37,37.06,37.06,0,0,0-9.43,1.21,17.27,17.27,0,0,0,.41-3.73A17.22,17.22,0,0,0,218-536.34a17.14,17.14,0,0,0-10.07,3.25,11,11,0,0,0-2.87-1.5,12,12,0,0,0,2.29-7.08,12.09,12.09,0,0,0-.5-3.43,22.59,22.59,0,0,0,4.35-3.4,22.55,22.55,0,0,0,0-31.88,22.65,22.65,0,0,0-3.4-2.79,12.09,12.09,0,0,0,1.7-6.2,12.15,12.15,0,0,0-12.11-12.15,20,20,0,0,0,3.37-11.15,20.12,20.12,0,0,0-9.41-17,28.45,28.45,0,0,0,18.15-26.52,28.39,28.39,0,0,0-10.42-22,12.76,12.76,0,0,0,2.55-7.67,12.8,12.8,0,0,0-5.71-10.66,9.63,9.63,0,0,0,2.9-6.89A9.66,9.66,0,0,0,190.4-713s0-.05,0-0.08,0-.16,0-0.24a15.64,15.64,0,0,0,2.69.24,15.56,15.56,0,0,0,15.56-15.56,15.56,15.56,0,0,0-9-14.11,11.57,11.57,0,0,0,1.13-5,11.62,11.62,0,0,0-6.17-10.27c0-.45.05-0.9,0.05-1.36a18.56,18.56,0,0,0-2.12-8.63,11.81,11.81,0,0,0,3.44-5.49,21.52,21.52,0,0,0,9.61-17.93,21.44,21.44,0,0,0-4.3-12.91,9.23,9.23,0,0,0,.36-2.55,9.21,9.21,0,0,0-3.11-6.91,10.69,10.69,0,0,0,1.11-4.79c0-4.11-2.22-7.6-5.32-8.86a7.66,7.66,0,0,0,2.85-6.15,8.34,8.34,0,0,0-.76-3.51c2.87-.7,5-3.72,5-7.34a7.56,7.56,0,0,0-4.06-7,7.25,7.25,0,0,0,.62-2.95c0-3.49-2.38-6.31-5.31-6.31a4.51,4.51,0,0,0-1,.12c0-.12,0-0.23,0-0.35,0-2.81-1.92-5.09-4.28-5.09S183.09-863.77,183.09-861Z" transform="translate(0 953.07)" fill="#fff"/>
    <path id="cloud-07" d="M483.62-438.76a19.21,19.21,0,0,0,.71-5.18,19.2,19.2,0,0,0-19.2-19.2,19.12,19.12,0,0,0-12.41,4.55,18.5,18.5,0,0,0-14.21-6.64,18.46,18.46,0,0,0-8.72,2.18q-0.57-.27-1.15-0.5a16.67,16.67,0,0,0,1.43-6.76A16.73,16.73,0,0,0,413.32-487a16.65,16.65,0,0,0-8.27,2.19,19.78,19.78,0,0,0-16.24-8.48h-0.1v0l1,0a18.87,18.87,0,0,0,18.87-18.87,18.8,18.8,0,0,0-4.94-12.73,34.92,34.92,0,0,0,4.94-18,35.16,35.16,0,0,0-1-8.16,18.32,18.32,0,0,0,17.8-18.31,18.24,18.24,0,0,0-3.06-10.14,14.33,14.33,0,0,0,6.44,1.52,14.4,14.4,0,0,0,13.67-9.9,20,20,0,0,0,2.78.2,19.83,19.83,0,0,0,19.83-19.83,19.78,19.78,0,0,0-7-15.11,19.67,19.67,0,0,0,1.27-7,19.72,19.72,0,0,0-19.72-19.72,19.74,19.74,0,0,0-5.09.67A25.09,25.09,0,0,0,414.3-660.4a36.41,36.41,0,0,0,10-25.07A36.41,36.41,0,0,0,414.84-710a16.9,16.9,0,0,0,.54-4.24,16.85,16.85,0,0,0-.8-5.14,20.63,20.63,0,0,0,4.51.5,20.58,20.58,0,0,0,20.58-20.58,20.54,20.54,0,0,0-1.2-6.94A27.57,27.57,0,0,0,445.73-765a27.67,27.67,0,0,0-25.86-27.61,14.94,14.94,0,0,0,.09-1.63,14.78,14.78,0,0,0-8-13.13,13.49,13.49,0,0,0,3.91-9.51,13.6,13.6,0,0,0-.2-2.33,24.55,24.55,0,0,0,2.38-2.08,24.35,24.35,0,0,0,2.6-31.36,16,16,0,0,0,7-13.27,16,16,0,0,0-13.05-15.74c0-.12,0-0.24,0-0.36a6.56,6.56,0,0,0-1.85-4.51,7.69,7.69,0,0,0,4.61-7.27c0-4.26-3.08-7.71-6.89-7.71h-0.07a12.35,12.35,0,0,0,3.45-8.57,12.36,12.36,0,0,0-3.9-9h0.06c3.86,0,7-4,7-9s-3-8.73-6.67-8.94a3.72,3.72,0,0,0,.16-1,3.75,3.75,0,0,0-3.75-3.75A3.75,3.75,0,0,0,403-938a3.75,3.75,0,0,0,2.25,3.44,10.25,10.25,0,0,0-2.2,6.51,10.42,10.42,0,0,0,1.86,6.07,12.4,12.4,0,0,0-3.42-.48,12.4,12.4,0,0,0-12.4,12.4,12.4,12.4,0,0,0,12.4,12.4,12.4,12.4,0,0,0,3.33-.46,8.32,8.32,0,0,0-1.2,4.34,8.25,8.25,0,0,0,1.53,4.83c-3.72.61-6.54,3.49-6.54,6.95a6.57,6.57,0,0,0,1.91,4.58,16,16,0,0,0-4.91,11.53,16.08,16.08,0,0,0,.4,3.55,24.23,24.23,0,0,0-12.41,6.65,24.35,24.35,0,0,0,0,34.44,24.35,24.35,0,0,0,5.2,4c0,0.15,0,.3,0,0.45a13.53,13.53,0,0,0,6.54,11.59,14.75,14.75,0,0,0-5,11.05,14.76,14.76,0,0,0,6.07,11.95A27.55,27.55,0,0,0,390.38-765a27.59,27.59,0,0,0,8.83,20.26,20.6,20.6,0,0,0-.71,5.35,20.5,20.5,0,0,0,1.81,8.45,17,17,0,0,0-1.81-.1,16.86,16.86,0,0,0-15.07,9.3,36.55,36.55,0,0,0-32.27,36.29,36.54,36.54,0,0,0,36.54,36.54,36.89,36.89,0,0,0,4.68-.3,25,25,0,0,0-4.21,13.92,25.06,25.06,0,0,0,9.42,19.6,17.45,17.45,0,0,0-1,5.86,17.3,17.3,0,0,0,17.27,17.49H414a14.51,14.51,0,0,0,2.15,7.19,17.83,17.83,0,0,0-9.12-2.5,18.26,18.26,0,0,0-17.63,13.52A34.81,34.81,0,0,0,373.51-578a35.08,35.08,0,0,0-35.07,35.09,35.35,35.35,0,0,0,.34,4.82,15.41,15.41,0,0,0-11.3,14.86,15.41,15.41,0,0,0,15.41,15.41,15.45,15.45,0,0,0,3.59-.42,23,23,0,0,0-3.89,12.84,23.11,23.11,0,0,0,23.11,23.11,23.31,23.31,0,0,0,3.33-.24,19.81,19.81,0,0,0,19.79,18.79,19.73,19.73,0,0,0,12.78-4.68q0.49,0.48,1,.92A23.19,23.19,0,0,0,396.67-442a23.28,23.28,0,0,0,20.71,23.13,33.51,33.51,0,0,0-27,32.87A33.43,33.43,0,0,0,403-359.74a17.15,17.15,0,0,0-4.28-.54,17.12,17.12,0,0,0-17.12,17.12,17.06,17.06,0,0,0,5.21,12.29,18.78,18.78,0,0,0-9,16.07A18.5,18.5,0,0,0,396.26-296H396a16.48,16.48,0,0,0,7.72,13.58A17.6,17.6,0,0,0,396.51-268a17.84,17.84,0,0,0,15.8,17.65s0,0.08,0,.12c0,0.23,0,.46,0,0.69a14.17,14.17,0,0,0-10.68,13.74,14.11,14.11,0,0,0,3.9,9.75,7.85,7.85,0,0,0-4.92,7.28,7.85,7.85,0,0,0,4,6.85,7.85,7.85,0,0,0-4,6.85,7.85,7.85,0,0,0,7.85,7.85,7.85,7.85,0,0,0,7.85-7.85,7.85,7.85,0,0,0-4-6.85,7.85,7.85,0,0,0,4-6.85,7.82,7.82,0,0,0-.54-2.86h0a14.18,14.18,0,0,0,14-12,16.67,16.67,0,0,0,15.85-16.65,16.8,16.8,0,0,0-.18-2.48,21.54,21.54,0,0,0,11.51-19.06,21.54,21.54,0,0,0-21.54-21.54,21.5,21.5,0,0,0-6.91,1.14,16.22,16.22,0,0,0,.46-3.81,16.19,16.19,0,0,0-13.88-16,18.93,18.93,0,0,0,.2-2.76,18.74,18.74,0,0,0-6.72-14.4,17.09,17.09,0,0,0,7.22-14A17.06,17.06,0,0,0,411.15-355a33.39,33.39,0,0,0,12.74,2.51,33.51,33.51,0,0,0,31.39-21.78,35.54,35.54,0,0,0,9.85,1.39,35.55,35.55,0,0,0,35.55-35.55A35.53,35.53,0,0,0,483.62-438.76Z" transform="translate(0 953.07)" fill="#fff"/>
  </g>
</svg>
