<svg id="svg-replay" xmlns="http://www.w3.org/2000/svg" viewBox="0 0 800 800">
  <title>svg-replay</title>
  <g id="replay">
    <path id="paper1" d="M524.7,328.72c-6.85,3.49-16.48,5.46-22.33,4.7a47.59,47.59,0,0,1-12.54-3.92c-0.6-.27-1.23-1-1.89-1,0,0-66.37-1.32-99.63,2.87s-115.69-4-115.69-4c-1.75,4.1-4.73,9.78-7.19,14.42-1.56,3.51-3,6.75-4.05,9.51,0.16-2,1.91-5.44,4.05-9.49A119.89,119.89,0,0,0,271,327.39l-38.5,1.91s1.61,34.85.71,74.17-4.17,68.19-4.17,68.19l38.17,0.2c3.44-5.86,7-11.93,8.72-17.87,0.08,3.29-.23,11.45-2.24,17.9l293.45,0.63L570.92,329Z" fill="#fcf0b4"/>
    <g id="word">
      <path d="M327.61,415.52q0-1.63.18-3.77t0.49-4.55q0.31-2.4.73-4.89t0.9-4.73q0.47-2.25,1-4.12a26.5,26.5,0,0,1,1-3.1,7.24,7.24,0,0,1,.59-1.29,2.56,2.56,0,0,1,.68-0.75,2.25,2.25,0,0,1,1-.37,9.22,9.22,0,0,1,1.42-.1,9.39,9.39,0,0,1,1.48.1,1.19,1.19,0,0,1,.78.44,2,2,0,0,1,.31,1q0,0.67,0,1.81v3.26q0,1.92,0,3.8h0.41l1.63-3.26a21.38,21.38,0,0,1,2.14-3.41,12.62,12.62,0,0,1,2.75-2.67,6,6,0,0,1,3.57-1.09,4,4,0,0,1,1.35.24,3.52,3.52,0,0,1,1.16.68,3.26,3.26,0,0,1,.8,1.09,3.46,3.46,0,0,1,.29,1.45,11.54,11.54,0,0,1-.18,1.74q-0.18,1.12-.41,2.35t-0.41,2.4a12.61,12.61,0,0,0-.18,1.92,8,8,0,0,0,.26,2.2,4.11,4.11,0,0,0,.68,1.42,2.4,2.4,0,0,0,1,.75,2.9,2.9,0,0,0,1.12.23,8.85,8.85,0,0,0,3.42-.73A22.22,22.22,0,0,0,360.7,402a30.7,30.7,0,0,0,3.39-2.43l-0.44,8.66-2.17,1.4a27.31,27.31,0,0,1-2.59,1.45,19.3,19.3,0,0,1-2.87,1.14,10.25,10.25,0,0,1-3,.46,7.92,7.92,0,0,1-4.45-1.12,8.15,8.15,0,0,1-2.69-2.93,14.91,14.91,0,0,1-1.47-4.07q-0.47-2.27-.77-4.58H343l-6.52,18.35a23.6,23.6,0,0,1-1,2.36,8,8,0,0,1-.95,1.53,2.77,2.77,0,0,1-1,.83,3,3,0,0,1-1.21.24,3.86,3.86,0,0,1-3.85-2.38,8.25,8.25,0,0,1-.67-2.46A24,24,0,0,1,327.61,415.52Z" fill="#fff"/>
      <path d="M371.81,423.2a13.79,13.79,0,0,1-6-1.26,12.5,12.5,0,0,1-4.32-3.36,14.38,14.38,0,0,1-2.59-4.89,19.56,19.56,0,0,1-.86-5.84,26,26,0,0,1,1.63-8.87,23.59,23.59,0,0,1,2.07-4.21,16.72,16.72,0,0,1,2.92-3.54,13.5,13.5,0,0,1,3.75-2.43,11.41,11.41,0,0,1,4.61-.9,10.79,10.79,0,0,1,3.83.67,9.36,9.36,0,0,1,3.06,1.86,8.43,8.43,0,0,1,2,2.89,9.42,9.42,0,0,1,.73,3.78,10.25,10.25,0,0,1-1.12,4.56,16.63,16.63,0,0,1-3.11,4.3,21.92,21.92,0,0,1-4.73,3.6,25.32,25.32,0,0,1-5.93,2.46,11.67,11.67,0,0,0,1.09,1.63,4.89,4.89,0,0,0,1.09,1,3.59,3.59,0,0,0,1.16.52,5.49,5.49,0,0,0,1.3.15,13.72,13.72,0,0,0,4.65-.88,30.47,30.47,0,0,0,4.76-2.2,40.46,40.46,0,0,0,4.37-2.89,37.57,37.57,0,0,0,3.49-3l4.74,4.89a48.51,48.51,0,0,1-6.88,5.92q-1.63,1.11-3.41,2.17a31,31,0,0,1-3.75,2,26.57,26.57,0,0,1-4.16,1.32A19.3,19.3,0,0,1,371.81,423.2Zm-4.89-17.28a7.29,7.29,0,0,0,2.89-.68,13,13,0,0,0,2.9-1.74,12.21,12.21,0,0,0,2.27-2.31,4.12,4.12,0,0,0,.91-2.43,5.46,5.46,0,0,0-.6-2.72A1.74,1.74,0,0,0,373.8,395a5.75,5.75,0,0,0-2.71.59,5.87,5.87,0,0,0-1.87,1.53,7.91,7.91,0,0,0-1.21,2.14,14.51,14.51,0,0,0-.7,2.45A18.24,18.24,0,0,0,367,404Q366.92,405.11,366.92,405.92Z" fill="#fff"/>
      <path d="M403.32,416.66a28.82,28.82,0,0,0,6.76-.73,25.56,25.56,0,0,0,5.54-2,23.33,23.33,0,0,0,4.48-2.92,29.34,29.34,0,0,0,3.62-3.59l0.41,8.43a19.22,19.22,0,0,1-2.85,2.77,21.19,21.19,0,0,1-3.65,2.35,22.25,22.25,0,0,1-4.17,1.63,16.12,16.12,0,0,1-4.32.6,3.52,3.52,0,0,1-.64,0l-1.34-.26-2.74-.49q-1.78-.31-4.89-0.75v0.67a60.6,60.6,0,0,1-1.12,12.16,39.71,39.71,0,0,1-3,9.32,18.32,18.32,0,0,1-4.3,5.95,7.64,7.64,0,0,1-5,2.1,5.74,5.74,0,0,1-3.49-1,7.2,7.2,0,0,1-2.22-2.77A14.57,14.57,0,0,1,379.2,444a33.53,33.53,0,0,1-.34-4.89,14.07,14.07,0,0,1,.47-3.41,33.94,33.94,0,0,1,1.29-4q0.81-2.07,1.83-4.22t2.07-4.17q2.49-4.71,5.7-9.78l0.83-5.88q0.42-3,1.06-5.85a39.12,39.12,0,0,1,1.63-5.36,16,16,0,0,1,2.49-4.42,11.41,11.41,0,0,1,3.65-3A11.08,11.08,0,0,1,405,388a14.05,14.05,0,0,1,4.19.6,8.85,8.85,0,0,1,3.42,2,9.36,9.36,0,0,1,2.31,3.5,14.47,14.47,0,0,1,.85,5.28,16,16,0,0,1-.73,4.89,15.32,15.32,0,0,1-2.3,4.47,20,20,0,0,1-4,4,27.91,27.91,0,0,1-5.72,3.26Zm-17.42,22.82a5.69,5.69,0,0,0,.13,1,6.1,6.1,0,0,0,.42,1.32,4.25,4.25,0,0,0,.77,1.17,1.53,1.53,0,0,0,1.17.52,1.19,1.19,0,0,0,1-.68,6.34,6.34,0,0,0,.67-1.83,18.06,18.06,0,0,0,.37-2.58q0.11-1.43.18-2.93t0.1-2.93q0-1.43.1-2.58,0.11-2,.16-3.36l0.1-2.3v-1.73a24.16,24.16,0,0,0-1.35,2.82q-0.67,1.63-1.26,3.26t-1.06,3.46q-0.47,1.73-.83,3.26T386,437.92a9.78,9.78,0,0,0-.15,1.5v0.07ZM398.69,413a18.93,18.93,0,0,0,3.8-2.46,18.06,18.06,0,0,0,2.75-2.9,16.51,16.51,0,0,0,1.89-3.26,21.3,21.3,0,0,0,1.17-3.39,11.18,11.18,0,0,0,.24-1.89,6.19,6.19,0,0,0-.23-2,3.75,3.75,0,0,0-1-1.63,2.56,2.56,0,0,0-1.89-.68,3.94,3.94,0,0,0-2.4.75,6.63,6.63,0,0,0-1.78,2,13,13,0,0,0-1.26,3,32,32,0,0,0-.81,3.78q-0.31,2-.44,4.21t-0.1,4.37V413Z" fill="#fff"/>
      <path d="M427.92,423.2a5.12,5.12,0,0,1-3.7-1.74,15.26,15.26,0,0,1-3-4.69,31.88,31.88,0,0,1-2-6.81,44.73,44.73,0,0,1-.72-8.15,57.8,57.8,0,0,1,.47-7.11,79,79,0,0,1,1.4-7.92q0.93-4.07,2.18-8.15a83.58,83.58,0,0,1,2.87-7.91,66.83,66.83,0,0,1,3.47-7.07,38.47,38.47,0,0,1,3.93-5.74,18.47,18.47,0,0,1,4.3-3.85,8.54,8.54,0,0,1,4.56-1.4,4.47,4.47,0,0,1,2.61.72,5,5,0,0,1,1.63,1.89,9.19,9.19,0,0,1,.83,2.67,19.14,19.14,0,0,1,.24,3,32.75,32.75,0,0,1-.78,7,54.75,54.75,0,0,1-2.14,7.2q-1.34,3.62-3.11,7.27t-3.6,7.17q-1.91,3.59-3.85,7.06t-3.62,6.78a8.15,8.15,0,0,0-.39,1q-0.2.59-.39,1.27c-0.13.46-.24,0.95-0.37,1.45a12.79,12.79,0,0,0-.29,1.5v0.52a8.43,8.43,0,0,0,.2,1.86,10.09,10.09,0,0,0,.49,1.63,4.89,4.89,0,0,0,.62,1.14,0.88,0.88,0,0,0,.62.42A5.25,5.25,0,0,0,432,414a14.67,14.67,0,0,0,1.91-.8A23.44,23.44,0,0,0,436,412q1.06-.65,2.05-1.3,2.31-1.55,4.89-3.57l3,7.73a75.5,75.5,0,0,1-6.52,4.19q-1.4.77-2.89,1.53a28.1,28.1,0,0,1-3,1.34,23.47,23.47,0,0,1-2.93.95A11.41,11.41,0,0,1,427.92,423.2Zm0-29.34q1.63-2.93,3.5-6.62t3.5-7.58q1.63-3.9,2.87-7.78a36.4,36.4,0,0,0,1.55-7.22q0-1.06,0-1.83c0-.51-0.15-0.75-0.34-0.75a3.26,3.26,0,0,0-2.3,1.39,18.56,18.56,0,0,0-2.46,3.73,43.72,43.72,0,0,0-2.35,5.48q-1.12,3.13-2,6.65a68.58,68.58,0,0,0-1.4,7.27,53,53,0,0,0-.54,7.19Z" fill="#fff"/>
      <path d="M479.33,414.2a34.46,34.46,0,0,1-2.27,2.75,27.43,27.43,0,0,1-3.26,3A19.85,19.85,0,0,1,470,422.4a9.11,9.11,0,0,1-4,1,5.59,5.59,0,0,1-4-1.63,12.75,12.75,0,0,1-2.79-4.55,18.07,18.07,0,0,1-2.17,2.1,19.46,19.46,0,0,1-2.82,1.92,18.06,18.06,0,0,1-3.26,1.42,10.42,10.42,0,0,1-3.26.55,8.64,8.64,0,0,1-3.44-.72,8.92,8.92,0,0,1-3-2.05,10,10,0,0,1-2.05-3.26,11.64,11.64,0,0,1-.77-4.35,22,22,0,0,1,.77-5.66,31,31,0,0,1,2.14-5.69,32.6,32.6,0,0,1,3.26-5.23,25.75,25.75,0,0,1,4.06-4.3,19.82,19.82,0,0,1,4.65-2.92,12.18,12.18,0,0,1,5-1.09,2.31,2.31,0,0,1,1.32.33,3.36,3.36,0,0,1,.78.75l0.6,0.83a1.73,1.73,0,0,0,.73.59,3.41,3.41,0,0,0,.9.24,8,8,0,0,0,.95,0h1.63a4.55,4.55,0,0,1,1,.11,1.74,1.74,0,0,1,.85.47,2.46,2.46,0,0,1,.57,1,6.52,6.52,0,0,1,.2,1.81,23.41,23.41,0,0,1-.36,3.91q-0.37,2.15-.81,4.42t-0.81,4.52a26.75,26.75,0,0,0-.37,4.29,9.26,9.26,0,0,0,.31,2.71,1.29,1.29,0,0,0,1.34,1,3.88,3.88,0,0,0,1.63-.39,10.09,10.09,0,0,0,1.63-1,19.56,19.56,0,0,0,1.73-1.42q0.86-.78,1.63-1.63a56.63,56.63,0,0,0,3.63-4.48Zm-31.41-2.9a12.06,12.06,0,0,0,.13,1.78,5.23,5.23,0,0,0,.46,1.55,3,3,0,0,0,.88,1.11,2.23,2.23,0,0,0,1.4.42,3.26,3.26,0,0,0,2.46-1.17,11.41,11.41,0,0,0,1.91-2.84,20.13,20.13,0,0,0,1.3-3.42,21.32,21.32,0,0,0,.64-2.93L459.34,395a6.24,6.24,0,0,0-2.93.75,11,11,0,0,0-2.71,2,18.35,18.35,0,0,0-2.33,2.93,22.82,22.82,0,0,0-1.84,3.47,22.05,22.05,0,0,0-1.19,3.65,15.39,15.39,0,0,0-.42,3.47v0Z" fill="#fff"/>
      <path d="M493.8,395a5.72,5.72,0,0,1,1-2.22,7.55,7.55,0,0,1,1.73-1.63,7.66,7.66,0,0,1,2-1,6.83,6.83,0,0,1,2-.33,3.47,3.47,0,0,1,1.91.49,1.71,1.71,0,0,1,.77,1.63,3.26,3.26,0,0,1-.11.77q-0.21,1-.55,2.61T501.92,399q-0.39,2.1-.78,4.43t-0.77,4.65q-0.93,5.44-1.87,11.69a27.17,27.17,0,0,0,2.4-1.55,25.05,25.05,0,0,0,2.87-2.46,42.57,42.57,0,0,0,3.54-3.88q1.91-2.33,4.37-5.84l1.76,8.15a15,15,0,0,1-1.63,2.33q-1,1.19-2.31,2.4a28.72,28.72,0,0,1-2.71,2.27q-1.39,1.12-2.71,2.12-3.13,2.35-6.73,4.56-0.7,3.93-1.63,7.66a56.35,56.35,0,0,1-2.27,7,39.38,39.38,0,0,1-3,6,21.94,21.94,0,0,1-3.78,4.66,16,16,0,0,1-4.73,3,14.91,14.91,0,0,1-5.77,1.09,15.66,15.66,0,0,1-2.71-.26,7.48,7.48,0,0,1-2.69-1,6,6,0,0,1-2-2.2,7.78,7.78,0,0,1-.81-3.83,10.06,10.06,0,0,1,.85-3.73,27.22,27.22,0,0,1,2.31-4.37,52.15,52.15,0,0,1,3.49-4.78q2-2.48,4.4-4.89t4.89-4.89q2.59-2.4,5.23-4.56l1-3.42a19.36,19.36,0,0,1-4.14,2.85,9.26,9.26,0,0,1-4.17,1.09,8.64,8.64,0,0,1-3.44-.72,9,9,0,0,1-3-2.05,10.07,10.07,0,0,1-2.05-3.26,11.65,11.65,0,0,1-.77-4.35,51,51,0,0,1,.31-5.88,42.12,42.12,0,0,1,.9-5.12,36.38,36.38,0,0,1,1.47-4.69q0.88-2.27,2-4.58a5.8,5.8,0,0,1,2.53-2.56,6.41,6.41,0,0,1,3.08-.86,3.75,3.75,0,0,1,2.2.65,2.28,2.28,0,0,1,.91,2,4.76,4.76,0,0,1-.1.88,5.67,5.67,0,0,1-.31,1,33.92,33.92,0,0,0-1.3,4q-0.64,2.36-1.14,4.71t-0.78,4.73a32.6,32.6,0,0,0-.29,4.07,12.06,12.06,0,0,0,.13,1.78,5.28,5.28,0,0,0,.46,1.55,3,3,0,0,0,.88,1.11,2.23,2.23,0,0,0,1.4.42,3.26,3.26,0,0,0,2.46-1.17,11.41,11.41,0,0,0,1.91-2.84,20.26,20.26,0,0,0,1.3-3.42,21.09,21.09,0,0,0,.64-2.93Zm-17.28,55.29a5.25,5.25,0,0,0,2.92-.9A10.69,10.69,0,0,0,482,447a20.31,20.31,0,0,0,2.12-3.34,37,37,0,0,0,1.63-3.85q0.73-2,1.26-3.85t0.95-3.31a26.84,26.84,0,0,0-2.92,2.28q-1.48,1.32-2.9,2.85t-2.69,3.15q-1.27,1.63-2.22,3.11a19.09,19.09,0,0,0-1.5,2.77,5.69,5.69,0,0,0-.55,2.14,1.26,1.26,0,0,0,1.18,1.32h0.19Z" fill="#fff"/>
    </g>
    <path d="M282,408.52c6.36,8,13.32,9.36,18.79,3.79,2.9-3,3.22-7.41,2.51-11.45,0,0,0,.14,0,0a15.36,15.36,0,0,0-9.51-11,15.92,15.92,0,0,0-15.51,2.63l7.67,4.27-17.54,8.81-0.9-19.75,7.33,4.4a20.85,20.85,0,0,1,21.71-5.43,21.68,21.68,0,0,1,13.95,15,22.47,22.47,0,0,1-6.63,22c-5.38,4.93-12.26,5.74-20.16,5.52-4.4-.12-10.14-4.23-14-8.2Z" fill="#fff"/>
  </g>
  <rect width="800" height="800" fill="none"/>
</svg>
