<?xml version="1.0" encoding="utf-8"?>
<!-- Generator: Adobe Illustrator 16.0.0, SVG Export Plug-In . SVG Version: 6.00 Build 0)  -->
<!DOCTYPE svg PUBLIC "-//W3C//DTD SVG 1.1//EN" "http://www.w3.org/Graphics/SVG/1.1/DTD/svg11.dtd">
<svg version="1.1" id="Layer_1" xmlns="http://www.w3.org/2000/svg" xmlns:xlink="http://www.w3.org/1999/xlink" x="0px" y="0px"
	 width="197.071px" height="67.506px" viewBox="0 0 197.071 67.506" enable-background="new 0 0 197.071 67.506"
	 xml:space="preserve">
<g>
	<g>
		<polygon fill="none" stroke="#000000" stroke-miterlimit="10" points="50.791,65.58 0.5,65.58 0.5,1.924 36.014,1.924 
			50.791,17.985 		"/>
		<polyline fill="none" stroke="#000000" stroke-miterlimit="10" points="50.791,17.985 35.932,17.904 36.014,1.924 		"/>
	</g>
	<g>
		<path fill="none" stroke="#000000" stroke-miterlimit="10" d="M190.768,4.594c0.926,0,1.71,0.782,1.71,1.709v50.258
			c0,0.926-0.784,1.709-1.71,1.709h-40.937c-0.927,0-1.708-0.783-1.708-1.709V6.303c0-0.927,0.781-1.709,1.708-1.709H190.768
			 M190.768,0.5h-40.937c-3.192,0-5.802,2.612-5.802,5.803v54.899c0,3.192,2.609,5.804,5.802,5.804h40.937
			c3.191,0,5.804-2.611,5.804-5.804V6.303C196.571,3.112,193.959,0.5,190.768,0.5L190.768,0.5z"/>
		<circle fill="none" stroke="#000000" stroke-miterlimit="10" cx="170.298" cy="62.699" r="2.062"/>
	</g>
	<line fill="none" stroke="#000000" stroke-miterlimit="10" x1="70.681" y1="33.752" x2="122.945" y2="33.752"/>
	<polygon fill="none" stroke="#000000" stroke-miterlimit="10" points="122.945,29.502 129.698,33.752 122.945,38.001 	"/>
</g>
</svg>
