<?xml version="1.0" encoding="utf-8"?>
<!-- Generator: Adobe Illustrator 16.0.0, SVG Export Plug-In . SVG Version: 6.00 Build 0)  -->
<!DOCTYPE svg PUBLIC "-//W3C//DTD SVG 1.1//EN" "http://www.w3.org/Graphics/SVG/1.1/DTD/svg11.dtd">
<svg version="1.1" id="Layer_1" xmlns="http://www.w3.org/2000/svg" xmlns:xlink="http://www.w3.org/1999/xlink" x="0px" y="0px"
	 width="195.422px" height="65.163px" viewBox="0 0 195.422 65.163" enable-background="new 0 0 195.422 65.163"
	 xml:space="preserve">
<g>
	<polygon fill="none" stroke="#000000" stroke-miterlimit="10" points="51.193,64.663 0.5,64.663 0.5,0.5 35.128,0.5 51.193,16.688 
			"/>
	<g>
		<polygon fill="none" stroke="#000000" stroke-miterlimit="10" points="194.922,0.5 191.479,0.5 144.229,47.75 144.229,54.456 
			194.922,3.765 		"/>
		<polygon fill="none" stroke="#000000" stroke-miterlimit="10" points="184.772,0.5 144.229,41.042 144.229,47.75 191.479,0.5 		
			"/>
		<polygon fill="none" stroke="#000000" stroke-miterlimit="10" points="194.922,10.47 144.229,61.162 144.229,64.663 
			147.437,64.663 194.922,17.178 		"/>
		<polygon fill="none" stroke="#000000" stroke-miterlimit="10" points="194.922,3.765 144.229,54.456 144.229,61.162 
			194.922,10.47 		"/>
		<polygon fill="none" stroke="#000000" stroke-miterlimit="10" points="160.295,0.5 144.229,16.688 144.229,20.823 164.551,0.5 		
			"/>
		<polygon fill="none" stroke="#000000" stroke-miterlimit="10" points="178.066,0.5 144.229,34.337 144.229,41.042 184.772,0.5 		
			"/>
		<polygon fill="none" stroke="#000000" stroke-miterlimit="10" points="164.551,0.5 144.229,20.823 144.229,27.629 171.359,0.5 		
			"/>
		<polygon fill="none" stroke="#000000" stroke-miterlimit="10" points="171.359,0.5 144.229,27.629 144.229,34.337 178.066,0.5 		
			"/>
		<polygon fill="none" stroke="#000000" stroke-miterlimit="10" points="194.922,44.004 174.263,64.663 180.97,64.663 
			194.922,50.711 		"/>
		<polygon fill="none" points="194.922,64.125 194.384,64.663 194.922,64.663 		"/>
		<polygon fill="none" stroke="#000000" stroke-miterlimit="10" points="194.922,17.178 147.437,64.663 154.144,64.663 
			194.922,23.884 		"/>
		<polygon fill="none" stroke="#000000" stroke-miterlimit="10" points="194.922,50.711 180.97,64.663 187.677,64.663 
			194.922,57.418 		"/>
		<polygon fill="none" stroke="#000000" stroke-miterlimit="10" points="194.922,57.418 187.677,64.663 194.384,64.663 
			194.922,64.125 		"/>
		<polygon fill="none" stroke="#000000" stroke-miterlimit="10" points="194.922,23.884 154.144,64.663 160.851,64.663 
			194.922,30.591 		"/>
		<polygon fill="none" stroke="#000000" stroke-miterlimit="10" points="194.922,30.591 160.851,64.663 167.556,64.663 
			194.922,37.297 		"/>
		<polygon fill="none" stroke="#000000" stroke-miterlimit="10" points="194.922,37.297 167.556,64.663 174.263,64.663 
			194.922,44.004 		"/>
	</g>
	<line fill="none" stroke="#000000" stroke-miterlimit="10" x1="73.227" y1="32.582" x2="125.907" y2="32.582"/>
	<polygon fill="none" stroke="#000000" stroke-miterlimit="10" points="125.907,28.298 132.715,32.582 125.907,36.865 	"/>
	<polygon fill="none" stroke="#000000" stroke-miterlimit="10" points="72.95,36.865 66.143,32.582 72.95,28.298 	"/>
</g>
</svg>
