<?xml version="1.0" encoding="utf-8"?>
<!-- Generator: Adobe Illustrator 16.0.4, SVG Export Plug-In . SVG Version: 6.00 Build 0)  -->
<!DOCTYPE svg PUBLIC "-//W3C//DTD SVG 1.1//EN" "http://www.w3.org/Graphics/SVG/1.1/DTD/svg11.dtd">
<svg version="1.1" id="logo-outlines" xmlns="http://www.w3.org/2000/svg" xmlns:xlink="http://www.w3.org/1999/xlink" x="0px" y="0px"
	 width="3024.567px" height="3024.568px" viewBox="3318.519 3325.086 3024.567 3024.568"
	 enable-background="new 3318.519 3325.086 3024.567 3024.568" xml:space="preserve">
<g id="Construction">
	<g>
		<g>
			<defs>
				<rect id="SVGID_1_" x="3317.952" y="3325.086" width="3024.567" height="3024.568"/>
			</defs>
			<clipPath id="SVGID_2_">
				<use xlink:href="#SVGID_1_"  overflow="visible"/>
			</clipPath>
			<g clip-path="url(#SVGID_2_)">
				<line class="lines" fill="#939393" stroke="#939393" stroke-miterlimit="10" x1="3406.397" y1="3296.701" x2="6369.349" y2="6259.655"/>
				<line class="lines" fill="#939393" stroke="#939393" stroke-miterlimit="10" x1="3405.112" y1="3300.964" x2="6374.843" y2="6270.699"/>
				<line class="lines" fill="#939393" stroke="#939393" stroke-miterlimit="10" x1="3354.496" y1="3300.28" x2="6369.431" y2="6315.217"/>
				<line class="lines" fill="#939393" stroke="#939393" stroke-miterlimit="10" x1="3292.721" y1="3410.497" x2="6260.74" y2="6378.519"/>
				<line class="lines" fill="#939393" stroke="#939393" stroke-miterlimit="10" x1="3296.682" y1="3420.009" x2="6257.964" y2="6381.296"/>
				<line class="lines" fill="#939393" stroke="#939393" stroke-miterlimit="10" x1="3294.107" y1="6289.745" x2="6287.056" y2="3296.79"/>
				<line class="lines" fill="#939393" stroke="#939393" stroke-miterlimit="10" x1="3294.614" y1="4861.221" x2="6370.858" y2="4861.219"/>
				<line class="lines" fill="#939393" stroke="#939393" stroke-miterlimit="10" x1="3294.615" y1="6256.826" x2="6245.945" y2="3305.493"/>
				<line class="lines" fill="#939393" stroke="#939393" stroke-miterlimit="10" x1="3406.309" y1="6378.526" x2="6362.755" y2="3422.076"/>
				<line class="lines" fill="#939393" stroke="#939393" stroke-miterlimit="10" x1="3372.529" y1="6378.39" x2="6372.753" y2="3378.168"/>
				<line class="lines" fill="#939393" stroke="#939393" stroke-miterlimit="10" x1="4830.569" y1="6377.842" x2="4830.569" y2="3195.782"/>
				<line class="lines" fill="#939393" stroke="#939393" stroke-miterlimit="10" x1="3294.614" y1="4837.387" x2="6403.011" y2="4837.387"/>
				<line class="lines" fill="#939393" stroke="#939393" stroke-miterlimit="10" x1="3293.343" y1="3300.157" x2="6371.025" y2="6377.842"/>
				<line class="lines" fill="#939393" stroke="#939393" stroke-miterlimit="10" x1="3293.039" y1="3355.333" x2="6316.48" y2="6378.777"/>
				<polygon fill="#939393" stroke="#939393" stroke-miterlimit="10" points="4786.75,4771.373 4756.236,4801.889 4786.75,4801.889 
									"/>
				<polygon fill="#939393" stroke="#939393" stroke-miterlimit="10" points="4741.8,4859.577 4741.8,4815.192 4719.606,4837.387 
									"/>
				<line class="lines" fill="#939393" stroke="#939393" stroke-miterlimit="10" x1="4714.059" y1="6378.777" x2="4714.059" y2="3204.103"/>
				<line class="lines" fill="#939393" stroke="#939393" stroke-miterlimit="10" x1="4741.8" y1="6377.842" x2="4741.8" y2="3204.103"/>
				<line class="lines" fill="#939393" stroke="#939393" stroke-miterlimit="10" x1="4919.341" y1="6377.842" x2="4919.341" y2="3204.103"/>
				<polygon fill="#939393" stroke="#939393" stroke-miterlimit="10" points="4890,4893.577 4921.385,4862.192 4889.999,4862.193 
									"/>
			</g>
		</g>
	</g>
</g>
</svg>
