<?xml version="1.0" encoding="utf-8"?>
<!-- Generator: Adobe Illustrator 16.0.0, SVG Export Plug-In . SVG Version: 6.00 Build 0)  -->
<!DOCTYPE svg PUBLIC "-//W3C//DTD SVG 1.1//EN" "http://www.w3.org/Graphics/SVG/1.1/DTD/svg11.dtd">
<svg version="1.1" id="Layer_1" xmlns="http://www.w3.org/2000/svg" xmlns:xlink="http://www.w3.org/1999/xlink" x="0px" y="0px"
	 width="203.941px" height="141.271px" viewBox="0 0 203.941 141.271" enable-background="new 0 0 203.941 141.271"
	 xml:space="preserve">
<g>
	<path fill="#010202" d="M145.198,45.425L145.198,45.425H91.12l9.734,9.734h11.896v22.713l-11.896,11.896v1.082l45.426-45.425
		H145.198z M123.567,55.159h11.896l-11.896,11.897V55.159z"/>
	<path fill="#010202" d="M80.304,41.099c0,0,2.181-0.524,3.455-0.89c5.076-1.458,8.773-4.634,10.691-9.183
		c1.859-4.408,1.45-9.1-1.181-13.57c-1.164-1.977-3.445-3.624-4.313-4.477l11.897-11.897V0l-34.61,34.61v0L55.429,45.425
		l9.734,9.734V40.018l21.631,21.631h14.061L80.304,41.099z M70.57,31.365l11.897-11.896c0.835,0.793,4.58,4.639,3.124,7.822
		c-1.221,2.667-4.324,3.914-6.501,4.075H70.57z"/>
</g>
<g>
	<path d="M0.42,120.792v-19.354h9.016c0.9,0,1.757,0.126,2.571,0.378c0.814,0.254,1.525,0.637,2.132,1.15
		c0.607,0.515,1.086,1.154,1.438,1.922c0.351,0.766,0.526,1.668,0.526,2.705c0,1.445-0.311,2.629-0.931,3.553
		c-0.621,0.924-1.548,1.621-2.78,2.094l3.711,7.553h-4.454l-3.455-7.006h-3.9v7.006H0.42z M4.293,110.183h5.061
		c1.845-0.008,2.767-0.846,2.767-2.51c0-0.877-0.246-1.504-0.736-1.879c-0.49-0.376-1.167-0.564-2.031-0.564H4.293V110.183z"/>
	<path d="M18.841,111.114c0-1.476,0.189-2.825,0.567-4.049c0.378-1.224,0.925-2.273,1.641-3.151c0.716-0.878,1.596-1.56,2.641-2.045
		s2.229-0.729,3.552-0.729c1.322,0,2.504,0.243,3.547,0.729s1.924,1.167,2.643,2.045s1.268,1.928,1.646,3.151
		c0.377,1.224,0.566,2.573,0.566,4.049c0,1.477-0.189,2.826-0.566,4.049c-0.378,1.225-0.926,2.274-1.646,3.152
		c-0.719,0.877-1.598,1.561-2.636,2.051c-1.039,0.49-2.223,0.736-3.554,0.736c-1.324,0-2.508-0.246-3.552-0.736
		s-1.925-1.174-2.641-2.051c-0.716-0.878-1.263-1.928-1.641-3.152C19.03,113.94,18.841,112.591,18.841,111.114z M22.823,111.114
		c0,0.863,0.083,1.67,0.249,2.416c0.167,0.747,0.429,1.396,0.789,1.95s0.82,0.987,1.381,1.303c0.561,0.315,1.229,0.472,2.001,0.472
		c0.773,0,1.44-0.156,2.001-0.472c0.561-0.315,1.022-0.749,1.381-1.303c0.359-0.554,0.623-1.203,0.789-1.95
		c0.167-0.746,0.25-1.553,0.25-2.416s-0.083-1.669-0.25-2.416c-0.166-0.746-0.429-1.396-0.789-1.949
		c-0.359-0.555-0.82-0.986-1.381-1.297c-0.562-0.311-1.229-0.465-2.001-0.465c-0.772,0-1.44,0.154-2.001,0.465
		c-0.562,0.311-1.022,0.742-1.381,1.297c-0.359,0.553-0.622,1.203-0.789,1.949C22.906,109.445,22.823,110.251,22.823,111.114z"/>
	<path d="M39.345,120.792v-19.354h8.865c1.877,0,3.366,0.438,4.466,1.317c1.101,0.878,1.65,2.145,1.65,3.803
		c0,0.823-0.175,1.558-0.526,2.202s-0.847,1.159-1.486,1.544c0.778,0.352,1.427,0.877,1.948,1.575c0.52,0.698,0.78,1.585,0.78,2.657
		c0,1.018-0.167,1.918-0.5,2.702c-0.333,0.784-0.799,1.438-1.398,1.966c-0.599,0.527-1.324,0.924-2.175,1.189
		s-1.79,0.398-2.816,0.398H39.345z M43.164,108.658h5.106c0.808,0,1.374-0.169,1.697-0.505c0.323-0.338,0.485-0.768,0.485-1.291
		c0-0.602-0.184-1.057-0.552-1.362s-0.979-0.459-1.832-0.459h-4.904V108.658z M43.164,117.106h5.133c0.935,0,1.628-0.227,2.082-0.68
		s0.68-1.064,0.68-1.837c0-1.651-0.92-2.477-2.762-2.477h-5.133V117.106z"/>
	<path d="M65.73,105.229v-3.792h14.981v3.792h-5.547v15.562h-3.874v-15.562H65.73z"/>
	<path d="M83.87,120.792v-19.354h3.874v7.437h7.936v-7.437h3.873v19.354h-3.873v-8.125h-7.936v8.125H83.87z"/>
	<path d="M102.781,101.438h4.035l1.688,9.435c0.09,0.477,0.182,1.023,0.276,1.639c0.095,0.617,0.159,1.127,0.195,1.533
		c0.085-0.406,0.192-0.917,0.321-1.533c0.129-0.617,0.243-1.162,0.344-1.639l2.29-9.435h3.407l2.317,9.414
		c0.104,0.481,0.223,1.03,0.355,1.644s0.233,1.13,0.303,1.549c0.035-0.406,0.098-0.92,0.188-1.546s0.18-1.167,0.267-1.626
		l1.625-9.435h3.981l-4.035,19.354h-3.787l-2.372-9.949c-0.128-0.6-0.258-1.211-0.391-1.832c-0.132-0.622-0.217-1.117-0.253-1.486
		c-0.024,0.375-0.103,0.878-0.233,1.511c-0.132,0.632-0.258,1.239-0.378,1.819l-2.449,9.938h-3.66L102.781,101.438z"/>
	<path d="M125.07,120.792l7.41-19.354h3.752l7.355,19.354h-4.251l-1.525-4.306h-7.072l-1.525,4.306H125.07z M132.061,112.802h4.427
		l-1.241-3.51c-0.207-0.566-0.398-1.117-0.573-1.652c-0.176-0.535-0.309-0.988-0.398-1.357c-0.09,0.369-0.223,0.822-0.398,1.357
		s-0.366,1.086-0.573,1.652L132.061,112.802z"/>
	<path d="M146.806,120.792v-19.354h3.874v19.354H146.806z"/>
	<path d="M153.977,105.229v-3.792h14.981v3.792h-5.547v15.562h-3.873v-15.562H153.977z"/>
	<path d="M172.118,120.792v-19.354h13.442v3.792h-9.569v3.307h5.562v3.793h-5.562v4.67h9.975v3.793H172.118z"/>
	<path d="M188.851,117.579l2.794-2.477c0.683,0.79,1.442,1.355,2.277,1.695c0.836,0.342,1.721,0.512,2.655,0.512
		c1.163,0,2.018-0.166,2.563-0.498c0.545-0.332,0.818-0.865,0.818-1.602c0-0.312-0.057-0.584-0.169-0.812
		c-0.113-0.229-0.32-0.444-0.622-0.646c-0.303-0.201-0.74-0.395-1.312-0.578s-1.314-0.375-2.225-0.572
		c-0.884-0.206-1.697-0.445-2.44-0.719c-0.742-0.273-1.378-0.621-1.905-1.043c-0.528-0.422-0.94-0.955-1.235-1.602
		c-0.295-0.645-0.443-1.443-0.443-2.395c0-0.887,0.18-1.684,0.539-2.389c0.358-0.707,0.85-1.307,1.473-1.8
		c0.624-0.493,1.353-0.868,2.188-1.127c0.834-0.258,1.73-0.387,2.69-0.387c1.508,0,2.827,0.271,3.959,0.812
		c1.131,0.541,2.154,1.294,3.069,2.258l-2.774,2.714c-0.63-0.646-1.299-1.139-2.006-1.479c-0.706-0.341-1.501-0.512-2.383-0.512
		c-0.515,0-0.947,0.053-1.299,0.155s-0.64,0.237-0.865,0.403s-0.384,0.35-0.474,0.552s-0.135,0.41-0.135,0.626
		c0,0.313,0.061,0.576,0.183,0.787c0.121,0.211,0.328,0.398,0.622,0.564c0.293,0.166,0.689,0.322,1.189,0.471
		c0.501,0.148,1.139,0.312,1.914,0.491c0.775,0.179,1.544,0.395,2.306,0.646c0.761,0.251,1.448,0.599,2.062,1.043
		c0.613,0.443,1.113,1.004,1.498,1.682c0.385,0.677,0.578,1.54,0.578,2.59c0,0.916-0.148,1.752-0.444,2.507s-0.756,1.403-1.38,1.947
		s-1.409,0.964-2.355,1.261c-0.947,0.297-2.08,0.445-3.399,0.445c-1.617,0-3.089-0.315-4.415-0.945S189.588,118.668,188.851,117.579
		z"/>
</g>
<g>
	<path d="M0,129.198h1.326l1.369,7.648c0.034,0.189,0.073,0.409,0.117,0.656c0.044,0.248,0.088,0.492,0.131,0.734
		c0.043,0.241,0.084,0.473,0.124,0.693c0.04,0.219,0.072,0.402,0.099,0.549c0.014-0.148,0.046-0.328,0.097-0.541
		c0.051-0.212,0.105-0.438,0.163-0.677c0.058-0.239,0.116-0.481,0.174-0.726s0.111-0.463,0.158-0.656l1.844-7.682h1.491l1.833,7.682
		c0.046,0.193,0.097,0.41,0.154,0.648s0.115,0.48,0.173,0.725s0.113,0.473,0.163,0.684c0.051,0.213,0.093,0.389,0.126,0.528
		c0.021-0.149,0.05-0.333,0.087-0.55c0.037-0.219,0.074-0.449,0.112-0.691c0.037-0.242,0.076-0.488,0.116-0.736
		c0.04-0.248,0.076-0.469,0.107-0.662l1.339-7.627h1.276l-2.361,11.883h-1.5l-1.818-7.621c-0.046-0.193-0.097-0.408-0.154-0.645
		s-0.112-0.472-0.168-0.705c-0.056-0.234-0.111-0.467-0.167-0.698s-0.104-0.435-0.146-0.612c-0.009,0.186-0.04,0.391-0.094,0.616
		s-0.108,0.455-0.164,0.688c-0.056,0.234-0.112,0.47-0.169,0.709c-0.057,0.238-0.109,0.457-0.157,0.656l-1.815,7.611H2.367
		L0,129.198z"/>
	<path d="M15.798,141.081v-11.883h7.185v1.21h-5.858v3.729h3.397v1.209h-3.397v4.524h6.107v1.21H15.798z"/>
	<path d="M26.357,141.081v-11.883h4.355c0.476,0,0.908,0.06,1.298,0.178c0.39,0.119,0.729,0.299,1.016,0.541
		s0.511,0.551,0.672,0.926c0.16,0.375,0.241,0.816,0.241,1.322c0,0.657-0.159,1.18-0.477,1.569c-0.317,0.39-0.731,0.675-1.239,0.856
		c0.271,0.066,0.542,0.171,0.812,0.312c0.271,0.141,0.514,0.327,0.729,0.56c0.215,0.233,0.391,0.522,0.526,0.868
		c0.135,0.346,0.203,0.756,0.203,1.232c0,1.178-0.331,2.059-0.991,2.643c-0.661,0.584-1.622,0.875-2.883,0.875H26.357z
		 M27.684,134.087h2.872c0.736,0,1.263-0.183,1.582-0.549c0.318-0.365,0.477-0.807,0.477-1.323c0-0.539-0.159-0.975-0.477-1.308
		c-0.318-0.332-0.81-0.499-1.473-0.499h-2.98V134.087z M27.684,139.871h3.024c0.895,0,1.529-0.204,1.902-0.612
		c0.373-0.408,0.559-0.951,0.559-1.629c0-0.744-0.227-1.319-0.679-1.725c-0.453-0.405-1.069-0.608-1.848-0.608h-2.958V139.871z"/>
	<path d="M42.564,138.088c0-0.442,0.06-0.839,0.178-1.19c0.119-0.351,0.294-0.668,0.526-0.953s0.512-0.543,0.841-0.775
		s0.7-0.456,1.115-0.672l-0.406-0.539c-0.292-0.398-0.542-0.778-0.746-1.141c-0.205-0.361-0.307-0.775-0.307-1.24
		c0-0.375,0.073-0.718,0.218-1.027s0.35-0.58,0.612-0.812c0.263-0.232,0.581-0.41,0.955-0.535c0.373-0.124,0.792-0.186,1.256-0.186
		c0.668,0,1.254,0.092,1.757,0.277c0.502,0.185,0.97,0.449,1.4,0.791l-0.679,1.053c-0.442-0.348-0.853-0.597-1.231-0.746
		c-0.378-0.148-0.799-0.224-1.264-0.224c-0.53,0-0.946,0.124-1.247,0.373s-0.452,0.572-0.452,0.97c0,0.316,0.062,0.598,0.187,0.847
		c0.125,0.249,0.3,0.522,0.526,0.821l3.613,4.702c0.16-0.293,0.305-0.615,0.435-0.966c0.13-0.352,0.258-0.727,0.385-1.125
		l1.119,0.341c-0.271,1.007-0.668,1.913-1.193,2.72l1.715,2.23H50.32l-0.953-1.234c-0.431,0.439-0.912,0.787-1.442,1.042
		s-1.119,0.383-1.765,0.383c-0.658,0-1.214-0.085-1.67-0.257c-0.456-0.17-0.826-0.398-1.109-0.686
		c-0.283-0.287-0.491-0.626-0.621-1.018C42.629,138.921,42.564,138.513,42.564,138.088z M43.84,138.046
		c0,0.576,0.197,1.064,0.592,1.469c0.395,0.403,0.977,0.605,1.745,0.605c0.508,0,0.966-0.102,1.375-0.303
		c0.409-0.202,0.776-0.485,1.102-0.851l-2.751-3.599c-0.746,0.337-1.276,0.724-1.591,1.16
		C43.998,136.966,43.84,137.472,43.84,138.046z"/>
	<path d="M59.607,135.156c0-0.884,0.119-1.702,0.356-2.452c0.237-0.752,0.569-1.398,0.994-1.939c0.426-0.541,0.938-0.969,1.538-1.28
		c0.599-0.312,1.255-0.468,1.968-0.468c1.604,0,2.86,0.635,3.77,1.904l-1.043,0.803c-0.387-0.52-0.783-0.898-1.189-1.138
		c-0.406-0.24-0.93-0.36-1.57-0.36c-0.508,0-0.978,0.121-1.409,0.364c-0.431,0.243-0.799,0.579-1.106,1.009
		c-0.307,0.431-0.547,0.945-0.721,1.543c-0.174,0.599-0.261,1.26-0.261,1.981c0,0.724,0.089,1.388,0.269,1.993
		s0.425,1.125,0.738,1.562c0.312,0.436,0.684,0.775,1.114,1.019c0.431,0.243,0.895,0.364,1.392,0.364
		c0.995,0,1.754-0.301,2.279-0.902c0.525-0.603,0.787-1.489,0.787-2.66v-0.1h-2.154v-1.21h3.431v1.16
		c0,0.812-0.11,1.526-0.331,2.142c-0.22,0.616-0.527,1.131-0.92,1.546c-0.394,0.414-0.858,0.724-1.395,0.928
		s-1.113,0.307-1.729,0.307c-0.724,0-1.384-0.155-1.98-0.468s-1.104-0.74-1.521-1.285c-0.417-0.543-0.739-1.188-0.965-1.935
		C59.721,136.839,59.607,136.029,59.607,135.156z"/>
	<path d="M72.181,141.081v-11.883h4.707c0.519,0,1.005,0.069,1.458,0.207c0.453,0.139,0.844,0.346,1.172,0.621
		c0.329,0.277,0.588,0.625,0.779,1.045c0.191,0.42,0.286,0.917,0.286,1.491c0,0.933-0.254,1.683-0.763,2.251
		c-0.508,0.569-1.188,0.943-2.038,1.12l2.618,5.147h-1.533l-2.544-5.038h-2.817v5.038H72.181z M73.507,134.833h3.157
		c0.884,0,1.537-0.184,1.959-0.551c0.423-0.367,0.634-0.924,0.634-1.67c0-0.734-0.206-1.285-0.617-1.653
		c-0.412-0.367-1.012-0.551-1.802-0.551h-3.331V134.833z"/>
	<path d="M83.345,141.081l4.118-11.883h1.458l4.126,11.883h-1.392l-1.019-3.016h-4.906l-1.036,3.016H83.345z M86.137,136.854h4.093
		l-1.309-3.902c-0.066-0.193-0.137-0.403-0.211-0.63c-0.074-0.227-0.145-0.444-0.211-0.655c-0.066-0.209-0.126-0.406-0.178-0.592
		c-0.053-0.186-0.095-0.341-0.128-0.469c-0.033,0.128-0.075,0.281-0.125,0.461s-0.109,0.377-0.178,0.592
		c-0.069,0.216-0.144,0.439-0.224,0.672c-0.08,0.231-0.153,0.449-0.22,0.654L86.137,136.854z"/>
	<path d="M96.137,141.081v-11.883h4.45c0.541,0,1.041,0.072,1.5,0.215c0.458,0.145,0.857,0.362,1.197,0.655s0.606,0.661,0.8,1.106
		c0.193,0.444,0.29,0.969,0.29,1.57c0,0.586-0.1,1.109-0.299,1.57c-0.198,0.461-0.474,0.846-0.824,1.156
		c-0.351,0.309-0.774,0.543-1.272,0.703c-0.497,0.161-1.041,0.241-1.632,0.241h-2.884v4.665H96.137z M97.463,135.206h2.9
		c0.005,0,0.011,0,0.017,0c1.778,0,2.668-0.801,2.668-2.403c0-0.768-0.216-1.358-0.646-1.772c-0.431-0.415-1.052-0.622-1.864-0.622
		h-3.074V135.206z"/>
	<path d="M107.368,141.081v-11.883h1.326v5.071h5.908v-5.071h1.326v11.883h-1.326v-5.602h-5.908v5.602H107.368z"/>
	<path d="M119.966,141.081v-11.883h1.325v11.883H119.966z"/>
	<path d="M124.822,135.16c0-0.884,0.118-1.702,0.356-2.454c0.237-0.752,0.568-1.398,0.994-1.94c0.425-0.542,0.938-0.969,1.537-1.281
		c0.599-0.312,1.255-0.468,1.968-0.468c1.607,0,2.867,0.635,3.778,1.904l-1.052,0.804c-0.387-0.519-0.783-0.898-1.189-1.139
		c-0.406-0.239-0.93-0.36-1.57-0.36c-0.508,0-0.978,0.121-1.408,0.365c-0.432,0.242-0.8,0.579-1.106,1.01
		c-0.307,0.43-0.547,0.945-0.721,1.544c-0.175,0.599-0.262,1.26-0.262,1.983c0,0.723,0.087,1.387,0.262,1.99
		c0.174,0.604,0.419,1.125,0.737,1.561c0.317,0.437,0.691,0.775,1.123,1.02c0.431,0.242,0.895,0.363,1.392,0.363
		c0.646,0,1.2-0.135,1.661-0.405c0.462-0.271,0.886-0.654,1.272-1.151l0.92,0.795c-0.432,0.586-0.97,1.061-1.616,1.426
		c-0.646,0.363-1.403,0.546-2.271,0.546c-0.724,0-1.384-0.155-1.98-0.468s-1.104-0.74-1.521-1.283
		c-0.417-0.544-0.739-1.188-0.965-1.934C124.935,136.841,124.822,136.032,124.822,135.16z"/>
	<path d="M142.088,141.081v-11.883h3.141c0.779,0,1.5,0.113,2.163,0.34s1.234,0.58,1.715,1.06c0.48,0.48,0.858,1.089,1.132,1.826
		s0.41,1.613,0.41,2.629c0,1.078-0.146,1.999-0.436,2.761c-0.29,0.764-0.689,1.389-1.197,1.875c-0.509,0.486-1.107,0.84-1.798,1.061
		c-0.691,0.222-1.432,0.332-2.221,0.332H142.088z M143.415,139.871h1.748c0.646,0,1.224-0.089,1.732-0.265
		c0.508-0.177,0.943-0.457,1.305-0.84c0.362-0.385,0.64-0.878,0.833-1.482s0.29-1.332,0.29-2.182c0-1.523-0.356-2.687-1.069-3.49
		c-0.712-0.803-1.754-1.204-3.124-1.204h-1.715V139.871z"/>
	<path d="M154.118,141.081v-11.883h7.185v1.21h-5.858v3.729h3.397v1.209h-3.397v4.524h6.107v1.21H154.118z"/>
	<path d="M164.368,139.623l0.879-0.985c0.453,0.431,0.939,0.775,1.459,1.035c0.519,0.26,1.085,0.389,1.699,0.389
		c0.788,0,1.411-0.181,1.869-0.542s0.687-0.86,0.687-1.495c0-0.27-0.044-0.518-0.132-0.744c-0.089-0.227-0.243-0.436-0.464-0.625
		c-0.221-0.191-0.512-0.38-0.872-0.567c-0.361-0.188-0.815-0.378-1.361-0.571c-0.646-0.227-1.186-0.455-1.62-0.688
		c-0.435-0.231-0.785-0.48-1.051-0.745s-0.458-0.562-0.577-0.89s-0.179-0.708-0.179-1.139c0-0.477,0.09-0.9,0.27-1.275
		c0.18-0.373,0.432-0.693,0.755-0.959s0.715-0.467,1.174-0.602c0.459-0.136,0.965-0.203,1.519-0.203
		c0.788,0,1.463,0.113,2.023,0.342c0.56,0.228,1.088,0.539,1.585,0.934l-0.846,1.035c-0.43-0.364-0.863-0.639-1.299-0.824
		c-0.436-0.185-0.951-0.277-1.547-0.277c-0.408,0-0.759,0.049-1.051,0.145c-0.292,0.098-0.532,0.225-0.72,0.381
		c-0.188,0.158-0.324,0.342-0.409,0.551c-0.086,0.21-0.129,0.434-0.129,0.671c0,0.249,0.035,0.472,0.104,0.671
		c0.069,0.199,0.206,0.392,0.41,0.58c0.204,0.188,0.489,0.371,0.855,0.55c0.367,0.18,0.849,0.377,1.444,0.593
		c0.656,0.236,1.205,0.475,1.646,0.711c0.441,0.238,0.795,0.497,1.06,0.779c0.265,0.281,0.454,0.592,0.567,0.932
		c0.113,0.339,0.17,0.729,0.17,1.171c0,0.464-0.087,0.899-0.261,1.309s-0.431,0.759-0.77,1.052c-0.34,0.293-0.752,0.524-1.238,0.695
		c-0.485,0.172-1.04,0.257-1.663,0.257c-0.812,0-1.562-0.155-2.247-0.468C165.423,140.491,164.843,140.099,164.368,139.623z"/>
	<path d="M175.788,141.081v-11.883h1.325v11.883H175.788z"/>
	<path d="M180.643,135.156c0-0.884,0.118-1.702,0.356-2.452c0.237-0.752,0.568-1.398,0.994-1.939
		c0.425-0.541,0.938-0.969,1.537-1.28c0.599-0.312,1.255-0.468,1.968-0.468c1.604,0,2.86,0.635,3.77,1.904l-1.043,0.803
		c-0.387-0.52-0.783-0.898-1.189-1.138c-0.406-0.24-0.93-0.36-1.57-0.36c-0.508,0-0.978,0.121-1.408,0.364
		c-0.432,0.243-0.8,0.579-1.106,1.009c-0.307,0.431-0.547,0.945-0.721,1.543c-0.175,0.599-0.262,1.26-0.262,1.981
		c0,0.724,0.09,1.388,0.27,1.993s0.426,1.125,0.737,1.562c0.312,0.436,0.684,0.775,1.115,1.019c0.431,0.243,0.895,0.364,1.392,0.364
		c0.994,0,1.754-0.301,2.279-0.902c0.524-0.603,0.787-1.489,0.787-2.66v-0.1h-2.155v-1.21h3.431v1.16
		c0,0.812-0.109,1.526-0.33,2.142c-0.22,0.616-0.526,1.131-0.92,1.546c-0.394,0.414-0.859,0.724-1.396,0.928
		s-1.113,0.307-1.729,0.307c-0.724,0-1.384-0.155-1.98-0.468s-1.104-0.74-1.521-1.285c-0.417-0.543-0.739-1.188-0.965-1.935
		C180.756,136.839,180.643,136.029,180.643,135.156z"/>
	<path d="M193.216,141.081v-11.883h1.293l5.146,8.287c0.066,0.099,0.14,0.219,0.22,0.359s0.159,0.283,0.236,0.428
		c0.077,0.143,0.153,0.277,0.228,0.401c0.075,0.124,0.129,0.226,0.162,0.302v-0.812v-8.966h1.276v11.883h-1.243l-5.196-8.129
		c-0.065-0.1-0.139-0.221-0.219-0.365c-0.08-0.143-0.159-0.285-0.236-0.426s-0.153-0.273-0.229-0.398
		c-0.074-0.124-0.128-0.225-0.161-0.303v0.812v8.809H193.216z"/>
</g>
</svg>
