<?xml version="1.0" encoding="utf-8"?>
<!-- Generator: Adobe Illustrator 16.0.0, SVG Export Plug-In . SVG Version: 6.00 Build 0)  -->
<!DOCTYPE svg PUBLIC "-//W3C//DTD SVG 1.1//EN" "http://www.w3.org/Graphics/SVG/1.1/DTD/svg11.dtd">
<svg version="1.1" id="Layer_1" xmlns="http://www.w3.org/2000/svg" xmlns:xlink="http://www.w3.org/1999/xlink" x="0px" y="0px"
	 width="213.379px" height="67.861px" viewBox="0 0 213.379 67.861" enable-background="new 0 0 213.379 67.861"
	 xml:space="preserve">
<g>
	<g>
		<polygon fill="none" stroke="#000000" stroke-miterlimit="10" points="197.785,65.93 147.225,65.93 147.225,1.933 182.928,1.933 
			197.785,18.08 		"/>
		<polyline fill="none" stroke="#000000" stroke-miterlimit="10" points="197.785,18.08 182.847,17.996 182.928,1.933 		"/>
	</g>
	<g>
		<path fill="none" stroke="#000000" stroke-miterlimit="10" d="M47.49,4.616c0.932,0,1.718,0.787,1.718,1.718v50.527
			c0,0.932-0.786,1.718-1.718,1.718H6.334c-0.931,0-1.718-0.786-1.718-1.718V6.334c0-0.931,0.787-1.718,1.718-1.718H47.49
			 M47.49,0.5H6.334C3.126,0.5,0.5,3.125,0.5,6.334v55.194c0,3.209,2.626,5.833,5.834,5.833H47.49c3.209,0,5.834-2.624,5.834-5.833
			V6.334C53.324,3.125,50.699,0.5,47.49,0.5L47.49,0.5z"/>
		<circle fill="none" stroke="#000000" stroke-miterlimit="10" cx="26.912" cy="63.033" r="2.074"/>
	</g>
	<path fill="none" stroke="#000000" stroke-miterlimit="10" d="M76.687,30.762c0,0,10.248-5.56,24.601-5.56
		c14.354,0,24.602,5.56,24.602,5.56"/>
	<polygon fill="none" stroke="#000000" stroke-miterlimit="10" points="127.184,27.47 132.52,33.461 124.809,35.678 	"/>
	<rect x="177.893" y="31.989" fill="#FFFFFF" stroke="#000000" stroke-miterlimit="10" width="34.986" height="20.53"/>
	<polygon fill="none" stroke="#000000" stroke-miterlimit="10" points="77.252,34.865 69.401,33.216 74.285,26.853 	"/>
</g>
</svg>
