<?xml version="1.0" encoding="utf-8"?>
<!-- Generator: Adobe Illustrator 16.0.0, SVG Export Plug-In . SVG Version: 6.00 Build 0)  -->
<!DOCTYPE svg PUBLIC "-//W3C//DTD SVG 1.1//EN" "http://www.w3.org/Graphics/SVG/1.1/DTD/svg11.dtd">
<svg version="1.1" id="Layer_1" xmlns="http://www.w3.org/2000/svg" xmlns:xlink="http://www.w3.org/1999/xlink" x="0px" y="0px"
	 width="176.148px" height="176.148px" viewBox="0 0 176.148 176.148" enable-background="new 0 0 176.148 176.148"
	 xml:space="preserve">
<polygon fill="#EAE8E8" points="176.149,-0.347 0,175.802 0,-0.347 "/>
<g>
	<path fill="#F94B4B" d="M31.037,50.207l3.023-8.402h1.336l3.059,8.402h-1.342l-0.709-1.998h-3.363l-0.697,1.998H31.037z
		 M33.428,47.09h2.59l-0.674-1.934c-0.047-0.152-0.103-0.32-0.167-0.504s-0.126-0.368-0.185-0.554s-0.114-0.355-0.167-0.51
		s-0.091-0.276-0.114-0.366c-0.023,0.09-0.06,0.212-0.108,0.366s-0.101,0.322-0.155,0.504s-0.112,0.368-0.173,0.56
		s-0.12,0.363-0.179,0.516L33.428,47.09z"/>
	<path fill="#F94B4B" d="M40.108,50.207v-8.402h3.457c0.734,0,1.32,0.186,1.758,0.558c0.438,0.371,0.656,0.911,0.656,1.619
		c0,0.435-0.103,0.787-0.308,1.056s-0.458,0.479-0.759,0.632c0.168,0.047,0.336,0.12,0.504,0.221c0.168,0.1,0.319,0.23,0.454,0.392
		c0.135,0.16,0.244,0.354,0.328,0.579s0.126,0.484,0.126,0.774c0,0.854-0.25,1.496-0.75,1.926c-0.5,0.432-1.209,0.646-2.127,0.646
		H40.108z M41.297,45.127h2.256c0.207,0,0.385-0.03,0.533-0.091s0.269-0.142,0.36-0.241s0.16-0.215,0.205-0.344
		s0.067-0.263,0.067-0.399c0-0.313-0.088-0.575-0.264-0.787s-0.477-0.317-0.902-0.317h-2.256V45.127z M41.297,49.065h2.244
		c0.559,0,0.952-0.129,1.181-0.386s0.343-0.593,0.343-1.009c0-0.436-0.128-0.777-0.384-1.026s-0.624-0.374-1.104-0.374h-2.279
		V49.065z"/>
	<path fill="#F94B4B" d="M47.813,46.009c0-0.633,0.084-1.216,0.252-1.747c0.168-0.532,0.405-0.99,0.712-1.375
		s0.679-0.684,1.116-0.895s0.928-0.316,1.471-0.316s1.035,0.105,1.477,0.316s0.815,0.51,1.122,0.895s0.544,0.843,0.712,1.375
		c0.168,0.531,0.252,1.114,0.252,1.747c0,0.641-0.084,1.224-0.252,1.751c-0.168,0.526-0.405,0.982-0.712,1.367
		s-0.681,0.683-1.122,0.896s-0.934,0.319-1.477,0.319s-1.033-0.106-1.471-0.319s-0.81-0.511-1.116-0.896s-0.544-0.841-0.712-1.367
		C47.897,47.233,47.813,46.65,47.813,46.009z M49.096,46.009c0,0.944,0.194,1.691,0.583,2.242c0.389,0.55,0.95,0.825,1.685,0.825
		c0.742,0,1.308-0.275,1.696-0.825c0.389-0.551,0.583-1.298,0.583-2.242s-0.194-1.691-0.583-2.242
		c-0.389-0.55-0.954-0.825-1.696-0.825c-0.734,0-1.296,0.276-1.685,0.828C49.29,44.323,49.096,45.069,49.096,46.009z"/>
	<path fill="#F94B4B" d="M56.655,46.68v-4.875h1.26v4.84c0,0.801,0.162,1.406,0.486,1.816s0.803,0.615,1.436,0.615
		c0.664,0,1.154-0.197,1.471-0.592s0.475-0.98,0.475-1.758v-4.922h1.26v4.898c0,1.184-0.276,2.086-0.829,2.707
		s-1.353,0.932-2.399,0.932c-1.039,0-1.825-0.32-2.358-0.961S56.655,47.84,56.655,46.68z"/>
	<path fill="#F94B4B" d="M64.629,43.041v-1.236h6.158v1.236h-2.449v7.166h-1.26v-7.166H64.629z"/>
</g>
</svg>
